%TF.GenerationSoftware,KiCad,Pcbnew,8.0.1-rc1*%
%TF.CreationDate,2024-07-22T16:01:23-05:00*%
%TF.ProjectId,Waveform_Blinky,57617665-666f-4726-9d5f-426c696e6b79,1.0*%
%TF.SameCoordinates,Original*%
%TF.FileFunction,Legend,Top*%
%TF.FilePolarity,Positive*%
%FSLAX46Y46*%
G04 Gerber Fmt 4.6, Leading zero omitted, Abs format (unit mm)*
G04 Created by KiCad (PCBNEW 8.0.1-rc1) date 2024-07-22 16:01:23*
%MOMM*%
%LPD*%
G01*
G04 APERTURE LIST*
%ADD10C,0.150000*%
%ADD11C,0.254000*%
%ADD12C,0.222250*%
%ADD13C,0.317500*%
%ADD14C,0.120000*%
%ADD15C,0.010000*%
G04 APERTURE END LIST*
D10*
X114935000Y-89027000D02*
X125349000Y-89027000D01*
X125349000Y-89027000D02*
X125349000Y-95123000D01*
X110744000Y-95885000D02*
X110744000Y-102489000D01*
X156337000Y-89027000D02*
X156337000Y-95123000D01*
D11*
X131064000Y-117094000D02*
X129794000Y-114554000D01*
D10*
X109855000Y-102489000D02*
X110998000Y-102489000D01*
X145923000Y-95123000D02*
X145923000Y-89027000D01*
D11*
X126007289Y-117042144D02*
X124737289Y-114502144D01*
D10*
X109855000Y-95885000D02*
X110998000Y-95885000D01*
X130429000Y-95123000D02*
X130429000Y-89027000D01*
X145923000Y-89027000D02*
X156337000Y-89027000D01*
X140843000Y-89027000D02*
X140843000Y-95123000D01*
D11*
X127254000Y-117094000D02*
X128524000Y-114554000D01*
X127253999Y-117094000D02*
G75*
G02*
X126007307Y-117042137I-611699J305900D01*
G01*
D10*
X110998000Y-95885000D02*
X110998000Y-102489000D01*
X114935000Y-95123000D02*
X114935000Y-89027000D01*
X130429000Y-89027000D02*
X140843000Y-89027000D01*
D11*
X128547289Y-114502144D02*
G75*
G02*
X129793998Y-114554000I611711J-305856D01*
G01*
D12*
X142936045Y-93641332D02*
X142893712Y-93725999D01*
X142893712Y-93725999D02*
X142893712Y-93852999D01*
X142893712Y-93852999D02*
X142936045Y-93979999D01*
X142936045Y-93979999D02*
X143020712Y-94064666D01*
X143020712Y-94064666D02*
X143105379Y-94106999D01*
X143105379Y-94106999D02*
X143274712Y-94149332D01*
X143274712Y-94149332D02*
X143401712Y-94149332D01*
X143401712Y-94149332D02*
X143571045Y-94106999D01*
X143571045Y-94106999D02*
X143655712Y-94064666D01*
X143655712Y-94064666D02*
X143740379Y-93979999D01*
X143740379Y-93979999D02*
X143782712Y-93852999D01*
X143782712Y-93852999D02*
X143782712Y-93768332D01*
X143782712Y-93768332D02*
X143740379Y-93641332D01*
X143740379Y-93641332D02*
X143698045Y-93598999D01*
X143698045Y-93598999D02*
X143401712Y-93598999D01*
X143401712Y-93598999D02*
X143401712Y-93768332D01*
X143782712Y-93217999D02*
X142893712Y-93217999D01*
X142893712Y-93217999D02*
X143782712Y-92709999D01*
X143782712Y-92709999D02*
X142893712Y-92709999D01*
X143782712Y-92286666D02*
X142893712Y-92286666D01*
X142893712Y-92286666D02*
X142893712Y-92074999D01*
X142893712Y-92074999D02*
X142936045Y-91947999D01*
X142936045Y-91947999D02*
X143020712Y-91863333D01*
X143020712Y-91863333D02*
X143105379Y-91820999D01*
X143105379Y-91820999D02*
X143274712Y-91778666D01*
X143274712Y-91778666D02*
X143401712Y-91778666D01*
X143401712Y-91778666D02*
X143571045Y-91820999D01*
X143571045Y-91820999D02*
X143655712Y-91863333D01*
X143655712Y-91863333D02*
X143740379Y-91947999D01*
X143740379Y-91947999D02*
X143782712Y-92074999D01*
X143782712Y-92074999D02*
X143782712Y-92286666D01*
D13*
X112046778Y-103051427D02*
X112107254Y-102869999D01*
X112107254Y-102869999D02*
X112167730Y-102809522D01*
X112167730Y-102809522D02*
X112288682Y-102749046D01*
X112288682Y-102749046D02*
X112470111Y-102749046D01*
X112470111Y-102749046D02*
X112591063Y-102809522D01*
X112591063Y-102809522D02*
X112651540Y-102869999D01*
X112651540Y-102869999D02*
X112712016Y-102990951D01*
X112712016Y-102990951D02*
X112712016Y-103474761D01*
X112712016Y-103474761D02*
X111442016Y-103474761D01*
X111442016Y-103474761D02*
X111442016Y-103051427D01*
X111442016Y-103051427D02*
X111502492Y-102930475D01*
X111502492Y-102930475D02*
X111562968Y-102869999D01*
X111562968Y-102869999D02*
X111683920Y-102809522D01*
X111683920Y-102809522D02*
X111804873Y-102809522D01*
X111804873Y-102809522D02*
X111925825Y-102869999D01*
X111925825Y-102869999D02*
X111986301Y-102930475D01*
X111986301Y-102930475D02*
X112046778Y-103051427D01*
X112046778Y-103051427D02*
X112046778Y-103474761D01*
X112712016Y-101660475D02*
X112046778Y-101660475D01*
X112046778Y-101660475D02*
X111925825Y-101720951D01*
X111925825Y-101720951D02*
X111865349Y-101841903D01*
X111865349Y-101841903D02*
X111865349Y-102083808D01*
X111865349Y-102083808D02*
X111925825Y-102204761D01*
X112651540Y-101660475D02*
X112712016Y-101781427D01*
X112712016Y-101781427D02*
X112712016Y-102083808D01*
X112712016Y-102083808D02*
X112651540Y-102204761D01*
X112651540Y-102204761D02*
X112530587Y-102265237D01*
X112530587Y-102265237D02*
X112409635Y-102265237D01*
X112409635Y-102265237D02*
X112288682Y-102204761D01*
X112288682Y-102204761D02*
X112228206Y-102083808D01*
X112228206Y-102083808D02*
X112228206Y-101781427D01*
X112228206Y-101781427D02*
X112167730Y-101660475D01*
X111865349Y-101237141D02*
X111865349Y-100753332D01*
X111442016Y-101055713D02*
X112530587Y-101055713D01*
X112530587Y-101055713D02*
X112651540Y-100995236D01*
X112651540Y-100995236D02*
X112712016Y-100874284D01*
X112712016Y-100874284D02*
X112712016Y-100753332D01*
X111865349Y-100511427D02*
X111865349Y-100027618D01*
X111442016Y-100329999D02*
X112530587Y-100329999D01*
X112530587Y-100329999D02*
X112651540Y-100269522D01*
X112651540Y-100269522D02*
X112712016Y-100148570D01*
X112712016Y-100148570D02*
X112712016Y-100027618D01*
X112651540Y-99120475D02*
X112712016Y-99241427D01*
X112712016Y-99241427D02*
X112712016Y-99483332D01*
X112712016Y-99483332D02*
X112651540Y-99604285D01*
X112651540Y-99604285D02*
X112530587Y-99664761D01*
X112530587Y-99664761D02*
X112046778Y-99664761D01*
X112046778Y-99664761D02*
X111925825Y-99604285D01*
X111925825Y-99604285D02*
X111865349Y-99483332D01*
X111865349Y-99483332D02*
X111865349Y-99241427D01*
X111865349Y-99241427D02*
X111925825Y-99120475D01*
X111925825Y-99120475D02*
X112046778Y-99059999D01*
X112046778Y-99059999D02*
X112167730Y-99059999D01*
X112167730Y-99059999D02*
X112288682Y-99664761D01*
X112712016Y-98515714D02*
X111865349Y-98515714D01*
X112107254Y-98515714D02*
X111986301Y-98455237D01*
X111986301Y-98455237D02*
X111925825Y-98394761D01*
X111925825Y-98394761D02*
X111865349Y-98273809D01*
X111865349Y-98273809D02*
X111865349Y-98152856D01*
X111865349Y-97850476D02*
X112712016Y-97548095D01*
X111865349Y-97245714D02*
X112712016Y-97548095D01*
X112712016Y-97548095D02*
X113014397Y-97669047D01*
X113014397Y-97669047D02*
X113074873Y-97729524D01*
X113074873Y-97729524D02*
X113135349Y-97850476D01*
X112712016Y-95794286D02*
X111442016Y-95794286D01*
X111865349Y-95189524D02*
X112712016Y-95189524D01*
X111986301Y-95189524D02*
X111925825Y-95129047D01*
X111925825Y-95129047D02*
X111865349Y-95008095D01*
X111865349Y-95008095D02*
X111865349Y-94826666D01*
X111865349Y-94826666D02*
X111925825Y-94705714D01*
X111925825Y-94705714D02*
X112046778Y-94645238D01*
X112046778Y-94645238D02*
X112712016Y-94645238D01*
X132975048Y-87535778D02*
X133156476Y-87596254D01*
X133156476Y-87596254D02*
X133216953Y-87656730D01*
X133216953Y-87656730D02*
X133277429Y-87777682D01*
X133277429Y-87777682D02*
X133277429Y-87959111D01*
X133277429Y-87959111D02*
X133216953Y-88080063D01*
X133216953Y-88080063D02*
X133156476Y-88140540D01*
X133156476Y-88140540D02*
X133035524Y-88201016D01*
X133035524Y-88201016D02*
X132551714Y-88201016D01*
X132551714Y-88201016D02*
X132551714Y-86931016D01*
X132551714Y-86931016D02*
X132975048Y-86931016D01*
X132975048Y-86931016D02*
X133096000Y-86991492D01*
X133096000Y-86991492D02*
X133156476Y-87051968D01*
X133156476Y-87051968D02*
X133216953Y-87172920D01*
X133216953Y-87172920D02*
X133216953Y-87293873D01*
X133216953Y-87293873D02*
X133156476Y-87414825D01*
X133156476Y-87414825D02*
X133096000Y-87475301D01*
X133096000Y-87475301D02*
X132975048Y-87535778D01*
X132975048Y-87535778D02*
X132551714Y-87535778D01*
X134366000Y-87354349D02*
X134366000Y-88201016D01*
X133821714Y-87354349D02*
X133821714Y-88019587D01*
X133821714Y-88019587D02*
X133882191Y-88140540D01*
X133882191Y-88140540D02*
X134003143Y-88201016D01*
X134003143Y-88201016D02*
X134184572Y-88201016D01*
X134184572Y-88201016D02*
X134305524Y-88140540D01*
X134305524Y-88140540D02*
X134366000Y-88080063D01*
X134789334Y-87354349D02*
X135273143Y-87354349D01*
X134970762Y-88201016D02*
X134970762Y-87112444D01*
X134970762Y-87112444D02*
X135031239Y-86991492D01*
X135031239Y-86991492D02*
X135152191Y-86931016D01*
X135152191Y-86931016D02*
X135273143Y-86931016D01*
X135515048Y-87354349D02*
X135998857Y-87354349D01*
X135696476Y-88201016D02*
X135696476Y-87112444D01*
X135696476Y-87112444D02*
X135756953Y-86991492D01*
X135756953Y-86991492D02*
X135877905Y-86931016D01*
X135877905Y-86931016D02*
X135998857Y-86931016D01*
X136906000Y-88140540D02*
X136785048Y-88201016D01*
X136785048Y-88201016D02*
X136543143Y-88201016D01*
X136543143Y-88201016D02*
X136422190Y-88140540D01*
X136422190Y-88140540D02*
X136361714Y-88019587D01*
X136361714Y-88019587D02*
X136361714Y-87535778D01*
X136361714Y-87535778D02*
X136422190Y-87414825D01*
X136422190Y-87414825D02*
X136543143Y-87354349D01*
X136543143Y-87354349D02*
X136785048Y-87354349D01*
X136785048Y-87354349D02*
X136906000Y-87414825D01*
X136906000Y-87414825D02*
X136966476Y-87535778D01*
X136966476Y-87535778D02*
X136966476Y-87656730D01*
X136966476Y-87656730D02*
X136361714Y-87777682D01*
X137510761Y-88201016D02*
X137510761Y-87354349D01*
X137510761Y-87596254D02*
X137571238Y-87475301D01*
X137571238Y-87475301D02*
X137631714Y-87414825D01*
X137631714Y-87414825D02*
X137752666Y-87354349D01*
X137752666Y-87354349D02*
X137873619Y-87354349D01*
X138236475Y-88140540D02*
X138357428Y-88201016D01*
X138357428Y-88201016D02*
X138599332Y-88201016D01*
X138599332Y-88201016D02*
X138720285Y-88140540D01*
X138720285Y-88140540D02*
X138780761Y-88019587D01*
X138780761Y-88019587D02*
X138780761Y-87959111D01*
X138780761Y-87959111D02*
X138720285Y-87838159D01*
X138720285Y-87838159D02*
X138599332Y-87777682D01*
X138599332Y-87777682D02*
X138417904Y-87777682D01*
X138417904Y-87777682D02*
X138296951Y-87717206D01*
X138296951Y-87717206D02*
X138236475Y-87596254D01*
X138236475Y-87596254D02*
X138236475Y-87535778D01*
X138236475Y-87535778D02*
X138296951Y-87414825D01*
X138296951Y-87414825D02*
X138417904Y-87354349D01*
X138417904Y-87354349D02*
X138599332Y-87354349D01*
X138599332Y-87354349D02*
X138720285Y-87414825D01*
D12*
X162197712Y-109325833D02*
X162197712Y-109156499D01*
X162197712Y-109156499D02*
X162240045Y-109071833D01*
X162240045Y-109071833D02*
X162324712Y-108987166D01*
X162324712Y-108987166D02*
X162494045Y-108944833D01*
X162494045Y-108944833D02*
X162790379Y-108944833D01*
X162790379Y-108944833D02*
X162959712Y-108987166D01*
X162959712Y-108987166D02*
X163044379Y-109071833D01*
X163044379Y-109071833D02*
X163086712Y-109156499D01*
X163086712Y-109156499D02*
X163086712Y-109325833D01*
X163086712Y-109325833D02*
X163044379Y-109410499D01*
X163044379Y-109410499D02*
X162959712Y-109495166D01*
X162959712Y-109495166D02*
X162790379Y-109537499D01*
X162790379Y-109537499D02*
X162494045Y-109537499D01*
X162494045Y-109537499D02*
X162324712Y-109495166D01*
X162324712Y-109495166D02*
X162240045Y-109410499D01*
X162240045Y-109410499D02*
X162197712Y-109325833D01*
X162494045Y-108182833D02*
X163086712Y-108182833D01*
X162494045Y-108563833D02*
X162959712Y-108563833D01*
X162959712Y-108563833D02*
X163044379Y-108521500D01*
X163044379Y-108521500D02*
X163086712Y-108436833D01*
X163086712Y-108436833D02*
X163086712Y-108309833D01*
X163086712Y-108309833D02*
X163044379Y-108225166D01*
X163044379Y-108225166D02*
X163002045Y-108182833D01*
X162494045Y-107886500D02*
X162494045Y-107547833D01*
X162197712Y-107759500D02*
X162959712Y-107759500D01*
X162959712Y-107759500D02*
X163044379Y-107717167D01*
X163044379Y-107717167D02*
X163086712Y-107632500D01*
X163086712Y-107632500D02*
X163086712Y-107547833D01*
X162282379Y-106616500D02*
X162240045Y-106574167D01*
X162240045Y-106574167D02*
X162197712Y-106489500D01*
X162197712Y-106489500D02*
X162197712Y-106277834D01*
X162197712Y-106277834D02*
X162240045Y-106193167D01*
X162240045Y-106193167D02*
X162282379Y-106150834D01*
X162282379Y-106150834D02*
X162367045Y-106108500D01*
X162367045Y-106108500D02*
X162451712Y-106108500D01*
X162451712Y-106108500D02*
X162578712Y-106150834D01*
X162578712Y-106150834D02*
X163086712Y-106658834D01*
X163086712Y-106658834D02*
X163086712Y-106108500D01*
D13*
X113277952Y-86931016D02*
X113580333Y-88201016D01*
X113580333Y-88201016D02*
X113822238Y-87293873D01*
X113822238Y-87293873D02*
X114064143Y-88201016D01*
X114064143Y-88201016D02*
X114366524Y-86931016D01*
X115394619Y-88201016D02*
X115394619Y-87535778D01*
X115394619Y-87535778D02*
X115334143Y-87414825D01*
X115334143Y-87414825D02*
X115213191Y-87354349D01*
X115213191Y-87354349D02*
X114971286Y-87354349D01*
X114971286Y-87354349D02*
X114850333Y-87414825D01*
X115394619Y-88140540D02*
X115273667Y-88201016D01*
X115273667Y-88201016D02*
X114971286Y-88201016D01*
X114971286Y-88201016D02*
X114850333Y-88140540D01*
X114850333Y-88140540D02*
X114789857Y-88019587D01*
X114789857Y-88019587D02*
X114789857Y-87898635D01*
X114789857Y-87898635D02*
X114850333Y-87777682D01*
X114850333Y-87777682D02*
X114971286Y-87717206D01*
X114971286Y-87717206D02*
X115273667Y-87717206D01*
X115273667Y-87717206D02*
X115394619Y-87656730D01*
X115878429Y-87354349D02*
X116180810Y-88201016D01*
X116180810Y-88201016D02*
X116483191Y-87354349D01*
X117450810Y-88140540D02*
X117329858Y-88201016D01*
X117329858Y-88201016D02*
X117087953Y-88201016D01*
X117087953Y-88201016D02*
X116967000Y-88140540D01*
X116967000Y-88140540D02*
X116906524Y-88019587D01*
X116906524Y-88019587D02*
X116906524Y-87535778D01*
X116906524Y-87535778D02*
X116967000Y-87414825D01*
X116967000Y-87414825D02*
X117087953Y-87354349D01*
X117087953Y-87354349D02*
X117329858Y-87354349D01*
X117329858Y-87354349D02*
X117450810Y-87414825D01*
X117450810Y-87414825D02*
X117511286Y-87535778D01*
X117511286Y-87535778D02*
X117511286Y-87656730D01*
X117511286Y-87656730D02*
X116906524Y-87777682D01*
X117874143Y-87354349D02*
X118357952Y-87354349D01*
X118055571Y-88201016D02*
X118055571Y-87112444D01*
X118055571Y-87112444D02*
X118116048Y-86991492D01*
X118116048Y-86991492D02*
X118237000Y-86931016D01*
X118237000Y-86931016D02*
X118357952Y-86931016D01*
X118962714Y-88201016D02*
X118841762Y-88140540D01*
X118841762Y-88140540D02*
X118781285Y-88080063D01*
X118781285Y-88080063D02*
X118720809Y-87959111D01*
X118720809Y-87959111D02*
X118720809Y-87596254D01*
X118720809Y-87596254D02*
X118781285Y-87475301D01*
X118781285Y-87475301D02*
X118841762Y-87414825D01*
X118841762Y-87414825D02*
X118962714Y-87354349D01*
X118962714Y-87354349D02*
X119144143Y-87354349D01*
X119144143Y-87354349D02*
X119265095Y-87414825D01*
X119265095Y-87414825D02*
X119325571Y-87475301D01*
X119325571Y-87475301D02*
X119386047Y-87596254D01*
X119386047Y-87596254D02*
X119386047Y-87959111D01*
X119386047Y-87959111D02*
X119325571Y-88080063D01*
X119325571Y-88080063D02*
X119265095Y-88140540D01*
X119265095Y-88140540D02*
X119144143Y-88201016D01*
X119144143Y-88201016D02*
X118962714Y-88201016D01*
X119930333Y-88201016D02*
X119930333Y-87354349D01*
X119930333Y-87596254D02*
X119990810Y-87475301D01*
X119990810Y-87475301D02*
X120051286Y-87414825D01*
X120051286Y-87414825D02*
X120172238Y-87354349D01*
X120172238Y-87354349D02*
X120293191Y-87354349D01*
X120716523Y-88201016D02*
X120716523Y-87354349D01*
X120716523Y-87475301D02*
X120777000Y-87414825D01*
X120777000Y-87414825D02*
X120897952Y-87354349D01*
X120897952Y-87354349D02*
X121079381Y-87354349D01*
X121079381Y-87354349D02*
X121200333Y-87414825D01*
X121200333Y-87414825D02*
X121260809Y-87535778D01*
X121260809Y-87535778D02*
X121260809Y-88201016D01*
X121260809Y-87535778D02*
X121321285Y-87414825D01*
X121321285Y-87414825D02*
X121442238Y-87354349D01*
X121442238Y-87354349D02*
X121623666Y-87354349D01*
X121623666Y-87354349D02*
X121744619Y-87414825D01*
X121744619Y-87414825D02*
X121805095Y-87535778D01*
X121805095Y-87535778D02*
X121805095Y-88201016D01*
X124042714Y-86991492D02*
X123921761Y-86931016D01*
X123921761Y-86931016D02*
X123740333Y-86931016D01*
X123740333Y-86931016D02*
X123558904Y-86991492D01*
X123558904Y-86991492D02*
X123437952Y-87112444D01*
X123437952Y-87112444D02*
X123377475Y-87233397D01*
X123377475Y-87233397D02*
X123316999Y-87475301D01*
X123316999Y-87475301D02*
X123316999Y-87656730D01*
X123316999Y-87656730D02*
X123377475Y-87898635D01*
X123377475Y-87898635D02*
X123437952Y-88019587D01*
X123437952Y-88019587D02*
X123558904Y-88140540D01*
X123558904Y-88140540D02*
X123740333Y-88201016D01*
X123740333Y-88201016D02*
X123861285Y-88201016D01*
X123861285Y-88201016D02*
X124042714Y-88140540D01*
X124042714Y-88140540D02*
X124103190Y-88080063D01*
X124103190Y-88080063D02*
X124103190Y-87656730D01*
X124103190Y-87656730D02*
X123861285Y-87656730D01*
X125131285Y-88140540D02*
X125010333Y-88201016D01*
X125010333Y-88201016D02*
X124768428Y-88201016D01*
X124768428Y-88201016D02*
X124647475Y-88140540D01*
X124647475Y-88140540D02*
X124586999Y-88019587D01*
X124586999Y-88019587D02*
X124586999Y-87535778D01*
X124586999Y-87535778D02*
X124647475Y-87414825D01*
X124647475Y-87414825D02*
X124768428Y-87354349D01*
X124768428Y-87354349D02*
X125010333Y-87354349D01*
X125010333Y-87354349D02*
X125131285Y-87414825D01*
X125131285Y-87414825D02*
X125191761Y-87535778D01*
X125191761Y-87535778D02*
X125191761Y-87656730D01*
X125191761Y-87656730D02*
X124586999Y-87777682D01*
X125736046Y-87354349D02*
X125736046Y-88201016D01*
X125736046Y-87475301D02*
X125796523Y-87414825D01*
X125796523Y-87414825D02*
X125917475Y-87354349D01*
X125917475Y-87354349D02*
X126098904Y-87354349D01*
X126098904Y-87354349D02*
X126219856Y-87414825D01*
X126219856Y-87414825D02*
X126280332Y-87535778D01*
X126280332Y-87535778D02*
X126280332Y-88201016D01*
X126885094Y-88080063D02*
X126945571Y-88140540D01*
X126945571Y-88140540D02*
X126885094Y-88201016D01*
X126885094Y-88201016D02*
X126824618Y-88140540D01*
X126824618Y-88140540D02*
X126885094Y-88080063D01*
X126885094Y-88080063D02*
X126885094Y-88201016D01*
D12*
X162197712Y-91926833D02*
X162197712Y-91757499D01*
X162197712Y-91757499D02*
X162240045Y-91672833D01*
X162240045Y-91672833D02*
X162324712Y-91588166D01*
X162324712Y-91588166D02*
X162494045Y-91545833D01*
X162494045Y-91545833D02*
X162790379Y-91545833D01*
X162790379Y-91545833D02*
X162959712Y-91588166D01*
X162959712Y-91588166D02*
X163044379Y-91672833D01*
X163044379Y-91672833D02*
X163086712Y-91757499D01*
X163086712Y-91757499D02*
X163086712Y-91926833D01*
X163086712Y-91926833D02*
X163044379Y-92011499D01*
X163044379Y-92011499D02*
X162959712Y-92096166D01*
X162959712Y-92096166D02*
X162790379Y-92138499D01*
X162790379Y-92138499D02*
X162494045Y-92138499D01*
X162494045Y-92138499D02*
X162324712Y-92096166D01*
X162324712Y-92096166D02*
X162240045Y-92011499D01*
X162240045Y-92011499D02*
X162197712Y-91926833D01*
X162494045Y-90783833D02*
X163086712Y-90783833D01*
X162494045Y-91164833D02*
X162959712Y-91164833D01*
X162959712Y-91164833D02*
X163044379Y-91122500D01*
X163044379Y-91122500D02*
X163086712Y-91037833D01*
X163086712Y-91037833D02*
X163086712Y-90910833D01*
X163086712Y-90910833D02*
X163044379Y-90826166D01*
X163044379Y-90826166D02*
X163002045Y-90783833D01*
X162494045Y-90487500D02*
X162494045Y-90148833D01*
X162197712Y-90360500D02*
X162959712Y-90360500D01*
X162959712Y-90360500D02*
X163044379Y-90318167D01*
X163044379Y-90318167D02*
X163086712Y-90233500D01*
X163086712Y-90233500D02*
X163086712Y-90148833D01*
X163086712Y-88709500D02*
X163086712Y-89217500D01*
X163086712Y-88963500D02*
X162197712Y-88963500D01*
X162197712Y-88963500D02*
X162324712Y-89048167D01*
X162324712Y-89048167D02*
X162409379Y-89132834D01*
X162409379Y-89132834D02*
X162451712Y-89217500D01*
D13*
X146654762Y-88080063D02*
X146594286Y-88140540D01*
X146594286Y-88140540D02*
X146412857Y-88201016D01*
X146412857Y-88201016D02*
X146291905Y-88201016D01*
X146291905Y-88201016D02*
X146110476Y-88140540D01*
X146110476Y-88140540D02*
X145989524Y-88019587D01*
X145989524Y-88019587D02*
X145929047Y-87898635D01*
X145929047Y-87898635D02*
X145868571Y-87656730D01*
X145868571Y-87656730D02*
X145868571Y-87475301D01*
X145868571Y-87475301D02*
X145929047Y-87233397D01*
X145929047Y-87233397D02*
X145989524Y-87112444D01*
X145989524Y-87112444D02*
X146110476Y-86991492D01*
X146110476Y-86991492D02*
X146291905Y-86931016D01*
X146291905Y-86931016D02*
X146412857Y-86931016D01*
X146412857Y-86931016D02*
X146594286Y-86991492D01*
X146594286Y-86991492D02*
X146654762Y-87051968D01*
X147380476Y-88201016D02*
X147259524Y-88140540D01*
X147259524Y-88140540D02*
X147199047Y-88080063D01*
X147199047Y-88080063D02*
X147138571Y-87959111D01*
X147138571Y-87959111D02*
X147138571Y-87596254D01*
X147138571Y-87596254D02*
X147199047Y-87475301D01*
X147199047Y-87475301D02*
X147259524Y-87414825D01*
X147259524Y-87414825D02*
X147380476Y-87354349D01*
X147380476Y-87354349D02*
X147561905Y-87354349D01*
X147561905Y-87354349D02*
X147682857Y-87414825D01*
X147682857Y-87414825D02*
X147743333Y-87475301D01*
X147743333Y-87475301D02*
X147803809Y-87596254D01*
X147803809Y-87596254D02*
X147803809Y-87959111D01*
X147803809Y-87959111D02*
X147743333Y-88080063D01*
X147743333Y-88080063D02*
X147682857Y-88140540D01*
X147682857Y-88140540D02*
X147561905Y-88201016D01*
X147561905Y-88201016D02*
X147380476Y-88201016D01*
X148348095Y-88201016D02*
X148348095Y-87354349D01*
X148348095Y-87475301D02*
X148408572Y-87414825D01*
X148408572Y-87414825D02*
X148529524Y-87354349D01*
X148529524Y-87354349D02*
X148710953Y-87354349D01*
X148710953Y-87354349D02*
X148831905Y-87414825D01*
X148831905Y-87414825D02*
X148892381Y-87535778D01*
X148892381Y-87535778D02*
X148892381Y-88201016D01*
X148892381Y-87535778D02*
X148952857Y-87414825D01*
X148952857Y-87414825D02*
X149073810Y-87354349D01*
X149073810Y-87354349D02*
X149255238Y-87354349D01*
X149255238Y-87354349D02*
X149376191Y-87414825D01*
X149376191Y-87414825D02*
X149436667Y-87535778D01*
X149436667Y-87535778D02*
X149436667Y-88201016D01*
X150041428Y-87354349D02*
X150041428Y-88624349D01*
X150041428Y-87414825D02*
X150162381Y-87354349D01*
X150162381Y-87354349D02*
X150404286Y-87354349D01*
X150404286Y-87354349D02*
X150525238Y-87414825D01*
X150525238Y-87414825D02*
X150585714Y-87475301D01*
X150585714Y-87475301D02*
X150646190Y-87596254D01*
X150646190Y-87596254D02*
X150646190Y-87959111D01*
X150646190Y-87959111D02*
X150585714Y-88080063D01*
X150585714Y-88080063D02*
X150525238Y-88140540D01*
X150525238Y-88140540D02*
X150404286Y-88201016D01*
X150404286Y-88201016D02*
X150162381Y-88201016D01*
X150162381Y-88201016D02*
X150041428Y-88140540D01*
X151734762Y-88201016D02*
X151734762Y-87535778D01*
X151734762Y-87535778D02*
X151674286Y-87414825D01*
X151674286Y-87414825D02*
X151553334Y-87354349D01*
X151553334Y-87354349D02*
X151311429Y-87354349D01*
X151311429Y-87354349D02*
X151190476Y-87414825D01*
X151734762Y-88140540D02*
X151613810Y-88201016D01*
X151613810Y-88201016D02*
X151311429Y-88201016D01*
X151311429Y-88201016D02*
X151190476Y-88140540D01*
X151190476Y-88140540D02*
X151130000Y-88019587D01*
X151130000Y-88019587D02*
X151130000Y-87898635D01*
X151130000Y-87898635D02*
X151190476Y-87777682D01*
X151190476Y-87777682D02*
X151311429Y-87717206D01*
X151311429Y-87717206D02*
X151613810Y-87717206D01*
X151613810Y-87717206D02*
X151734762Y-87656730D01*
X152339524Y-88201016D02*
X152339524Y-87354349D01*
X152339524Y-87596254D02*
X152400001Y-87475301D01*
X152400001Y-87475301D02*
X152460477Y-87414825D01*
X152460477Y-87414825D02*
X152581429Y-87354349D01*
X152581429Y-87354349D02*
X152702382Y-87354349D01*
X153670000Y-88201016D02*
X153670000Y-87535778D01*
X153670000Y-87535778D02*
X153609524Y-87414825D01*
X153609524Y-87414825D02*
X153488572Y-87354349D01*
X153488572Y-87354349D02*
X153246667Y-87354349D01*
X153246667Y-87354349D02*
X153125714Y-87414825D01*
X153670000Y-88140540D02*
X153549048Y-88201016D01*
X153549048Y-88201016D02*
X153246667Y-88201016D01*
X153246667Y-88201016D02*
X153125714Y-88140540D01*
X153125714Y-88140540D02*
X153065238Y-88019587D01*
X153065238Y-88019587D02*
X153065238Y-87898635D01*
X153065238Y-87898635D02*
X153125714Y-87777682D01*
X153125714Y-87777682D02*
X153246667Y-87717206D01*
X153246667Y-87717206D02*
X153549048Y-87717206D01*
X153549048Y-87717206D02*
X153670000Y-87656730D01*
X154093334Y-87354349D02*
X154577143Y-87354349D01*
X154274762Y-86931016D02*
X154274762Y-88019587D01*
X154274762Y-88019587D02*
X154335239Y-88140540D01*
X154335239Y-88140540D02*
X154456191Y-88201016D01*
X154456191Y-88201016D02*
X154577143Y-88201016D01*
X155181905Y-88201016D02*
X155060953Y-88140540D01*
X155060953Y-88140540D02*
X155000476Y-88080063D01*
X155000476Y-88080063D02*
X154940000Y-87959111D01*
X154940000Y-87959111D02*
X154940000Y-87596254D01*
X154940000Y-87596254D02*
X155000476Y-87475301D01*
X155000476Y-87475301D02*
X155060953Y-87414825D01*
X155060953Y-87414825D02*
X155181905Y-87354349D01*
X155181905Y-87354349D02*
X155363334Y-87354349D01*
X155363334Y-87354349D02*
X155484286Y-87414825D01*
X155484286Y-87414825D02*
X155544762Y-87475301D01*
X155544762Y-87475301D02*
X155605238Y-87596254D01*
X155605238Y-87596254D02*
X155605238Y-87959111D01*
X155605238Y-87959111D02*
X155544762Y-88080063D01*
X155544762Y-88080063D02*
X155484286Y-88140540D01*
X155484286Y-88140540D02*
X155363334Y-88201016D01*
X155363334Y-88201016D02*
X155181905Y-88201016D01*
X156149524Y-88201016D02*
X156149524Y-87354349D01*
X156149524Y-87596254D02*
X156210001Y-87475301D01*
X156210001Y-87475301D02*
X156270477Y-87414825D01*
X156270477Y-87414825D02*
X156391429Y-87354349D01*
X156391429Y-87354349D02*
X156512382Y-87354349D01*
X140125111Y-113536709D02*
X140306539Y-113597185D01*
X140306539Y-113597185D02*
X140367016Y-113657661D01*
X140367016Y-113657661D02*
X140427492Y-113778613D01*
X140427492Y-113778613D02*
X140427492Y-113960042D01*
X140427492Y-113960042D02*
X140367016Y-114080994D01*
X140367016Y-114080994D02*
X140306539Y-114141471D01*
X140306539Y-114141471D02*
X140185587Y-114201947D01*
X140185587Y-114201947D02*
X139701777Y-114201947D01*
X139701777Y-114201947D02*
X139701777Y-112931947D01*
X139701777Y-112931947D02*
X140125111Y-112931947D01*
X140125111Y-112931947D02*
X140246063Y-112992423D01*
X140246063Y-112992423D02*
X140306539Y-113052899D01*
X140306539Y-113052899D02*
X140367016Y-113173851D01*
X140367016Y-113173851D02*
X140367016Y-113294804D01*
X140367016Y-113294804D02*
X140306539Y-113415756D01*
X140306539Y-113415756D02*
X140246063Y-113476232D01*
X140246063Y-113476232D02*
X140125111Y-113536709D01*
X140125111Y-113536709D02*
X139701777Y-113536709D01*
X141516063Y-113355280D02*
X141516063Y-114201947D01*
X140971777Y-113355280D02*
X140971777Y-114020518D01*
X140971777Y-114020518D02*
X141032254Y-114141471D01*
X141032254Y-114141471D02*
X141153206Y-114201947D01*
X141153206Y-114201947D02*
X141334635Y-114201947D01*
X141334635Y-114201947D02*
X141455587Y-114141471D01*
X141455587Y-114141471D02*
X141516063Y-114080994D01*
X142120825Y-114201947D02*
X142120825Y-113355280D01*
X142120825Y-112931947D02*
X142060349Y-112992423D01*
X142060349Y-112992423D02*
X142120825Y-113052899D01*
X142120825Y-113052899D02*
X142181302Y-112992423D01*
X142181302Y-112992423D02*
X142120825Y-112931947D01*
X142120825Y-112931947D02*
X142120825Y-113052899D01*
X142907016Y-114201947D02*
X142786064Y-114141471D01*
X142786064Y-114141471D02*
X142725587Y-114020518D01*
X142725587Y-114020518D02*
X142725587Y-112931947D01*
X143209397Y-113355280D02*
X143693206Y-113355280D01*
X143390825Y-112931947D02*
X143390825Y-114020518D01*
X143390825Y-114020518D02*
X143451302Y-114141471D01*
X143451302Y-114141471D02*
X143572254Y-114201947D01*
X143572254Y-114201947D02*
X143693206Y-114201947D01*
X145507492Y-113536709D02*
X145688920Y-113597185D01*
X145688920Y-113597185D02*
X145749397Y-113657661D01*
X145749397Y-113657661D02*
X145809873Y-113778613D01*
X145809873Y-113778613D02*
X145809873Y-113960042D01*
X145809873Y-113960042D02*
X145749397Y-114080994D01*
X145749397Y-114080994D02*
X145688920Y-114141471D01*
X145688920Y-114141471D02*
X145567968Y-114201947D01*
X145567968Y-114201947D02*
X145084158Y-114201947D01*
X145084158Y-114201947D02*
X145084158Y-112931947D01*
X145084158Y-112931947D02*
X145507492Y-112931947D01*
X145507492Y-112931947D02*
X145628444Y-112992423D01*
X145628444Y-112992423D02*
X145688920Y-113052899D01*
X145688920Y-113052899D02*
X145749397Y-113173851D01*
X145749397Y-113173851D02*
X145749397Y-113294804D01*
X145749397Y-113294804D02*
X145688920Y-113415756D01*
X145688920Y-113415756D02*
X145628444Y-113476232D01*
X145628444Y-113476232D02*
X145507492Y-113536709D01*
X145507492Y-113536709D02*
X145084158Y-113536709D01*
X146233206Y-113355280D02*
X146535587Y-114201947D01*
X146837968Y-113355280D02*
X146535587Y-114201947D01*
X146535587Y-114201947D02*
X146414635Y-114504328D01*
X146414635Y-114504328D02*
X146354158Y-114564804D01*
X146354158Y-114564804D02*
X146233206Y-114625280D01*
X147321777Y-114080994D02*
X147382254Y-114141471D01*
X147382254Y-114141471D02*
X147321777Y-114201947D01*
X147321777Y-114201947D02*
X147261301Y-114141471D01*
X147261301Y-114141471D02*
X147321777Y-114080994D01*
X147321777Y-114080994D02*
X147321777Y-114201947D01*
X147321777Y-113415756D02*
X147382254Y-113476232D01*
X147382254Y-113476232D02*
X147321777Y-113536709D01*
X147321777Y-113536709D02*
X147261301Y-113476232D01*
X147261301Y-113476232D02*
X147321777Y-113415756D01*
X147321777Y-113415756D02*
X147321777Y-113536709D01*
D12*
X143740379Y-106552999D02*
X143782712Y-106425999D01*
X143782712Y-106425999D02*
X143782712Y-106214333D01*
X143782712Y-106214333D02*
X143740379Y-106129666D01*
X143740379Y-106129666D02*
X143698045Y-106087333D01*
X143698045Y-106087333D02*
X143613379Y-106044999D01*
X143613379Y-106044999D02*
X143528712Y-106044999D01*
X143528712Y-106044999D02*
X143444045Y-106087333D01*
X143444045Y-106087333D02*
X143401712Y-106129666D01*
X143401712Y-106129666D02*
X143359379Y-106214333D01*
X143359379Y-106214333D02*
X143317045Y-106383666D01*
X143317045Y-106383666D02*
X143274712Y-106468333D01*
X143274712Y-106468333D02*
X143232379Y-106510666D01*
X143232379Y-106510666D02*
X143147712Y-106552999D01*
X143147712Y-106552999D02*
X143063045Y-106552999D01*
X143063045Y-106552999D02*
X142978379Y-106510666D01*
X142978379Y-106510666D02*
X142936045Y-106468333D01*
X142936045Y-106468333D02*
X142893712Y-106383666D01*
X142893712Y-106383666D02*
X142893712Y-106171999D01*
X142893712Y-106171999D02*
X142936045Y-106044999D01*
X143782712Y-105663999D02*
X143190045Y-105663999D01*
X142893712Y-105663999D02*
X142936045Y-105706332D01*
X142936045Y-105706332D02*
X142978379Y-105663999D01*
X142978379Y-105663999D02*
X142936045Y-105621666D01*
X142936045Y-105621666D02*
X142893712Y-105663999D01*
X142893712Y-105663999D02*
X142978379Y-105663999D01*
X143190045Y-104859666D02*
X143909712Y-104859666D01*
X143909712Y-104859666D02*
X143994379Y-104901999D01*
X143994379Y-104901999D02*
X144036712Y-104944333D01*
X144036712Y-104944333D02*
X144079045Y-105028999D01*
X144079045Y-105028999D02*
X144079045Y-105155999D01*
X144079045Y-105155999D02*
X144036712Y-105240666D01*
X143740379Y-104859666D02*
X143782712Y-104944333D01*
X143782712Y-104944333D02*
X143782712Y-105113666D01*
X143782712Y-105113666D02*
X143740379Y-105198333D01*
X143740379Y-105198333D02*
X143698045Y-105240666D01*
X143698045Y-105240666D02*
X143613379Y-105282999D01*
X143613379Y-105282999D02*
X143359379Y-105282999D01*
X143359379Y-105282999D02*
X143274712Y-105240666D01*
X143274712Y-105240666D02*
X143232379Y-105198333D01*
X143232379Y-105198333D02*
X143190045Y-105113666D01*
X143190045Y-105113666D02*
X143190045Y-104944333D01*
X143190045Y-104944333D02*
X143232379Y-104859666D01*
X143190045Y-104436333D02*
X143782712Y-104436333D01*
X143274712Y-104436333D02*
X143232379Y-104394000D01*
X143232379Y-104394000D02*
X143190045Y-104309333D01*
X143190045Y-104309333D02*
X143190045Y-104182333D01*
X143190045Y-104182333D02*
X143232379Y-104097666D01*
X143232379Y-104097666D02*
X143317045Y-104055333D01*
X143317045Y-104055333D02*
X143782712Y-104055333D01*
X143782712Y-103251000D02*
X143317045Y-103251000D01*
X143317045Y-103251000D02*
X143232379Y-103293333D01*
X143232379Y-103293333D02*
X143190045Y-103378000D01*
X143190045Y-103378000D02*
X143190045Y-103547333D01*
X143190045Y-103547333D02*
X143232379Y-103632000D01*
X143740379Y-103251000D02*
X143782712Y-103335667D01*
X143782712Y-103335667D02*
X143782712Y-103547333D01*
X143782712Y-103547333D02*
X143740379Y-103632000D01*
X143740379Y-103632000D02*
X143655712Y-103674333D01*
X143655712Y-103674333D02*
X143571045Y-103674333D01*
X143571045Y-103674333D02*
X143486379Y-103632000D01*
X143486379Y-103632000D02*
X143444045Y-103547333D01*
X143444045Y-103547333D02*
X143444045Y-103335667D01*
X143444045Y-103335667D02*
X143401712Y-103251000D01*
X143782712Y-102700667D02*
X143740379Y-102785334D01*
X143740379Y-102785334D02*
X143655712Y-102827667D01*
X143655712Y-102827667D02*
X142893712Y-102827667D01*
D13*
X102471493Y-97250763D02*
X103439113Y-97250763D01*
X102955303Y-97734573D02*
X102955303Y-96766954D01*
X104043874Y-97734573D02*
X104043874Y-96464573D01*
X104648636Y-96887906D02*
X104648636Y-97734573D01*
X104648636Y-97008858D02*
X104709113Y-96948382D01*
X104709113Y-96948382D02*
X104830065Y-96887906D01*
X104830065Y-96887906D02*
X105011494Y-96887906D01*
X105011494Y-96887906D02*
X105132446Y-96948382D01*
X105132446Y-96948382D02*
X105192922Y-97069335D01*
X105192922Y-97069335D02*
X105192922Y-97734573D01*
X108558023Y-113080387D02*
X107953261Y-113080387D01*
X107953261Y-113080387D02*
X107953261Y-111810387D01*
X109465166Y-113019911D02*
X109344214Y-113080387D01*
X109344214Y-113080387D02*
X109102309Y-113080387D01*
X109102309Y-113080387D02*
X108981356Y-113019911D01*
X108981356Y-113019911D02*
X108920880Y-112898958D01*
X108920880Y-112898958D02*
X108920880Y-112415149D01*
X108920880Y-112415149D02*
X108981356Y-112294196D01*
X108981356Y-112294196D02*
X109102309Y-112233720D01*
X109102309Y-112233720D02*
X109344214Y-112233720D01*
X109344214Y-112233720D02*
X109465166Y-112294196D01*
X109465166Y-112294196D02*
X109525642Y-112415149D01*
X109525642Y-112415149D02*
X109525642Y-112536101D01*
X109525642Y-112536101D02*
X108920880Y-112657053D01*
X110553737Y-113019911D02*
X110432785Y-113080387D01*
X110432785Y-113080387D02*
X110190880Y-113080387D01*
X110190880Y-113080387D02*
X110069927Y-113019911D01*
X110069927Y-113019911D02*
X110009451Y-112898958D01*
X110009451Y-112898958D02*
X110009451Y-112415149D01*
X110009451Y-112415149D02*
X110069927Y-112294196D01*
X110069927Y-112294196D02*
X110190880Y-112233720D01*
X110190880Y-112233720D02*
X110432785Y-112233720D01*
X110432785Y-112233720D02*
X110553737Y-112294196D01*
X110553737Y-112294196D02*
X110614213Y-112415149D01*
X110614213Y-112415149D02*
X110614213Y-112536101D01*
X110614213Y-112536101D02*
X110009451Y-112657053D01*
X111158498Y-113080387D02*
X111158498Y-112233720D01*
X111158498Y-112354672D02*
X111218975Y-112294196D01*
X111218975Y-112294196D02*
X111339927Y-112233720D01*
X111339927Y-112233720D02*
X111521356Y-112233720D01*
X111521356Y-112233720D02*
X111642308Y-112294196D01*
X111642308Y-112294196D02*
X111702784Y-112415149D01*
X111702784Y-112415149D02*
X111702784Y-113080387D01*
X111702784Y-112415149D02*
X111763260Y-112294196D01*
X111763260Y-112294196D02*
X111884213Y-112233720D01*
X111884213Y-112233720D02*
X112065641Y-112233720D01*
X112065641Y-112233720D02*
X112186594Y-112294196D01*
X112186594Y-112294196D02*
X112247070Y-112415149D01*
X112247070Y-112415149D02*
X112247070Y-113080387D01*
X113396117Y-113080387D02*
X113396117Y-112415149D01*
X113396117Y-112415149D02*
X113335641Y-112294196D01*
X113335641Y-112294196D02*
X113214689Y-112233720D01*
X113214689Y-112233720D02*
X112972784Y-112233720D01*
X112972784Y-112233720D02*
X112851831Y-112294196D01*
X113396117Y-113019911D02*
X113275165Y-113080387D01*
X113275165Y-113080387D02*
X112972784Y-113080387D01*
X112972784Y-113080387D02*
X112851831Y-113019911D01*
X112851831Y-113019911D02*
X112791355Y-112898958D01*
X112791355Y-112898958D02*
X112791355Y-112778006D01*
X112791355Y-112778006D02*
X112851831Y-112657053D01*
X112851831Y-112657053D02*
X112972784Y-112596577D01*
X112972784Y-112596577D02*
X113275165Y-112596577D01*
X113275165Y-112596577D02*
X113396117Y-112536101D01*
X114000879Y-112233720D02*
X114000879Y-113080387D01*
X114000879Y-112354672D02*
X114061356Y-112294196D01*
X114061356Y-112294196D02*
X114182308Y-112233720D01*
X114182308Y-112233720D02*
X114363737Y-112233720D01*
X114363737Y-112233720D02*
X114484689Y-112294196D01*
X114484689Y-112294196D02*
X114545165Y-112415149D01*
X114545165Y-112415149D02*
X114545165Y-113080387D01*
X116782785Y-111870863D02*
X116661832Y-111810387D01*
X116661832Y-111810387D02*
X116480404Y-111810387D01*
X116480404Y-111810387D02*
X116298975Y-111870863D01*
X116298975Y-111870863D02*
X116178023Y-111991815D01*
X116178023Y-111991815D02*
X116117546Y-112112768D01*
X116117546Y-112112768D02*
X116057070Y-112354672D01*
X116057070Y-112354672D02*
X116057070Y-112536101D01*
X116057070Y-112536101D02*
X116117546Y-112778006D01*
X116117546Y-112778006D02*
X116178023Y-112898958D01*
X116178023Y-112898958D02*
X116298975Y-113019911D01*
X116298975Y-113019911D02*
X116480404Y-113080387D01*
X116480404Y-113080387D02*
X116601356Y-113080387D01*
X116601356Y-113080387D02*
X116782785Y-113019911D01*
X116782785Y-113019911D02*
X116843261Y-112959434D01*
X116843261Y-112959434D02*
X116843261Y-112536101D01*
X116843261Y-112536101D02*
X116601356Y-112536101D01*
X117871356Y-113019911D02*
X117750404Y-113080387D01*
X117750404Y-113080387D02*
X117508499Y-113080387D01*
X117508499Y-113080387D02*
X117387546Y-113019911D01*
X117387546Y-113019911D02*
X117327070Y-112898958D01*
X117327070Y-112898958D02*
X117327070Y-112415149D01*
X117327070Y-112415149D02*
X117387546Y-112294196D01*
X117387546Y-112294196D02*
X117508499Y-112233720D01*
X117508499Y-112233720D02*
X117750404Y-112233720D01*
X117750404Y-112233720D02*
X117871356Y-112294196D01*
X117871356Y-112294196D02*
X117931832Y-112415149D01*
X117931832Y-112415149D02*
X117931832Y-112536101D01*
X117931832Y-112536101D02*
X117327070Y-112657053D01*
X118657546Y-113080387D02*
X118536594Y-113019911D01*
X118536594Y-113019911D02*
X118476117Y-112959434D01*
X118476117Y-112959434D02*
X118415641Y-112838482D01*
X118415641Y-112838482D02*
X118415641Y-112475625D01*
X118415641Y-112475625D02*
X118476117Y-112354672D01*
X118476117Y-112354672D02*
X118536594Y-112294196D01*
X118536594Y-112294196D02*
X118657546Y-112233720D01*
X118657546Y-112233720D02*
X118838975Y-112233720D01*
X118838975Y-112233720D02*
X118959927Y-112294196D01*
X118959927Y-112294196D02*
X119020403Y-112354672D01*
X119020403Y-112354672D02*
X119080879Y-112475625D01*
X119080879Y-112475625D02*
X119080879Y-112838482D01*
X119080879Y-112838482D02*
X119020403Y-112959434D01*
X119020403Y-112959434D02*
X118959927Y-113019911D01*
X118959927Y-113019911D02*
X118838975Y-113080387D01*
X118838975Y-113080387D02*
X118657546Y-113080387D01*
X119625165Y-112233720D02*
X119625165Y-113503720D01*
X119625165Y-112294196D02*
X119746118Y-112233720D01*
X119746118Y-112233720D02*
X119988023Y-112233720D01*
X119988023Y-112233720D02*
X120108975Y-112294196D01*
X120108975Y-112294196D02*
X120169451Y-112354672D01*
X120169451Y-112354672D02*
X120229927Y-112475625D01*
X120229927Y-112475625D02*
X120229927Y-112838482D01*
X120229927Y-112838482D02*
X120169451Y-112959434D01*
X120169451Y-112959434D02*
X120108975Y-113019911D01*
X120108975Y-113019911D02*
X119988023Y-113080387D01*
X119988023Y-113080387D02*
X119746118Y-113080387D01*
X119746118Y-113080387D02*
X119625165Y-113019911D01*
X120774213Y-113080387D02*
X120774213Y-111810387D01*
X121318499Y-113080387D02*
X121318499Y-112415149D01*
X121318499Y-112415149D02*
X121258023Y-112294196D01*
X121258023Y-112294196D02*
X121137071Y-112233720D01*
X121137071Y-112233720D02*
X120955642Y-112233720D01*
X120955642Y-112233720D02*
X120834690Y-112294196D01*
X120834690Y-112294196D02*
X120774213Y-112354672D01*
X121802309Y-112233720D02*
X122104690Y-113080387D01*
X122407071Y-112233720D02*
X122104690Y-113080387D01*
X122104690Y-113080387D02*
X121983738Y-113382768D01*
X121983738Y-113382768D02*
X121923261Y-113443244D01*
X121923261Y-113443244D02*
X121802309Y-113503720D01*
X122830404Y-113019911D02*
X122951357Y-113080387D01*
X122951357Y-113080387D02*
X123193261Y-113080387D01*
X123193261Y-113080387D02*
X123314214Y-113019911D01*
X123314214Y-113019911D02*
X123374690Y-112898958D01*
X123374690Y-112898958D02*
X123374690Y-112838482D01*
X123374690Y-112838482D02*
X123314214Y-112717530D01*
X123314214Y-112717530D02*
X123193261Y-112657053D01*
X123193261Y-112657053D02*
X123011833Y-112657053D01*
X123011833Y-112657053D02*
X122890880Y-112596577D01*
X122890880Y-112596577D02*
X122830404Y-112475625D01*
X122830404Y-112475625D02*
X122830404Y-112415149D01*
X122830404Y-112415149D02*
X122890880Y-112294196D01*
X122890880Y-112294196D02*
X123011833Y-112233720D01*
X123011833Y-112233720D02*
X123193261Y-112233720D01*
X123193261Y-112233720D02*
X123314214Y-112294196D01*
X123918975Y-113080387D02*
X123918975Y-112233720D01*
X123918975Y-111810387D02*
X123858499Y-111870863D01*
X123858499Y-111870863D02*
X123918975Y-111931339D01*
X123918975Y-111931339D02*
X123979452Y-111870863D01*
X123979452Y-111870863D02*
X123918975Y-111810387D01*
X123918975Y-111810387D02*
X123918975Y-111931339D01*
X125068023Y-113019911D02*
X124947071Y-113080387D01*
X124947071Y-113080387D02*
X124705166Y-113080387D01*
X124705166Y-113080387D02*
X124584214Y-113019911D01*
X124584214Y-113019911D02*
X124523737Y-112959434D01*
X124523737Y-112959434D02*
X124463261Y-112838482D01*
X124463261Y-112838482D02*
X124463261Y-112475625D01*
X124463261Y-112475625D02*
X124523737Y-112354672D01*
X124523737Y-112354672D02*
X124584214Y-112294196D01*
X124584214Y-112294196D02*
X124705166Y-112233720D01*
X124705166Y-112233720D02*
X124947071Y-112233720D01*
X124947071Y-112233720D02*
X125068023Y-112294196D01*
X126156594Y-113080387D02*
X126156594Y-112415149D01*
X126156594Y-112415149D02*
X126096118Y-112294196D01*
X126096118Y-112294196D02*
X125975166Y-112233720D01*
X125975166Y-112233720D02*
X125733261Y-112233720D01*
X125733261Y-112233720D02*
X125612308Y-112294196D01*
X126156594Y-113019911D02*
X126035642Y-113080387D01*
X126035642Y-113080387D02*
X125733261Y-113080387D01*
X125733261Y-113080387D02*
X125612308Y-113019911D01*
X125612308Y-113019911D02*
X125551832Y-112898958D01*
X125551832Y-112898958D02*
X125551832Y-112778006D01*
X125551832Y-112778006D02*
X125612308Y-112657053D01*
X125612308Y-112657053D02*
X125733261Y-112596577D01*
X125733261Y-112596577D02*
X126035642Y-112596577D01*
X126035642Y-112596577D02*
X126156594Y-112536101D01*
X126942785Y-113080387D02*
X126821833Y-113019911D01*
X126821833Y-113019911D02*
X126761356Y-112898958D01*
X126761356Y-112898958D02*
X126761356Y-111810387D01*
X128998975Y-113080387D02*
X128394213Y-113080387D01*
X128394213Y-113080387D02*
X128394213Y-111810387D01*
X130027070Y-113080387D02*
X129422308Y-113080387D01*
X129422308Y-113080387D02*
X129422308Y-111810387D01*
X131176118Y-112959434D02*
X131115642Y-113019911D01*
X131115642Y-113019911D02*
X130934213Y-113080387D01*
X130934213Y-113080387D02*
X130813261Y-113080387D01*
X130813261Y-113080387D02*
X130631832Y-113019911D01*
X130631832Y-113019911D02*
X130510880Y-112898958D01*
X130510880Y-112898958D02*
X130450403Y-112778006D01*
X130450403Y-112778006D02*
X130389927Y-112536101D01*
X130389927Y-112536101D02*
X130389927Y-112354672D01*
X130389927Y-112354672D02*
X130450403Y-112112768D01*
X130450403Y-112112768D02*
X130510880Y-111991815D01*
X130510880Y-111991815D02*
X130631832Y-111870863D01*
X130631832Y-111870863D02*
X130813261Y-111810387D01*
X130813261Y-111810387D02*
X130934213Y-111810387D01*
X130934213Y-111810387D02*
X131115642Y-111870863D01*
X131115642Y-111870863D02*
X131176118Y-111931339D01*
X107832309Y-113855016D02*
X108134690Y-115125016D01*
X108134690Y-115125016D02*
X108376595Y-114217873D01*
X108376595Y-114217873D02*
X108618500Y-115125016D01*
X108618500Y-115125016D02*
X108920881Y-113855016D01*
X109948976Y-115125016D02*
X109948976Y-114459778D01*
X109948976Y-114459778D02*
X109888500Y-114338825D01*
X109888500Y-114338825D02*
X109767548Y-114278349D01*
X109767548Y-114278349D02*
X109525643Y-114278349D01*
X109525643Y-114278349D02*
X109404690Y-114338825D01*
X109948976Y-115064540D02*
X109828024Y-115125016D01*
X109828024Y-115125016D02*
X109525643Y-115125016D01*
X109525643Y-115125016D02*
X109404690Y-115064540D01*
X109404690Y-115064540D02*
X109344214Y-114943587D01*
X109344214Y-114943587D02*
X109344214Y-114822635D01*
X109344214Y-114822635D02*
X109404690Y-114701682D01*
X109404690Y-114701682D02*
X109525643Y-114641206D01*
X109525643Y-114641206D02*
X109828024Y-114641206D01*
X109828024Y-114641206D02*
X109948976Y-114580730D01*
X110432786Y-114278349D02*
X110735167Y-115125016D01*
X110735167Y-115125016D02*
X111037548Y-114278349D01*
X112005167Y-115064540D02*
X111884215Y-115125016D01*
X111884215Y-115125016D02*
X111642310Y-115125016D01*
X111642310Y-115125016D02*
X111521357Y-115064540D01*
X111521357Y-115064540D02*
X111460881Y-114943587D01*
X111460881Y-114943587D02*
X111460881Y-114459778D01*
X111460881Y-114459778D02*
X111521357Y-114338825D01*
X111521357Y-114338825D02*
X111642310Y-114278349D01*
X111642310Y-114278349D02*
X111884215Y-114278349D01*
X111884215Y-114278349D02*
X112005167Y-114338825D01*
X112005167Y-114338825D02*
X112065643Y-114459778D01*
X112065643Y-114459778D02*
X112065643Y-114580730D01*
X112065643Y-114580730D02*
X111460881Y-114701682D01*
X112428500Y-114278349D02*
X112912309Y-114278349D01*
X112609928Y-115125016D02*
X112609928Y-114036444D01*
X112609928Y-114036444D02*
X112670405Y-113915492D01*
X112670405Y-113915492D02*
X112791357Y-113855016D01*
X112791357Y-113855016D02*
X112912309Y-113855016D01*
X113517071Y-115125016D02*
X113396119Y-115064540D01*
X113396119Y-115064540D02*
X113335642Y-115004063D01*
X113335642Y-115004063D02*
X113275166Y-114883111D01*
X113275166Y-114883111D02*
X113275166Y-114520254D01*
X113275166Y-114520254D02*
X113335642Y-114399301D01*
X113335642Y-114399301D02*
X113396119Y-114338825D01*
X113396119Y-114338825D02*
X113517071Y-114278349D01*
X113517071Y-114278349D02*
X113698500Y-114278349D01*
X113698500Y-114278349D02*
X113819452Y-114338825D01*
X113819452Y-114338825D02*
X113879928Y-114399301D01*
X113879928Y-114399301D02*
X113940404Y-114520254D01*
X113940404Y-114520254D02*
X113940404Y-114883111D01*
X113940404Y-114883111D02*
X113879928Y-115004063D01*
X113879928Y-115004063D02*
X113819452Y-115064540D01*
X113819452Y-115064540D02*
X113698500Y-115125016D01*
X113698500Y-115125016D02*
X113517071Y-115125016D01*
X114484690Y-115125016D02*
X114484690Y-114278349D01*
X114484690Y-114520254D02*
X114545167Y-114399301D01*
X114545167Y-114399301D02*
X114605643Y-114338825D01*
X114605643Y-114338825D02*
X114726595Y-114278349D01*
X114726595Y-114278349D02*
X114847548Y-114278349D01*
X115270880Y-115125016D02*
X115270880Y-114278349D01*
X115270880Y-114399301D02*
X115331357Y-114338825D01*
X115331357Y-114338825D02*
X115452309Y-114278349D01*
X115452309Y-114278349D02*
X115633738Y-114278349D01*
X115633738Y-114278349D02*
X115754690Y-114338825D01*
X115754690Y-114338825D02*
X115815166Y-114459778D01*
X115815166Y-114459778D02*
X115815166Y-115125016D01*
X115815166Y-114459778D02*
X115875642Y-114338825D01*
X115875642Y-114338825D02*
X115996595Y-114278349D01*
X115996595Y-114278349D02*
X116178023Y-114278349D01*
X116178023Y-114278349D02*
X116298976Y-114338825D01*
X116298976Y-114338825D02*
X116359452Y-114459778D01*
X116359452Y-114459778D02*
X116359452Y-115125016D01*
X118355166Y-114459778D02*
X118536594Y-114520254D01*
X118536594Y-114520254D02*
X118597071Y-114580730D01*
X118597071Y-114580730D02*
X118657547Y-114701682D01*
X118657547Y-114701682D02*
X118657547Y-114883111D01*
X118657547Y-114883111D02*
X118597071Y-115004063D01*
X118597071Y-115004063D02*
X118536594Y-115064540D01*
X118536594Y-115064540D02*
X118415642Y-115125016D01*
X118415642Y-115125016D02*
X117931832Y-115125016D01*
X117931832Y-115125016D02*
X117931832Y-113855016D01*
X117931832Y-113855016D02*
X118355166Y-113855016D01*
X118355166Y-113855016D02*
X118476118Y-113915492D01*
X118476118Y-113915492D02*
X118536594Y-113975968D01*
X118536594Y-113975968D02*
X118597071Y-114096920D01*
X118597071Y-114096920D02*
X118597071Y-114217873D01*
X118597071Y-114217873D02*
X118536594Y-114338825D01*
X118536594Y-114338825D02*
X118476118Y-114399301D01*
X118476118Y-114399301D02*
X118355166Y-114459778D01*
X118355166Y-114459778D02*
X117931832Y-114459778D01*
X119383261Y-115125016D02*
X119262309Y-115064540D01*
X119262309Y-115064540D02*
X119201832Y-114943587D01*
X119201832Y-114943587D02*
X119201832Y-113855016D01*
X119867070Y-115125016D02*
X119867070Y-114278349D01*
X119867070Y-113855016D02*
X119806594Y-113915492D01*
X119806594Y-113915492D02*
X119867070Y-113975968D01*
X119867070Y-113975968D02*
X119927547Y-113915492D01*
X119927547Y-113915492D02*
X119867070Y-113855016D01*
X119867070Y-113855016D02*
X119867070Y-113975968D01*
X120471832Y-114278349D02*
X120471832Y-115125016D01*
X120471832Y-114399301D02*
X120532309Y-114338825D01*
X120532309Y-114338825D02*
X120653261Y-114278349D01*
X120653261Y-114278349D02*
X120834690Y-114278349D01*
X120834690Y-114278349D02*
X120955642Y-114338825D01*
X120955642Y-114338825D02*
X121016118Y-114459778D01*
X121016118Y-114459778D02*
X121016118Y-115125016D01*
X121620880Y-115125016D02*
X121620880Y-113855016D01*
X121741833Y-114641206D02*
X122104690Y-115125016D01*
X122104690Y-114278349D02*
X121620880Y-114762159D01*
X122528023Y-114278349D02*
X122830404Y-115125016D01*
X123132785Y-114278349D02*
X122830404Y-115125016D01*
X122830404Y-115125016D02*
X122709452Y-115427397D01*
X122709452Y-115427397D02*
X122648975Y-115487873D01*
X122648975Y-115487873D02*
X122528023Y-115548349D01*
X108618500Y-115960121D02*
X108497547Y-115899645D01*
X108497547Y-115899645D02*
X108316119Y-115899645D01*
X108316119Y-115899645D02*
X108134690Y-115960121D01*
X108134690Y-115960121D02*
X108013738Y-116081073D01*
X108013738Y-116081073D02*
X107953261Y-116202026D01*
X107953261Y-116202026D02*
X107892785Y-116443930D01*
X107892785Y-116443930D02*
X107892785Y-116625359D01*
X107892785Y-116625359D02*
X107953261Y-116867264D01*
X107953261Y-116867264D02*
X108013738Y-116988216D01*
X108013738Y-116988216D02*
X108134690Y-117109169D01*
X108134690Y-117109169D02*
X108316119Y-117169645D01*
X108316119Y-117169645D02*
X108437071Y-117169645D01*
X108437071Y-117169645D02*
X108618500Y-117109169D01*
X108618500Y-117109169D02*
X108678976Y-117048692D01*
X108678976Y-117048692D02*
X108678976Y-116625359D01*
X108678976Y-116625359D02*
X108437071Y-116625359D01*
X109223261Y-116504407D02*
X109646595Y-116504407D01*
X109828023Y-117169645D02*
X109223261Y-117169645D01*
X109223261Y-117169645D02*
X109223261Y-115899645D01*
X109223261Y-115899645D02*
X109828023Y-115899645D01*
X110311833Y-116806788D02*
X110916595Y-116806788D01*
X110190881Y-117169645D02*
X110614214Y-115899645D01*
X110614214Y-115899645D02*
X111037548Y-117169645D01*
X112186595Y-117169645D02*
X111763261Y-116564883D01*
X111460880Y-117169645D02*
X111460880Y-115899645D01*
X111460880Y-115899645D02*
X111944690Y-115899645D01*
X111944690Y-115899645D02*
X112065642Y-115960121D01*
X112065642Y-115960121D02*
X112126119Y-116020597D01*
X112126119Y-116020597D02*
X112186595Y-116141549D01*
X112186595Y-116141549D02*
X112186595Y-116322978D01*
X112186595Y-116322978D02*
X112126119Y-116443930D01*
X112126119Y-116443930D02*
X112065642Y-116504407D01*
X112065642Y-116504407D02*
X111944690Y-116564883D01*
X111944690Y-116564883D02*
X111460880Y-116564883D01*
X112670404Y-117109169D02*
X112851833Y-117169645D01*
X112851833Y-117169645D02*
X113154214Y-117169645D01*
X113154214Y-117169645D02*
X113275166Y-117109169D01*
X113275166Y-117109169D02*
X113335642Y-117048692D01*
X113335642Y-117048692D02*
X113396119Y-116927740D01*
X113396119Y-116927740D02*
X113396119Y-116806788D01*
X113396119Y-116806788D02*
X113335642Y-116685835D01*
X113335642Y-116685835D02*
X113275166Y-116625359D01*
X113275166Y-116625359D02*
X113154214Y-116564883D01*
X113154214Y-116564883D02*
X112912309Y-116504407D01*
X112912309Y-116504407D02*
X112791357Y-116443930D01*
X112791357Y-116443930D02*
X112730880Y-116383454D01*
X112730880Y-116383454D02*
X112670404Y-116262502D01*
X112670404Y-116262502D02*
X112670404Y-116141549D01*
X112670404Y-116141549D02*
X112730880Y-116020597D01*
X112730880Y-116020597D02*
X112791357Y-115960121D01*
X112791357Y-115960121D02*
X112912309Y-115899645D01*
X112912309Y-115899645D02*
X113214690Y-115899645D01*
X113214690Y-115899645D02*
X113396119Y-115960121D01*
X114787071Y-115899645D02*
X115089452Y-117169645D01*
X115089452Y-117169645D02*
X115331357Y-116262502D01*
X115331357Y-116262502D02*
X115573262Y-117169645D01*
X115573262Y-117169645D02*
X115875643Y-115899645D01*
X116540881Y-117169645D02*
X116419929Y-117109169D01*
X116419929Y-117109169D02*
X116359452Y-117048692D01*
X116359452Y-117048692D02*
X116298976Y-116927740D01*
X116298976Y-116927740D02*
X116298976Y-116564883D01*
X116298976Y-116564883D02*
X116359452Y-116443930D01*
X116359452Y-116443930D02*
X116419929Y-116383454D01*
X116419929Y-116383454D02*
X116540881Y-116322978D01*
X116540881Y-116322978D02*
X116722310Y-116322978D01*
X116722310Y-116322978D02*
X116843262Y-116383454D01*
X116843262Y-116383454D02*
X116903738Y-116443930D01*
X116903738Y-116443930D02*
X116964214Y-116564883D01*
X116964214Y-116564883D02*
X116964214Y-116927740D01*
X116964214Y-116927740D02*
X116903738Y-117048692D01*
X116903738Y-117048692D02*
X116843262Y-117109169D01*
X116843262Y-117109169D02*
X116722310Y-117169645D01*
X116722310Y-117169645D02*
X116540881Y-117169645D01*
X117508500Y-117169645D02*
X117508500Y-116322978D01*
X117508500Y-116564883D02*
X117568977Y-116443930D01*
X117568977Y-116443930D02*
X117629453Y-116383454D01*
X117629453Y-116383454D02*
X117750405Y-116322978D01*
X117750405Y-116322978D02*
X117871358Y-116322978D01*
X118294690Y-117169645D02*
X118294690Y-115899645D01*
X118415643Y-116685835D02*
X118778500Y-117169645D01*
X118778500Y-116322978D02*
X118294690Y-116806788D01*
X119262309Y-117109169D02*
X119383262Y-117169645D01*
X119383262Y-117169645D02*
X119625166Y-117169645D01*
X119625166Y-117169645D02*
X119746119Y-117109169D01*
X119746119Y-117109169D02*
X119806595Y-116988216D01*
X119806595Y-116988216D02*
X119806595Y-116927740D01*
X119806595Y-116927740D02*
X119746119Y-116806788D01*
X119746119Y-116806788D02*
X119625166Y-116746311D01*
X119625166Y-116746311D02*
X119443738Y-116746311D01*
X119443738Y-116746311D02*
X119322785Y-116685835D01*
X119322785Y-116685835D02*
X119262309Y-116564883D01*
X119262309Y-116564883D02*
X119262309Y-116504407D01*
X119262309Y-116504407D02*
X119322785Y-116383454D01*
X119322785Y-116383454D02*
X119443738Y-116322978D01*
X119443738Y-116322978D02*
X119625166Y-116322978D01*
X119625166Y-116322978D02*
X119746119Y-116383454D01*
X120350880Y-117169645D02*
X120350880Y-115899645D01*
X120895166Y-117169645D02*
X120895166Y-116504407D01*
X120895166Y-116504407D02*
X120834690Y-116383454D01*
X120834690Y-116383454D02*
X120713738Y-116322978D01*
X120713738Y-116322978D02*
X120532309Y-116322978D01*
X120532309Y-116322978D02*
X120411357Y-116383454D01*
X120411357Y-116383454D02*
X120350880Y-116443930D01*
X121681357Y-117169645D02*
X121560405Y-117109169D01*
X121560405Y-117109169D02*
X121499928Y-117048692D01*
X121499928Y-117048692D02*
X121439452Y-116927740D01*
X121439452Y-116927740D02*
X121439452Y-116564883D01*
X121439452Y-116564883D02*
X121499928Y-116443930D01*
X121499928Y-116443930D02*
X121560405Y-116383454D01*
X121560405Y-116383454D02*
X121681357Y-116322978D01*
X121681357Y-116322978D02*
X121862786Y-116322978D01*
X121862786Y-116322978D02*
X121983738Y-116383454D01*
X121983738Y-116383454D02*
X122044214Y-116443930D01*
X122044214Y-116443930D02*
X122104690Y-116564883D01*
X122104690Y-116564883D02*
X122104690Y-116927740D01*
X122104690Y-116927740D02*
X122044214Y-117048692D01*
X122044214Y-117048692D02*
X121983738Y-117109169D01*
X121983738Y-117109169D02*
X121862786Y-117169645D01*
X121862786Y-117169645D02*
X121681357Y-117169645D01*
X122648976Y-116322978D02*
X122648976Y-117592978D01*
X122648976Y-116383454D02*
X122769929Y-116322978D01*
X122769929Y-116322978D02*
X123011834Y-116322978D01*
X123011834Y-116322978D02*
X123132786Y-116383454D01*
X123132786Y-116383454D02*
X123193262Y-116443930D01*
X123193262Y-116443930D02*
X123253738Y-116564883D01*
X123253738Y-116564883D02*
X123253738Y-116927740D01*
X123253738Y-116927740D02*
X123193262Y-117048692D01*
X123193262Y-117048692D02*
X123132786Y-117109169D01*
X123132786Y-117109169D02*
X123011834Y-117169645D01*
X123011834Y-117169645D02*
X122769929Y-117169645D01*
X122769929Y-117169645D02*
X122648976Y-117109169D01*
X102525285Y-101179206D02*
X103492905Y-101179206D01*
X104097666Y-101663016D02*
X104097666Y-100393016D01*
X104702428Y-100816349D02*
X104702428Y-101663016D01*
X104702428Y-100937301D02*
X104762905Y-100876825D01*
X104762905Y-100876825D02*
X104883857Y-100816349D01*
X104883857Y-100816349D02*
X105065286Y-100816349D01*
X105065286Y-100816349D02*
X105186238Y-100876825D01*
X105186238Y-100876825D02*
X105246714Y-100997778D01*
X105246714Y-100997778D02*
X105246714Y-101663016D01*
D10*
X142534819Y-100547416D02*
X142058628Y-100880749D01*
X142534819Y-101118844D02*
X141534819Y-101118844D01*
X141534819Y-101118844D02*
X141534819Y-100737892D01*
X141534819Y-100737892D02*
X141582438Y-100642654D01*
X141582438Y-100642654D02*
X141630057Y-100595035D01*
X141630057Y-100595035D02*
X141725295Y-100547416D01*
X141725295Y-100547416D02*
X141868152Y-100547416D01*
X141868152Y-100547416D02*
X141963390Y-100595035D01*
X141963390Y-100595035D02*
X142011009Y-100642654D01*
X142011009Y-100642654D02*
X142058628Y-100737892D01*
X142058628Y-100737892D02*
X142058628Y-101118844D01*
X141534819Y-100214082D02*
X141534819Y-99547416D01*
X141534819Y-99547416D02*
X142534819Y-99975987D01*
X159726333Y-103578819D02*
X159393000Y-103102628D01*
X159154905Y-103578819D02*
X159154905Y-102578819D01*
X159154905Y-102578819D02*
X159535857Y-102578819D01*
X159535857Y-102578819D02*
X159631095Y-102626438D01*
X159631095Y-102626438D02*
X159678714Y-102674057D01*
X159678714Y-102674057D02*
X159726333Y-102769295D01*
X159726333Y-102769295D02*
X159726333Y-102912152D01*
X159726333Y-102912152D02*
X159678714Y-103007390D01*
X159678714Y-103007390D02*
X159631095Y-103055009D01*
X159631095Y-103055009D02*
X159535857Y-103102628D01*
X159535857Y-103102628D02*
X159154905Y-103102628D01*
X160297762Y-103007390D02*
X160202524Y-102959771D01*
X160202524Y-102959771D02*
X160154905Y-102912152D01*
X160154905Y-102912152D02*
X160107286Y-102816914D01*
X160107286Y-102816914D02*
X160107286Y-102769295D01*
X160107286Y-102769295D02*
X160154905Y-102674057D01*
X160154905Y-102674057D02*
X160202524Y-102626438D01*
X160202524Y-102626438D02*
X160297762Y-102578819D01*
X160297762Y-102578819D02*
X160488238Y-102578819D01*
X160488238Y-102578819D02*
X160583476Y-102626438D01*
X160583476Y-102626438D02*
X160631095Y-102674057D01*
X160631095Y-102674057D02*
X160678714Y-102769295D01*
X160678714Y-102769295D02*
X160678714Y-102816914D01*
X160678714Y-102816914D02*
X160631095Y-102912152D01*
X160631095Y-102912152D02*
X160583476Y-102959771D01*
X160583476Y-102959771D02*
X160488238Y-103007390D01*
X160488238Y-103007390D02*
X160297762Y-103007390D01*
X160297762Y-103007390D02*
X160202524Y-103055009D01*
X160202524Y-103055009D02*
X160154905Y-103102628D01*
X160154905Y-103102628D02*
X160107286Y-103197866D01*
X160107286Y-103197866D02*
X160107286Y-103388342D01*
X160107286Y-103388342D02*
X160154905Y-103483580D01*
X160154905Y-103483580D02*
X160202524Y-103531200D01*
X160202524Y-103531200D02*
X160297762Y-103578819D01*
X160297762Y-103578819D02*
X160488238Y-103578819D01*
X160488238Y-103578819D02*
X160583476Y-103531200D01*
X160583476Y-103531200D02*
X160631095Y-103483580D01*
X160631095Y-103483580D02*
X160678714Y-103388342D01*
X160678714Y-103388342D02*
X160678714Y-103197866D01*
X160678714Y-103197866D02*
X160631095Y-103102628D01*
X160631095Y-103102628D02*
X160583476Y-103055009D01*
X160583476Y-103055009D02*
X160488238Y-103007390D01*
X116800333Y-107388819D02*
X116467000Y-106912628D01*
X116228905Y-107388819D02*
X116228905Y-106388819D01*
X116228905Y-106388819D02*
X116609857Y-106388819D01*
X116609857Y-106388819D02*
X116705095Y-106436438D01*
X116705095Y-106436438D02*
X116752714Y-106484057D01*
X116752714Y-106484057D02*
X116800333Y-106579295D01*
X116800333Y-106579295D02*
X116800333Y-106722152D01*
X116800333Y-106722152D02*
X116752714Y-106817390D01*
X116752714Y-106817390D02*
X116705095Y-106865009D01*
X116705095Y-106865009D02*
X116609857Y-106912628D01*
X116609857Y-106912628D02*
X116228905Y-106912628D01*
X117752714Y-107388819D02*
X117181286Y-107388819D01*
X117467000Y-107388819D02*
X117467000Y-106388819D01*
X117467000Y-106388819D02*
X117371762Y-106531676D01*
X117371762Y-106531676D02*
X117276524Y-106626914D01*
X117276524Y-106626914D02*
X117181286Y-106674533D01*
X122406580Y-109920166D02*
X122454200Y-109967785D01*
X122454200Y-109967785D02*
X122501819Y-110110642D01*
X122501819Y-110110642D02*
X122501819Y-110205880D01*
X122501819Y-110205880D02*
X122454200Y-110348737D01*
X122454200Y-110348737D02*
X122358961Y-110443975D01*
X122358961Y-110443975D02*
X122263723Y-110491594D01*
X122263723Y-110491594D02*
X122073247Y-110539213D01*
X122073247Y-110539213D02*
X121930390Y-110539213D01*
X121930390Y-110539213D02*
X121739914Y-110491594D01*
X121739914Y-110491594D02*
X121644676Y-110443975D01*
X121644676Y-110443975D02*
X121549438Y-110348737D01*
X121549438Y-110348737D02*
X121501819Y-110205880D01*
X121501819Y-110205880D02*
X121501819Y-110110642D01*
X121501819Y-110110642D02*
X121549438Y-109967785D01*
X121549438Y-109967785D02*
X121597057Y-109920166D01*
X121597057Y-109539213D02*
X121549438Y-109491594D01*
X121549438Y-109491594D02*
X121501819Y-109396356D01*
X121501819Y-109396356D02*
X121501819Y-109158261D01*
X121501819Y-109158261D02*
X121549438Y-109063023D01*
X121549438Y-109063023D02*
X121597057Y-109015404D01*
X121597057Y-109015404D02*
X121692295Y-108967785D01*
X121692295Y-108967785D02*
X121787533Y-108967785D01*
X121787533Y-108967785D02*
X121930390Y-109015404D01*
X121930390Y-109015404D02*
X122501819Y-109586832D01*
X122501819Y-109586832D02*
X122501819Y-108967785D01*
X159726333Y-95544819D02*
X159393000Y-95068628D01*
X159154905Y-95544819D02*
X159154905Y-94544819D01*
X159154905Y-94544819D02*
X159535857Y-94544819D01*
X159535857Y-94544819D02*
X159631095Y-94592438D01*
X159631095Y-94592438D02*
X159678714Y-94640057D01*
X159678714Y-94640057D02*
X159726333Y-94735295D01*
X159726333Y-94735295D02*
X159726333Y-94878152D01*
X159726333Y-94878152D02*
X159678714Y-94973390D01*
X159678714Y-94973390D02*
X159631095Y-95021009D01*
X159631095Y-95021009D02*
X159535857Y-95068628D01*
X159535857Y-95068628D02*
X159154905Y-95068628D01*
X160202524Y-95544819D02*
X160393000Y-95544819D01*
X160393000Y-95544819D02*
X160488238Y-95497200D01*
X160488238Y-95497200D02*
X160535857Y-95449580D01*
X160535857Y-95449580D02*
X160631095Y-95306723D01*
X160631095Y-95306723D02*
X160678714Y-95116247D01*
X160678714Y-95116247D02*
X160678714Y-94735295D01*
X160678714Y-94735295D02*
X160631095Y-94640057D01*
X160631095Y-94640057D02*
X160583476Y-94592438D01*
X160583476Y-94592438D02*
X160488238Y-94544819D01*
X160488238Y-94544819D02*
X160297762Y-94544819D01*
X160297762Y-94544819D02*
X160202524Y-94592438D01*
X160202524Y-94592438D02*
X160154905Y-94640057D01*
X160154905Y-94640057D02*
X160107286Y-94735295D01*
X160107286Y-94735295D02*
X160107286Y-94973390D01*
X160107286Y-94973390D02*
X160154905Y-95068628D01*
X160154905Y-95068628D02*
X160202524Y-95116247D01*
X160202524Y-95116247D02*
X160297762Y-95163866D01*
X160297762Y-95163866D02*
X160488238Y-95163866D01*
X160488238Y-95163866D02*
X160583476Y-95116247D01*
X160583476Y-95116247D02*
X160631095Y-95068628D01*
X160631095Y-95068628D02*
X160678714Y-94973390D01*
X127773580Y-109920166D02*
X127821200Y-109967785D01*
X127821200Y-109967785D02*
X127868819Y-110110642D01*
X127868819Y-110110642D02*
X127868819Y-110205880D01*
X127868819Y-110205880D02*
X127821200Y-110348737D01*
X127821200Y-110348737D02*
X127725961Y-110443975D01*
X127725961Y-110443975D02*
X127630723Y-110491594D01*
X127630723Y-110491594D02*
X127440247Y-110539213D01*
X127440247Y-110539213D02*
X127297390Y-110539213D01*
X127297390Y-110539213D02*
X127106914Y-110491594D01*
X127106914Y-110491594D02*
X127011676Y-110443975D01*
X127011676Y-110443975D02*
X126916438Y-110348737D01*
X126916438Y-110348737D02*
X126868819Y-110205880D01*
X126868819Y-110205880D02*
X126868819Y-110110642D01*
X126868819Y-110110642D02*
X126916438Y-109967785D01*
X126916438Y-109967785D02*
X126964057Y-109920166D01*
X126868819Y-109586832D02*
X126868819Y-108967785D01*
X126868819Y-108967785D02*
X127249771Y-109301118D01*
X127249771Y-109301118D02*
X127249771Y-109158261D01*
X127249771Y-109158261D02*
X127297390Y-109063023D01*
X127297390Y-109063023D02*
X127345009Y-109015404D01*
X127345009Y-109015404D02*
X127440247Y-108967785D01*
X127440247Y-108967785D02*
X127678342Y-108967785D01*
X127678342Y-108967785D02*
X127773580Y-109015404D01*
X127773580Y-109015404D02*
X127821200Y-109063023D01*
X127821200Y-109063023D02*
X127868819Y-109158261D01*
X127868819Y-109158261D02*
X127868819Y-109443975D01*
X127868819Y-109443975D02*
X127821200Y-109539213D01*
X127821200Y-109539213D02*
X127773580Y-109586832D01*
X117105580Y-109920166D02*
X117153200Y-109967785D01*
X117153200Y-109967785D02*
X117200819Y-110110642D01*
X117200819Y-110110642D02*
X117200819Y-110205880D01*
X117200819Y-110205880D02*
X117153200Y-110348737D01*
X117153200Y-110348737D02*
X117057961Y-110443975D01*
X117057961Y-110443975D02*
X116962723Y-110491594D01*
X116962723Y-110491594D02*
X116772247Y-110539213D01*
X116772247Y-110539213D02*
X116629390Y-110539213D01*
X116629390Y-110539213D02*
X116438914Y-110491594D01*
X116438914Y-110491594D02*
X116343676Y-110443975D01*
X116343676Y-110443975D02*
X116248438Y-110348737D01*
X116248438Y-110348737D02*
X116200819Y-110205880D01*
X116200819Y-110205880D02*
X116200819Y-110110642D01*
X116200819Y-110110642D02*
X116248438Y-109967785D01*
X116248438Y-109967785D02*
X116296057Y-109920166D01*
X117200819Y-108967785D02*
X117200819Y-109539213D01*
X117200819Y-109253499D02*
X116200819Y-109253499D01*
X116200819Y-109253499D02*
X116343676Y-109348737D01*
X116343676Y-109348737D02*
X116438914Y-109443975D01*
X116438914Y-109443975D02*
X116486533Y-109539213D01*
X158188819Y-93225857D02*
X157712628Y-93559190D01*
X158188819Y-93797285D02*
X157188819Y-93797285D01*
X157188819Y-93797285D02*
X157188819Y-93416333D01*
X157188819Y-93416333D02*
X157236438Y-93321095D01*
X157236438Y-93321095D02*
X157284057Y-93273476D01*
X157284057Y-93273476D02*
X157379295Y-93225857D01*
X157379295Y-93225857D02*
X157522152Y-93225857D01*
X157522152Y-93225857D02*
X157617390Y-93273476D01*
X157617390Y-93273476D02*
X157665009Y-93321095D01*
X157665009Y-93321095D02*
X157712628Y-93416333D01*
X157712628Y-93416333D02*
X157712628Y-93797285D01*
X158188819Y-92273476D02*
X158188819Y-92844904D01*
X158188819Y-92559190D02*
X157188819Y-92559190D01*
X157188819Y-92559190D02*
X157331676Y-92654428D01*
X157331676Y-92654428D02*
X157426914Y-92749666D01*
X157426914Y-92749666D02*
X157474533Y-92844904D01*
X158188819Y-91321095D02*
X158188819Y-91892523D01*
X158188819Y-91606809D02*
X157188819Y-91606809D01*
X157188819Y-91606809D02*
X157331676Y-91702047D01*
X157331676Y-91702047D02*
X157426914Y-91797285D01*
X157426914Y-91797285D02*
X157474533Y-91892523D01*
X121828476Y-91015849D02*
X121495143Y-90539658D01*
X121257048Y-91015849D02*
X121257048Y-90015849D01*
X121257048Y-90015849D02*
X121638000Y-90015849D01*
X121638000Y-90015849D02*
X121733238Y-90063468D01*
X121733238Y-90063468D02*
X121780857Y-90111087D01*
X121780857Y-90111087D02*
X121828476Y-90206325D01*
X121828476Y-90206325D02*
X121828476Y-90349182D01*
X121828476Y-90349182D02*
X121780857Y-90444420D01*
X121780857Y-90444420D02*
X121733238Y-90492039D01*
X121733238Y-90492039D02*
X121638000Y-90539658D01*
X121638000Y-90539658D02*
X121257048Y-90539658D01*
X122685619Y-90349182D02*
X122685619Y-91015849D01*
X122447524Y-89968230D02*
X122209429Y-90682515D01*
X122209429Y-90682515D02*
X122828476Y-90682515D01*
X158221819Y-106179857D02*
X157745628Y-106513190D01*
X158221819Y-106751285D02*
X157221819Y-106751285D01*
X157221819Y-106751285D02*
X157221819Y-106370333D01*
X157221819Y-106370333D02*
X157269438Y-106275095D01*
X157269438Y-106275095D02*
X157317057Y-106227476D01*
X157317057Y-106227476D02*
X157412295Y-106179857D01*
X157412295Y-106179857D02*
X157555152Y-106179857D01*
X157555152Y-106179857D02*
X157650390Y-106227476D01*
X157650390Y-106227476D02*
X157698009Y-106275095D01*
X157698009Y-106275095D02*
X157745628Y-106370333D01*
X157745628Y-106370333D02*
X157745628Y-106751285D01*
X158221819Y-105227476D02*
X158221819Y-105798904D01*
X158221819Y-105513190D02*
X157221819Y-105513190D01*
X157221819Y-105513190D02*
X157364676Y-105608428D01*
X157364676Y-105608428D02*
X157459914Y-105703666D01*
X157459914Y-105703666D02*
X157507533Y-105798904D01*
X157221819Y-104608428D02*
X157221819Y-104513190D01*
X157221819Y-104513190D02*
X157269438Y-104417952D01*
X157269438Y-104417952D02*
X157317057Y-104370333D01*
X157317057Y-104370333D02*
X157412295Y-104322714D01*
X157412295Y-104322714D02*
X157602771Y-104275095D01*
X157602771Y-104275095D02*
X157840866Y-104275095D01*
X157840866Y-104275095D02*
X158031342Y-104322714D01*
X158031342Y-104322714D02*
X158126580Y-104370333D01*
X158126580Y-104370333D02*
X158174200Y-104417952D01*
X158174200Y-104417952D02*
X158221819Y-104513190D01*
X158221819Y-104513190D02*
X158221819Y-104608428D01*
X158221819Y-104608428D02*
X158174200Y-104703666D01*
X158174200Y-104703666D02*
X158126580Y-104751285D01*
X158126580Y-104751285D02*
X158031342Y-104798904D01*
X158031342Y-104798904D02*
X157840866Y-104846523D01*
X157840866Y-104846523D02*
X157602771Y-104846523D01*
X157602771Y-104846523D02*
X157412295Y-104798904D01*
X157412295Y-104798904D02*
X157317057Y-104751285D01*
X157317057Y-104751285D02*
X157269438Y-104703666D01*
X157269438Y-104703666D02*
X157221819Y-104608428D01*
X113754819Y-99821904D02*
X114564342Y-99821904D01*
X114564342Y-99821904D02*
X114659580Y-99774285D01*
X114659580Y-99774285D02*
X114707200Y-99726666D01*
X114707200Y-99726666D02*
X114754819Y-99631428D01*
X114754819Y-99631428D02*
X114754819Y-99440952D01*
X114754819Y-99440952D02*
X114707200Y-99345714D01*
X114707200Y-99345714D02*
X114659580Y-99298095D01*
X114659580Y-99298095D02*
X114564342Y-99250476D01*
X114564342Y-99250476D02*
X113754819Y-99250476D01*
X114754819Y-98250476D02*
X114754819Y-98821904D01*
X114754819Y-98536190D02*
X113754819Y-98536190D01*
X113754819Y-98536190D02*
X113897676Y-98631428D01*
X113897676Y-98631428D02*
X113992914Y-98726666D01*
X113992914Y-98726666D02*
X114040533Y-98821904D01*
X129248819Y-99821904D02*
X130058342Y-99821904D01*
X130058342Y-99821904D02*
X130153580Y-99774285D01*
X130153580Y-99774285D02*
X130201200Y-99726666D01*
X130201200Y-99726666D02*
X130248819Y-99631428D01*
X130248819Y-99631428D02*
X130248819Y-99440952D01*
X130248819Y-99440952D02*
X130201200Y-99345714D01*
X130201200Y-99345714D02*
X130153580Y-99298095D01*
X130153580Y-99298095D02*
X130058342Y-99250476D01*
X130058342Y-99250476D02*
X129248819Y-99250476D01*
X129344057Y-98821904D02*
X129296438Y-98774285D01*
X129296438Y-98774285D02*
X129248819Y-98679047D01*
X129248819Y-98679047D02*
X129248819Y-98440952D01*
X129248819Y-98440952D02*
X129296438Y-98345714D01*
X129296438Y-98345714D02*
X129344057Y-98298095D01*
X129344057Y-98298095D02*
X129439295Y-98250476D01*
X129439295Y-98250476D02*
X129534533Y-98250476D01*
X129534533Y-98250476D02*
X129677390Y-98298095D01*
X129677390Y-98298095D02*
X130248819Y-98869523D01*
X130248819Y-98869523D02*
X130248819Y-98250476D01*
X121830854Y-92809320D02*
X121497521Y-92333129D01*
X121259426Y-92809320D02*
X121259426Y-91809320D01*
X121259426Y-91809320D02*
X121640378Y-91809320D01*
X121640378Y-91809320D02*
X121735616Y-91856939D01*
X121735616Y-91856939D02*
X121783235Y-91904558D01*
X121783235Y-91904558D02*
X121830854Y-91999796D01*
X121830854Y-91999796D02*
X121830854Y-92142653D01*
X121830854Y-92142653D02*
X121783235Y-92237891D01*
X121783235Y-92237891D02*
X121735616Y-92285510D01*
X121735616Y-92285510D02*
X121640378Y-92333129D01*
X121640378Y-92333129D02*
X121259426Y-92333129D01*
X122735616Y-91809320D02*
X122259426Y-91809320D01*
X122259426Y-91809320D02*
X122211807Y-92285510D01*
X122211807Y-92285510D02*
X122259426Y-92237891D01*
X122259426Y-92237891D02*
X122354664Y-92190272D01*
X122354664Y-92190272D02*
X122592759Y-92190272D01*
X122592759Y-92190272D02*
X122687997Y-92237891D01*
X122687997Y-92237891D02*
X122735616Y-92285510D01*
X122735616Y-92285510D02*
X122783235Y-92380748D01*
X122783235Y-92380748D02*
X122783235Y-92618843D01*
X122783235Y-92618843D02*
X122735616Y-92714081D01*
X122735616Y-92714081D02*
X122687997Y-92761701D01*
X122687997Y-92761701D02*
X122592759Y-92809320D01*
X122592759Y-92809320D02*
X122354664Y-92809320D01*
X122354664Y-92809320D02*
X122259426Y-92761701D01*
X122259426Y-92761701D02*
X122211807Y-92714081D01*
X142534819Y-97499416D02*
X142058628Y-97832749D01*
X142534819Y-98070844D02*
X141534819Y-98070844D01*
X141534819Y-98070844D02*
X141534819Y-97689892D01*
X141534819Y-97689892D02*
X141582438Y-97594654D01*
X141582438Y-97594654D02*
X141630057Y-97547035D01*
X141630057Y-97547035D02*
X141725295Y-97499416D01*
X141725295Y-97499416D02*
X141868152Y-97499416D01*
X141868152Y-97499416D02*
X141963390Y-97547035D01*
X141963390Y-97547035D02*
X142011009Y-97594654D01*
X142011009Y-97594654D02*
X142058628Y-97689892D01*
X142058628Y-97689892D02*
X142058628Y-98070844D01*
X141534819Y-96642273D02*
X141534819Y-96832749D01*
X141534819Y-96832749D02*
X141582438Y-96927987D01*
X141582438Y-96927987D02*
X141630057Y-96975606D01*
X141630057Y-96975606D02*
X141772914Y-97070844D01*
X141772914Y-97070844D02*
X141963390Y-97118463D01*
X141963390Y-97118463D02*
X142344342Y-97118463D01*
X142344342Y-97118463D02*
X142439580Y-97070844D01*
X142439580Y-97070844D02*
X142487200Y-97023225D01*
X142487200Y-97023225D02*
X142534819Y-96927987D01*
X142534819Y-96927987D02*
X142534819Y-96737511D01*
X142534819Y-96737511D02*
X142487200Y-96642273D01*
X142487200Y-96642273D02*
X142439580Y-96594654D01*
X142439580Y-96594654D02*
X142344342Y-96547035D01*
X142344342Y-96547035D02*
X142106247Y-96547035D01*
X142106247Y-96547035D02*
X142011009Y-96594654D01*
X142011009Y-96594654D02*
X141963390Y-96642273D01*
X141963390Y-96642273D02*
X141915771Y-96737511D01*
X141915771Y-96737511D02*
X141915771Y-96927987D01*
X141915771Y-96927987D02*
X141963390Y-97023225D01*
X141963390Y-97023225D02*
X142011009Y-97070844D01*
X142011009Y-97070844D02*
X142106247Y-97118463D01*
X166520905Y-107134819D02*
X166520905Y-106134819D01*
X166520905Y-106134819D02*
X166759000Y-106134819D01*
X166759000Y-106134819D02*
X166901857Y-106182438D01*
X166901857Y-106182438D02*
X166997095Y-106277676D01*
X166997095Y-106277676D02*
X167044714Y-106372914D01*
X167044714Y-106372914D02*
X167092333Y-106563390D01*
X167092333Y-106563390D02*
X167092333Y-106706247D01*
X167092333Y-106706247D02*
X167044714Y-106896723D01*
X167044714Y-106896723D02*
X166997095Y-106991961D01*
X166997095Y-106991961D02*
X166901857Y-107087200D01*
X166901857Y-107087200D02*
X166759000Y-107134819D01*
X166759000Y-107134819D02*
X166520905Y-107134819D01*
X167473286Y-106230057D02*
X167520905Y-106182438D01*
X167520905Y-106182438D02*
X167616143Y-106134819D01*
X167616143Y-106134819D02*
X167854238Y-106134819D01*
X167854238Y-106134819D02*
X167949476Y-106182438D01*
X167949476Y-106182438D02*
X167997095Y-106230057D01*
X167997095Y-106230057D02*
X168044714Y-106325295D01*
X168044714Y-106325295D02*
X168044714Y-106420533D01*
X168044714Y-106420533D02*
X167997095Y-106563390D01*
X167997095Y-106563390D02*
X167425667Y-107134819D01*
X167425667Y-107134819D02*
X168044714Y-107134819D01*
X144742819Y-99821904D02*
X145552342Y-99821904D01*
X145552342Y-99821904D02*
X145647580Y-99774285D01*
X145647580Y-99774285D02*
X145695200Y-99726666D01*
X145695200Y-99726666D02*
X145742819Y-99631428D01*
X145742819Y-99631428D02*
X145742819Y-99440952D01*
X145742819Y-99440952D02*
X145695200Y-99345714D01*
X145695200Y-99345714D02*
X145647580Y-99298095D01*
X145647580Y-99298095D02*
X145552342Y-99250476D01*
X145552342Y-99250476D02*
X144742819Y-99250476D01*
X144742819Y-98869523D02*
X144742819Y-98250476D01*
X144742819Y-98250476D02*
X145123771Y-98583809D01*
X145123771Y-98583809D02*
X145123771Y-98440952D01*
X145123771Y-98440952D02*
X145171390Y-98345714D01*
X145171390Y-98345714D02*
X145219009Y-98298095D01*
X145219009Y-98298095D02*
X145314247Y-98250476D01*
X145314247Y-98250476D02*
X145552342Y-98250476D01*
X145552342Y-98250476D02*
X145647580Y-98298095D01*
X145647580Y-98298095D02*
X145695200Y-98345714D01*
X145695200Y-98345714D02*
X145742819Y-98440952D01*
X145742819Y-98440952D02*
X145742819Y-98726666D01*
X145742819Y-98726666D02*
X145695200Y-98821904D01*
X145695200Y-98821904D02*
X145647580Y-98869523D01*
X166520905Y-92021819D02*
X166520905Y-91021819D01*
X166520905Y-91021819D02*
X166759000Y-91021819D01*
X166759000Y-91021819D02*
X166901857Y-91069438D01*
X166901857Y-91069438D02*
X166997095Y-91164676D01*
X166997095Y-91164676D02*
X167044714Y-91259914D01*
X167044714Y-91259914D02*
X167092333Y-91450390D01*
X167092333Y-91450390D02*
X167092333Y-91593247D01*
X167092333Y-91593247D02*
X167044714Y-91783723D01*
X167044714Y-91783723D02*
X166997095Y-91878961D01*
X166997095Y-91878961D02*
X166901857Y-91974200D01*
X166901857Y-91974200D02*
X166759000Y-92021819D01*
X166759000Y-92021819D02*
X166520905Y-92021819D01*
X168044714Y-92021819D02*
X167473286Y-92021819D01*
X167759000Y-92021819D02*
X167759000Y-91021819D01*
X167759000Y-91021819D02*
X167663762Y-91164676D01*
X167663762Y-91164676D02*
X167568524Y-91259914D01*
X167568524Y-91259914D02*
X167473286Y-91307533D01*
X127468333Y-107388819D02*
X127135000Y-106912628D01*
X126896905Y-107388819D02*
X126896905Y-106388819D01*
X126896905Y-106388819D02*
X127277857Y-106388819D01*
X127277857Y-106388819D02*
X127373095Y-106436438D01*
X127373095Y-106436438D02*
X127420714Y-106484057D01*
X127420714Y-106484057D02*
X127468333Y-106579295D01*
X127468333Y-106579295D02*
X127468333Y-106722152D01*
X127468333Y-106722152D02*
X127420714Y-106817390D01*
X127420714Y-106817390D02*
X127373095Y-106865009D01*
X127373095Y-106865009D02*
X127277857Y-106912628D01*
X127277857Y-106912628D02*
X126896905Y-106912628D01*
X127801667Y-106388819D02*
X128420714Y-106388819D01*
X128420714Y-106388819D02*
X128087381Y-106769771D01*
X128087381Y-106769771D02*
X128230238Y-106769771D01*
X128230238Y-106769771D02*
X128325476Y-106817390D01*
X128325476Y-106817390D02*
X128373095Y-106865009D01*
X128373095Y-106865009D02*
X128420714Y-106960247D01*
X128420714Y-106960247D02*
X128420714Y-107198342D01*
X128420714Y-107198342D02*
X128373095Y-107293580D01*
X128373095Y-107293580D02*
X128325476Y-107341200D01*
X128325476Y-107341200D02*
X128230238Y-107388819D01*
X128230238Y-107388819D02*
X127944524Y-107388819D01*
X127944524Y-107388819D02*
X127849286Y-107341200D01*
X127849286Y-107341200D02*
X127801667Y-107293580D01*
X122134333Y-107388819D02*
X121801000Y-106912628D01*
X121562905Y-107388819D02*
X121562905Y-106388819D01*
X121562905Y-106388819D02*
X121943857Y-106388819D01*
X121943857Y-106388819D02*
X122039095Y-106436438D01*
X122039095Y-106436438D02*
X122086714Y-106484057D01*
X122086714Y-106484057D02*
X122134333Y-106579295D01*
X122134333Y-106579295D02*
X122134333Y-106722152D01*
X122134333Y-106722152D02*
X122086714Y-106817390D01*
X122086714Y-106817390D02*
X122039095Y-106865009D01*
X122039095Y-106865009D02*
X121943857Y-106912628D01*
X121943857Y-106912628D02*
X121562905Y-106912628D01*
X122515286Y-106484057D02*
X122562905Y-106436438D01*
X122562905Y-106436438D02*
X122658143Y-106388819D01*
X122658143Y-106388819D02*
X122896238Y-106388819D01*
X122896238Y-106388819D02*
X122991476Y-106436438D01*
X122991476Y-106436438D02*
X123039095Y-106484057D01*
X123039095Y-106484057D02*
X123086714Y-106579295D01*
X123086714Y-106579295D02*
X123086714Y-106674533D01*
X123086714Y-106674533D02*
X123039095Y-106817390D01*
X123039095Y-106817390D02*
X122467667Y-107388819D01*
X122467667Y-107388819D02*
X123086714Y-107388819D01*
D14*
%TO.C,R7*%
X143000000Y-100543529D02*
X143000000Y-100217971D01*
X144020000Y-100543529D02*
X144020000Y-100217971D01*
%TO.C,R8*%
X159730221Y-101090000D02*
X160055779Y-101090000D01*
X159730221Y-102110000D02*
X160055779Y-102110000D01*
%TO.C,J1*%
X107438000Y-95987000D02*
X99819000Y-95987000D01*
X107438000Y-98307000D02*
X99819000Y-98307000D01*
X107438000Y-100023000D02*
X99819000Y-100023000D01*
X107438000Y-102343000D02*
X99819000Y-102343000D01*
%TO.C,R1*%
X114365721Y-106424000D02*
X114691279Y-106424000D01*
X114365721Y-107444000D02*
X114691279Y-107444000D01*
%TO.C,C2*%
X120140000Y-109590721D02*
X120140000Y-109916279D01*
X121160000Y-109590721D02*
X121160000Y-109916279D01*
%TO.C,R9*%
X159730221Y-96010000D02*
X160055779Y-96010000D01*
X159730221Y-97030000D02*
X160055779Y-97030000D01*
%TO.C,C3*%
X125474000Y-109590721D02*
X125474000Y-109916279D01*
X126494000Y-109590721D02*
X126494000Y-109916279D01*
%TO.C,C1*%
X114806000Y-109590721D02*
X114806000Y-109916279D01*
X115826000Y-109590721D02*
X115826000Y-109916279D01*
%TO.C,R11*%
X158621000Y-92745779D02*
X158621000Y-92420221D01*
X159641000Y-92745779D02*
X159641000Y-92420221D01*
%TO.C,R4*%
X119496721Y-90041000D02*
X119822279Y-90041000D01*
X119496721Y-91061000D02*
X119822279Y-91061000D01*
%TO.C,R10*%
X158621000Y-105374221D02*
X158621000Y-105699779D01*
X159641000Y-105374221D02*
X159641000Y-105699779D01*
%TO.C,U1*%
X115002000Y-96410000D02*
X115002000Y-98060000D01*
X115002000Y-100060000D02*
X115002000Y-101710000D01*
X115002000Y-101710000D02*
X125282000Y-101710000D01*
X125282000Y-96410000D02*
X115002000Y-96410000D01*
X125282000Y-101710000D02*
X125282000Y-96410000D01*
X115002000Y-98060000D02*
G75*
G02*
X115002000Y-100060000I0J-1000000D01*
G01*
%TO.C,U2*%
X130496000Y-96410000D02*
X130496000Y-98060000D01*
X130496000Y-100060000D02*
X130496000Y-101710000D01*
X130496000Y-101710000D02*
X140776000Y-101710000D01*
X140776000Y-96410000D02*
X130496000Y-96410000D01*
X140776000Y-101710000D02*
X140776000Y-96410000D01*
X130496000Y-98060000D02*
G75*
G02*
X130496000Y-100060000I0J-1000000D01*
G01*
%TO.C,R5*%
X119822279Y-91819000D02*
X119496721Y-91819000D01*
X119822279Y-92839000D02*
X119496721Y-92839000D01*
%TO.C,R6*%
X143000000Y-97495529D02*
X143000000Y-97169971D01*
X144020000Y-97495529D02*
X144020000Y-97169971D01*
%TO.C,D2*%
X169824000Y-104415000D02*
X169824000Y-101325000D01*
X164274000Y-102870462D02*
G75*
G02*
X169824000Y-101325170I2990000J462D01*
G01*
X169823999Y-104414830D02*
G75*
G02*
X164274001Y-102869538I-2559999J1544830D01*
G01*
X169764000Y-102870000D02*
G75*
G02*
X164764000Y-102870000I-2500000J0D01*
G01*
X164764000Y-102870000D02*
G75*
G02*
X169764000Y-102870000I2500000J0D01*
G01*
%TO.C,U3*%
X145990000Y-96410000D02*
X145990000Y-98060000D01*
X145990000Y-100060000D02*
X145990000Y-101710000D01*
X145990000Y-101710000D02*
X156270000Y-101710000D01*
X156270000Y-96410000D02*
X145990000Y-96410000D01*
X156270000Y-101710000D02*
X156270000Y-96410000D01*
X145990000Y-98060000D02*
G75*
G02*
X145990000Y-100060000I0J-1000000D01*
G01*
%TO.C,D1*%
X169824000Y-96795000D02*
X169824000Y-93705000D01*
X164274000Y-95250462D02*
G75*
G02*
X169824000Y-93705170I2990000J462D01*
G01*
X169823999Y-96794830D02*
G75*
G02*
X164274001Y-95249538I-2559999J1544830D01*
G01*
X169764000Y-95250000D02*
G75*
G02*
X164764000Y-95250000I-2500000J0D01*
G01*
X164764000Y-95250000D02*
G75*
G02*
X169764000Y-95250000I2500000J0D01*
G01*
%TO.C,R3*%
X125033721Y-106424000D02*
X125359279Y-106424000D01*
X125033721Y-107444000D02*
X125359279Y-107444000D01*
D15*
%TO.C,G\u002A\u002A\u002A*%
X102878771Y-110501798D02*
X103321421Y-110554371D01*
X103750400Y-110653592D01*
X104162665Y-110797671D01*
X104555175Y-110984816D01*
X104924888Y-111213237D01*
X105268763Y-111481143D01*
X105583758Y-111786743D01*
X105866831Y-112128247D01*
X106114940Y-112503863D01*
X106247204Y-112747748D01*
X106299027Y-112860881D01*
X106357461Y-113003854D01*
X106417455Y-113162613D01*
X106473958Y-113323108D01*
X106521920Y-113471289D01*
X106556290Y-113593102D01*
X106565504Y-113633250D01*
X106582436Y-113715800D01*
X102946200Y-113715800D01*
X102946200Y-113920953D01*
X102944918Y-114024810D01*
X102938506Y-114092368D01*
X102923116Y-114138115D01*
X102894897Y-114176535D01*
X102871953Y-114200353D01*
X102811380Y-114249701D01*
X102745841Y-114271024D01*
X102679500Y-114274600D01*
X102593882Y-114267549D01*
X102532162Y-114239776D01*
X102487046Y-114200353D01*
X102449923Y-114159690D01*
X102427794Y-114119845D01*
X102416808Y-114066332D01*
X102413116Y-113984667D01*
X102412800Y-113920953D01*
X102412800Y-113715800D01*
X98647107Y-113715800D01*
X98663185Y-113615250D01*
X98692450Y-113485919D01*
X98742374Y-113324375D01*
X98808551Y-113142593D01*
X98886578Y-112952546D01*
X98972048Y-112766209D01*
X98985941Y-112737900D01*
X99207703Y-112346147D01*
X99467533Y-111986158D01*
X99762305Y-111659968D01*
X100088892Y-111369613D01*
X100444168Y-111117129D01*
X100825007Y-110904553D01*
X101228283Y-110733920D01*
X101650870Y-110607267D01*
X102089641Y-110526631D01*
X102425491Y-110497665D01*
X102878771Y-110501798D01*
G36*
X102878771Y-110501798D02*
G01*
X103321421Y-110554371D01*
X103750400Y-110653592D01*
X104162665Y-110797671D01*
X104555175Y-110984816D01*
X104924888Y-111213237D01*
X105268763Y-111481143D01*
X105583758Y-111786743D01*
X105866831Y-112128247D01*
X106114940Y-112503863D01*
X106247204Y-112747748D01*
X106299027Y-112860881D01*
X106357461Y-113003854D01*
X106417455Y-113162613D01*
X106473958Y-113323108D01*
X106521920Y-113471289D01*
X106556290Y-113593102D01*
X106565504Y-113633250D01*
X106582436Y-113715800D01*
X102946200Y-113715800D01*
X102946200Y-113920953D01*
X102944918Y-114024810D01*
X102938506Y-114092368D01*
X102923116Y-114138115D01*
X102894897Y-114176535D01*
X102871953Y-114200353D01*
X102811380Y-114249701D01*
X102745841Y-114271024D01*
X102679500Y-114274600D01*
X102593882Y-114267549D01*
X102532162Y-114239776D01*
X102487046Y-114200353D01*
X102449923Y-114159690D01*
X102427794Y-114119845D01*
X102416808Y-114066332D01*
X102413116Y-113984667D01*
X102412800Y-113920953D01*
X102412800Y-113715800D01*
X98647107Y-113715800D01*
X98663185Y-113615250D01*
X98692450Y-113485919D01*
X98742374Y-113324375D01*
X98808551Y-113142593D01*
X98886578Y-112952546D01*
X98972048Y-112766209D01*
X98985941Y-112737900D01*
X99207703Y-112346147D01*
X99467533Y-111986158D01*
X99762305Y-111659968D01*
X100088892Y-111369613D01*
X100444168Y-111117129D01*
X100825007Y-110904553D01*
X101228283Y-110733920D01*
X101650870Y-110607267D01*
X102089641Y-110526631D01*
X102425491Y-110497665D01*
X102878771Y-110501798D01*
G37*
X101928254Y-114415867D02*
X102039313Y-114573044D01*
X102186014Y-114701184D01*
X102358963Y-114794747D01*
X102548762Y-114848192D01*
X102679500Y-114858799D01*
X102875298Y-114835055D01*
X103060484Y-114767514D01*
X103225663Y-114661718D01*
X103361439Y-114523205D01*
X103430745Y-114415867D01*
X103492212Y-114300000D01*
X106680000Y-114300000D01*
X106680000Y-114514903D01*
X106655376Y-114972304D01*
X106582612Y-115416833D01*
X106463367Y-115845653D01*
X106299299Y-116255925D01*
X106092067Y-116644811D01*
X105843330Y-117009473D01*
X105554747Y-117347073D01*
X105227977Y-117654772D01*
X104864678Y-117929731D01*
X104581114Y-118106008D01*
X104222626Y-118283115D01*
X103835651Y-118424227D01*
X103429287Y-118527528D01*
X103012627Y-118591202D01*
X102594769Y-118613435D01*
X102184808Y-118592410D01*
X102158800Y-118589520D01*
X101749680Y-118523261D01*
X101363431Y-118419315D01*
X100985087Y-118273235D01*
X100799900Y-118185851D01*
X100409308Y-117963108D01*
X100047786Y-117700098D01*
X99718186Y-117400067D01*
X99423362Y-117066259D01*
X99166166Y-116701922D01*
X98949453Y-116310299D01*
X98776076Y-115894638D01*
X98769719Y-115876513D01*
X98768124Y-115871503D01*
X99700024Y-115871503D01*
X99711117Y-115927677D01*
X99731091Y-115988499D01*
X99787873Y-116123539D01*
X99871601Y-116283124D01*
X99974750Y-116454484D01*
X100089795Y-116624846D01*
X100167420Y-116729038D01*
X100421967Y-117015546D01*
X100712492Y-117269053D01*
X101034002Y-117486587D01*
X101381501Y-117665176D01*
X101749995Y-117801849D01*
X102120700Y-117891191D01*
X102294798Y-117913542D01*
X102500458Y-117925959D01*
X102719413Y-117928405D01*
X102933398Y-117920845D01*
X103124147Y-117903244D01*
X103190522Y-117893269D01*
X103587151Y-117799976D01*
X103962186Y-117661145D01*
X104313782Y-117477715D01*
X104640093Y-117250629D01*
X104897962Y-117022249D01*
X105122897Y-116779464D01*
X105310792Y-116527261D01*
X105474671Y-116247607D01*
X105515250Y-116167574D01*
X105572790Y-116046632D01*
X105608205Y-115959916D01*
X105624710Y-115897618D01*
X105625516Y-115849935D01*
X105623340Y-115837746D01*
X105576740Y-115719049D01*
X105498031Y-115639688D01*
X105387780Y-115600122D01*
X105323330Y-115595400D01*
X105233523Y-115613041D01*
X105154622Y-115669056D01*
X105081555Y-115768080D01*
X105033618Y-115860199D01*
X104861984Y-116168764D01*
X104651976Y-116447663D01*
X104408128Y-116694326D01*
X104134974Y-116906182D01*
X103837047Y-117080659D01*
X103518882Y-117215187D01*
X103185014Y-117307194D01*
X102839975Y-117354109D01*
X102488301Y-117353361D01*
X102412169Y-117346717D01*
X102063947Y-117290170D01*
X101741059Y-117193089D01*
X101434389Y-117052272D01*
X101237082Y-116934239D01*
X100958075Y-116726334D01*
X100716128Y-116489852D01*
X100506044Y-116218967D01*
X100323626Y-115909785D01*
X100260125Y-115789847D01*
X100210761Y-115707833D01*
X100167907Y-115655764D01*
X100123934Y-115625662D01*
X100071215Y-115609551D01*
X100030329Y-115603026D01*
X99910220Y-115609625D01*
X99810498Y-115661695D01*
X99737090Y-115756010D01*
X99732605Y-115765130D01*
X99707137Y-115824627D01*
X99700024Y-115871503D01*
X98768124Y-115871503D01*
X98689830Y-115625608D01*
X98631719Y-115388800D01*
X98630134Y-115379155D01*
X101093900Y-115379155D01*
X101109186Y-115504725D01*
X101152787Y-115615294D01*
X101232405Y-115752185D01*
X101331735Y-115893474D01*
X101438252Y-116022880D01*
X101539434Y-116124124D01*
X101553058Y-116135614D01*
X101802797Y-116310169D01*
X102067121Y-116437922D01*
X102342387Y-116518016D01*
X102624952Y-116549598D01*
X102911172Y-116531810D01*
X103087756Y-116495901D01*
X103357566Y-116400545D01*
X103606862Y-116261039D01*
X103830092Y-116081781D01*
X104021705Y-115867167D01*
X104165094Y-115642644D01*
X104221832Y-115501556D01*
X104235876Y-115375382D01*
X104208429Y-115268874D01*
X104140693Y-115186780D01*
X104036585Y-115134655D01*
X103932450Y-115120634D01*
X103840558Y-115147646D01*
X103755937Y-115218712D01*
X103673614Y-115336856D01*
X103657874Y-115364781D01*
X103521844Y-115564513D01*
X103356405Y-115726741D01*
X103167360Y-115849557D01*
X102960514Y-115931057D01*
X102741673Y-115969333D01*
X102516641Y-115962480D01*
X102291222Y-115908593D01*
X102163445Y-115855452D01*
X102022084Y-115766872D01*
X101882002Y-115644015D01*
X101757851Y-115501611D01*
X101664283Y-115354392D01*
X101663500Y-115352842D01*
X101582831Y-115226932D01*
X101492023Y-115150293D01*
X101389803Y-115122174D01*
X101294081Y-115135534D01*
X101187884Y-115189342D01*
X101120645Y-115272288D01*
X101093900Y-115379155D01*
X98630134Y-115379155D01*
X98592182Y-115148333D01*
X98568013Y-114886454D01*
X98559593Y-114712750D01*
X98544885Y-114300000D01*
X101866787Y-114300000D01*
X101928254Y-114415867D01*
G36*
X101928254Y-114415867D02*
G01*
X102039313Y-114573044D01*
X102186014Y-114701184D01*
X102358963Y-114794747D01*
X102548762Y-114848192D01*
X102679500Y-114858799D01*
X102875298Y-114835055D01*
X103060484Y-114767514D01*
X103225663Y-114661718D01*
X103361439Y-114523205D01*
X103430745Y-114415867D01*
X103492212Y-114300000D01*
X106680000Y-114300000D01*
X106680000Y-114514903D01*
X106655376Y-114972304D01*
X106582612Y-115416833D01*
X106463367Y-115845653D01*
X106299299Y-116255925D01*
X106092067Y-116644811D01*
X105843330Y-117009473D01*
X105554747Y-117347073D01*
X105227977Y-117654772D01*
X104864678Y-117929731D01*
X104581114Y-118106008D01*
X104222626Y-118283115D01*
X103835651Y-118424227D01*
X103429287Y-118527528D01*
X103012627Y-118591202D01*
X102594769Y-118613435D01*
X102184808Y-118592410D01*
X102158800Y-118589520D01*
X101749680Y-118523261D01*
X101363431Y-118419315D01*
X100985087Y-118273235D01*
X100799900Y-118185851D01*
X100409308Y-117963108D01*
X100047786Y-117700098D01*
X99718186Y-117400067D01*
X99423362Y-117066259D01*
X99166166Y-116701922D01*
X98949453Y-116310299D01*
X98776076Y-115894638D01*
X98769719Y-115876513D01*
X98768124Y-115871503D01*
X99700024Y-115871503D01*
X99711117Y-115927677D01*
X99731091Y-115988499D01*
X99787873Y-116123539D01*
X99871601Y-116283124D01*
X99974750Y-116454484D01*
X100089795Y-116624846D01*
X100167420Y-116729038D01*
X100421967Y-117015546D01*
X100712492Y-117269053D01*
X101034002Y-117486587D01*
X101381501Y-117665176D01*
X101749995Y-117801849D01*
X102120700Y-117891191D01*
X102294798Y-117913542D01*
X102500458Y-117925959D01*
X102719413Y-117928405D01*
X102933398Y-117920845D01*
X103124147Y-117903244D01*
X103190522Y-117893269D01*
X103587151Y-117799976D01*
X103962186Y-117661145D01*
X104313782Y-117477715D01*
X104640093Y-117250629D01*
X104897962Y-117022249D01*
X105122897Y-116779464D01*
X105310792Y-116527261D01*
X105474671Y-116247607D01*
X105515250Y-116167574D01*
X105572790Y-116046632D01*
X105608205Y-115959916D01*
X105624710Y-115897618D01*
X105625516Y-115849935D01*
X105623340Y-115837746D01*
X105576740Y-115719049D01*
X105498031Y-115639688D01*
X105387780Y-115600122D01*
X105323330Y-115595400D01*
X105233523Y-115613041D01*
X105154622Y-115669056D01*
X105081555Y-115768080D01*
X105033618Y-115860199D01*
X104861984Y-116168764D01*
X104651976Y-116447663D01*
X104408128Y-116694326D01*
X104134974Y-116906182D01*
X103837047Y-117080659D01*
X103518882Y-117215187D01*
X103185014Y-117307194D01*
X102839975Y-117354109D01*
X102488301Y-117353361D01*
X102412169Y-117346717D01*
X102063947Y-117290170D01*
X101741059Y-117193089D01*
X101434389Y-117052272D01*
X101237082Y-116934239D01*
X100958075Y-116726334D01*
X100716128Y-116489852D01*
X100506044Y-116218967D01*
X100323626Y-115909785D01*
X100260125Y-115789847D01*
X100210761Y-115707833D01*
X100167907Y-115655764D01*
X100123934Y-115625662D01*
X100071215Y-115609551D01*
X100030329Y-115603026D01*
X99910220Y-115609625D01*
X99810498Y-115661695D01*
X99737090Y-115756010D01*
X99732605Y-115765130D01*
X99707137Y-115824627D01*
X99700024Y-115871503D01*
X98768124Y-115871503D01*
X98689830Y-115625608D01*
X98631719Y-115388800D01*
X98630134Y-115379155D01*
X101093900Y-115379155D01*
X101109186Y-115504725D01*
X101152787Y-115615294D01*
X101232405Y-115752185D01*
X101331735Y-115893474D01*
X101438252Y-116022880D01*
X101539434Y-116124124D01*
X101553058Y-116135614D01*
X101802797Y-116310169D01*
X102067121Y-116437922D01*
X102342387Y-116518016D01*
X102624952Y-116549598D01*
X102911172Y-116531810D01*
X103087756Y-116495901D01*
X103357566Y-116400545D01*
X103606862Y-116261039D01*
X103830092Y-116081781D01*
X104021705Y-115867167D01*
X104165094Y-115642644D01*
X104221832Y-115501556D01*
X104235876Y-115375382D01*
X104208429Y-115268874D01*
X104140693Y-115186780D01*
X104036585Y-115134655D01*
X103932450Y-115120634D01*
X103840558Y-115147646D01*
X103755937Y-115218712D01*
X103673614Y-115336856D01*
X103657874Y-115364781D01*
X103521844Y-115564513D01*
X103356405Y-115726741D01*
X103167360Y-115849557D01*
X102960514Y-115931057D01*
X102741673Y-115969333D01*
X102516641Y-115962480D01*
X102291222Y-115908593D01*
X102163445Y-115855452D01*
X102022084Y-115766872D01*
X101882002Y-115644015D01*
X101757851Y-115501611D01*
X101664283Y-115354392D01*
X101663500Y-115352842D01*
X101582831Y-115226932D01*
X101492023Y-115150293D01*
X101389803Y-115122174D01*
X101294081Y-115135534D01*
X101187884Y-115189342D01*
X101120645Y-115272288D01*
X101093900Y-115379155D01*
X98630134Y-115379155D01*
X98592182Y-115148333D01*
X98568013Y-114886454D01*
X98559593Y-114712750D01*
X98544885Y-114300000D01*
X101866787Y-114300000D01*
X101928254Y-114415867D01*
G37*
D14*
%TO.C,R2*%
X119699721Y-106424000D02*
X120025279Y-106424000D01*
X119699721Y-107444000D02*
X120025279Y-107444000D01*
%TD*%
G36*
X166375395Y-110490472D02*
G01*
X166579724Y-110508348D01*
X166601011Y-110512101D01*
X166793887Y-110563782D01*
X166814198Y-110571175D01*
X166995165Y-110655562D01*
X167013883Y-110666369D01*
X167177456Y-110780904D01*
X167194014Y-110794798D01*
X167335201Y-110935985D01*
X167349095Y-110952543D01*
X167463630Y-111116116D01*
X167474437Y-111134834D01*
X167558824Y-111315801D01*
X167566217Y-111336112D01*
X167617898Y-111528988D01*
X167621651Y-111550274D01*
X167639528Y-111754603D01*
X167640000Y-111765411D01*
X167640000Y-115564588D01*
X167639528Y-115575396D01*
X167621651Y-115779725D01*
X167617898Y-115801011D01*
X167566217Y-115993887D01*
X167558824Y-116014198D01*
X167474437Y-116195165D01*
X167463630Y-116213883D01*
X167349095Y-116377456D01*
X167335201Y-116394014D01*
X167194014Y-116535201D01*
X167177456Y-116549095D01*
X167013883Y-116663630D01*
X166995165Y-116674437D01*
X166814198Y-116758824D01*
X166793887Y-116766217D01*
X166601011Y-116817898D01*
X166579725Y-116821651D01*
X166375396Y-116839528D01*
X166364588Y-116840000D01*
X149865412Y-116840000D01*
X149854604Y-116839528D01*
X149650274Y-116821651D01*
X149628988Y-116817898D01*
X149436112Y-116766217D01*
X149415801Y-116758824D01*
X149234834Y-116674437D01*
X149216116Y-116663630D01*
X149052543Y-116549095D01*
X149035985Y-116535201D01*
X148894798Y-116394014D01*
X148880904Y-116377456D01*
X148766369Y-116213883D01*
X148755562Y-116195165D01*
X148671175Y-116014198D01*
X148663782Y-115993887D01*
X148612101Y-115801011D01*
X148608348Y-115779724D01*
X148590472Y-115575395D01*
X148590000Y-115564588D01*
X148590000Y-111765411D01*
X148590472Y-111754604D01*
X148608348Y-111550275D01*
X148612101Y-111528988D01*
X148663782Y-111336112D01*
X148671175Y-111315801D01*
X148755562Y-111134834D01*
X148766369Y-111116116D01*
X148880904Y-110952543D01*
X148894798Y-110935985D01*
X149035985Y-110794798D01*
X149052543Y-110780904D01*
X149216116Y-110666369D01*
X149234834Y-110655562D01*
X149415801Y-110571175D01*
X149436112Y-110563782D01*
X149628988Y-110512101D01*
X149650275Y-110508348D01*
X149854605Y-110490472D01*
X149865412Y-110490000D01*
X166364588Y-110490000D01*
X166375395Y-110490472D01*
G37*
M02*
