%TF.GenerationSoftware,KiCad,Pcbnew,9.0.1*%
%TF.CreationDate,2025-05-15T12:04:48-05:00*%
%TF.ProjectId,Waveform_Blinky,57617665-666f-4726-9d5f-426c696e6b79,1.1*%
%TF.SameCoordinates,Original*%
%TF.FileFunction,Legend,Bot*%
%TF.FilePolarity,Positive*%
%FSLAX46Y46*%
G04 Gerber Fmt 4.6, Leading zero omitted, Abs format (unit mm)*
G04 Created by KiCad (PCBNEW 9.0.1) date 2025-05-15 12:04:48*
%MOMM*%
%LPD*%
G01*
G04 APERTURE LIST*
%ADD10C,0.222250*%
%ADD11C,0.120000*%
G04 APERTURE END LIST*
D10*
X138176001Y-117413092D02*
X137625667Y-117413092D01*
X137625667Y-117413092D02*
X137922001Y-117751759D01*
X137922001Y-117751759D02*
X137795001Y-117751759D01*
X137795001Y-117751759D02*
X137710334Y-117794092D01*
X137710334Y-117794092D02*
X137668001Y-117836425D01*
X137668001Y-117836425D02*
X137625667Y-117921092D01*
X137625667Y-117921092D02*
X137625667Y-118132759D01*
X137625667Y-118132759D02*
X137668001Y-118217425D01*
X137668001Y-118217425D02*
X137710334Y-118259759D01*
X137710334Y-118259759D02*
X137795001Y-118302092D01*
X137795001Y-118302092D02*
X138049001Y-118302092D01*
X138049001Y-118302092D02*
X138133667Y-118259759D01*
X138133667Y-118259759D02*
X138176001Y-118217425D01*
X137244667Y-117963425D02*
X136567334Y-117963425D01*
X135974667Y-117413092D02*
X135890000Y-117413092D01*
X135890000Y-117413092D02*
X135805333Y-117455425D01*
X135805333Y-117455425D02*
X135763000Y-117497759D01*
X135763000Y-117497759D02*
X135720667Y-117582425D01*
X135720667Y-117582425D02*
X135678333Y-117751759D01*
X135678333Y-117751759D02*
X135678333Y-117963425D01*
X135678333Y-117963425D02*
X135720667Y-118132759D01*
X135720667Y-118132759D02*
X135763000Y-118217425D01*
X135763000Y-118217425D02*
X135805333Y-118259759D01*
X135805333Y-118259759D02*
X135890000Y-118302092D01*
X135890000Y-118302092D02*
X135974667Y-118302092D01*
X135974667Y-118302092D02*
X136059333Y-118259759D01*
X136059333Y-118259759D02*
X136101667Y-118217425D01*
X136101667Y-118217425D02*
X136144000Y-118132759D01*
X136144000Y-118132759D02*
X136186333Y-117963425D01*
X136186333Y-117963425D02*
X136186333Y-117751759D01*
X136186333Y-117751759D02*
X136144000Y-117582425D01*
X136144000Y-117582425D02*
X136101667Y-117497759D01*
X136101667Y-117497759D02*
X136059333Y-117455425D01*
X136059333Y-117455425D02*
X135974667Y-117413092D01*
X135128000Y-117413092D02*
X135043333Y-117413092D01*
X135043333Y-117413092D02*
X134958666Y-117455425D01*
X134958666Y-117455425D02*
X134916333Y-117497759D01*
X134916333Y-117497759D02*
X134874000Y-117582425D01*
X134874000Y-117582425D02*
X134831666Y-117751759D01*
X134831666Y-117751759D02*
X134831666Y-117963425D01*
X134831666Y-117963425D02*
X134874000Y-118132759D01*
X134874000Y-118132759D02*
X134916333Y-118217425D01*
X134916333Y-118217425D02*
X134958666Y-118259759D01*
X134958666Y-118259759D02*
X135043333Y-118302092D01*
X135043333Y-118302092D02*
X135128000Y-118302092D01*
X135128000Y-118302092D02*
X135212666Y-118259759D01*
X135212666Y-118259759D02*
X135255000Y-118217425D01*
X135255000Y-118217425D02*
X135297333Y-118132759D01*
X135297333Y-118132759D02*
X135339666Y-117963425D01*
X135339666Y-117963425D02*
X135339666Y-117751759D01*
X135339666Y-117751759D02*
X135297333Y-117582425D01*
X135297333Y-117582425D02*
X135255000Y-117497759D01*
X135255000Y-117497759D02*
X135212666Y-117455425D01*
X135212666Y-117455425D02*
X135128000Y-117413092D01*
X134281333Y-117413092D02*
X134196666Y-117413092D01*
X134196666Y-117413092D02*
X134111999Y-117455425D01*
X134111999Y-117455425D02*
X134069666Y-117497759D01*
X134069666Y-117497759D02*
X134027333Y-117582425D01*
X134027333Y-117582425D02*
X133984999Y-117751759D01*
X133984999Y-117751759D02*
X133984999Y-117963425D01*
X133984999Y-117963425D02*
X134027333Y-118132759D01*
X134027333Y-118132759D02*
X134069666Y-118217425D01*
X134069666Y-118217425D02*
X134111999Y-118259759D01*
X134111999Y-118259759D02*
X134196666Y-118302092D01*
X134196666Y-118302092D02*
X134281333Y-118302092D01*
X134281333Y-118302092D02*
X134365999Y-118259759D01*
X134365999Y-118259759D02*
X134408333Y-118217425D01*
X134408333Y-118217425D02*
X134450666Y-118132759D01*
X134450666Y-118132759D02*
X134492999Y-117963425D01*
X134492999Y-117963425D02*
X134492999Y-117751759D01*
X134492999Y-117751759D02*
X134450666Y-117582425D01*
X134450666Y-117582425D02*
X134408333Y-117497759D01*
X134408333Y-117497759D02*
X134365999Y-117455425D01*
X134365999Y-117455425D02*
X134281333Y-117413092D01*
X133434666Y-117413092D02*
X133349999Y-117413092D01*
X133349999Y-117413092D02*
X133265332Y-117455425D01*
X133265332Y-117455425D02*
X133222999Y-117497759D01*
X133222999Y-117497759D02*
X133180666Y-117582425D01*
X133180666Y-117582425D02*
X133138332Y-117751759D01*
X133138332Y-117751759D02*
X133138332Y-117963425D01*
X133138332Y-117963425D02*
X133180666Y-118132759D01*
X133180666Y-118132759D02*
X133222999Y-118217425D01*
X133222999Y-118217425D02*
X133265332Y-118259759D01*
X133265332Y-118259759D02*
X133349999Y-118302092D01*
X133349999Y-118302092D02*
X133434666Y-118302092D01*
X133434666Y-118302092D02*
X133519332Y-118259759D01*
X133519332Y-118259759D02*
X133561666Y-118217425D01*
X133561666Y-118217425D02*
X133603999Y-118132759D01*
X133603999Y-118132759D02*
X133646332Y-117963425D01*
X133646332Y-117963425D02*
X133646332Y-117751759D01*
X133646332Y-117751759D02*
X133603999Y-117582425D01*
X133603999Y-117582425D02*
X133561666Y-117497759D01*
X133561666Y-117497759D02*
X133519332Y-117455425D01*
X133519332Y-117455425D02*
X133434666Y-117413092D01*
X132799665Y-117497759D02*
X132757332Y-117455425D01*
X132757332Y-117455425D02*
X132672665Y-117413092D01*
X132672665Y-117413092D02*
X132460999Y-117413092D01*
X132460999Y-117413092D02*
X132376332Y-117455425D01*
X132376332Y-117455425D02*
X132333999Y-117497759D01*
X132333999Y-117497759D02*
X132291665Y-117582425D01*
X132291665Y-117582425D02*
X132291665Y-117667092D01*
X132291665Y-117667092D02*
X132333999Y-117794092D01*
X132333999Y-117794092D02*
X132841999Y-118302092D01*
X132841999Y-118302092D02*
X132291665Y-118302092D01*
X131529665Y-117709425D02*
X131529665Y-118302092D01*
X131741332Y-117370759D02*
X131952998Y-118005759D01*
X131952998Y-118005759D02*
X131402665Y-118005759D01*
X130682998Y-117413092D02*
X130852331Y-117413092D01*
X130852331Y-117413092D02*
X130936998Y-117455425D01*
X130936998Y-117455425D02*
X130979331Y-117497759D01*
X130979331Y-117497759D02*
X131063998Y-117624759D01*
X131063998Y-117624759D02*
X131106331Y-117794092D01*
X131106331Y-117794092D02*
X131106331Y-118132759D01*
X131106331Y-118132759D02*
X131063998Y-118217425D01*
X131063998Y-118217425D02*
X131021665Y-118259759D01*
X131021665Y-118259759D02*
X130936998Y-118302092D01*
X130936998Y-118302092D02*
X130767665Y-118302092D01*
X130767665Y-118302092D02*
X130682998Y-118259759D01*
X130682998Y-118259759D02*
X130640665Y-118217425D01*
X130640665Y-118217425D02*
X130598331Y-118132759D01*
X130598331Y-118132759D02*
X130598331Y-117921092D01*
X130598331Y-117921092D02*
X130640665Y-117836425D01*
X130640665Y-117836425D02*
X130682998Y-117794092D01*
X130682998Y-117794092D02*
X130767665Y-117751759D01*
X130767665Y-117751759D02*
X130936998Y-117751759D01*
X130936998Y-117751759D02*
X131021665Y-117794092D01*
X131021665Y-117794092D02*
X131063998Y-117836425D01*
X131063998Y-117836425D02*
X131106331Y-117921092D01*
X136207499Y-119733332D02*
X136503832Y-119309999D01*
X136715499Y-119733332D02*
X136715499Y-118844332D01*
X136715499Y-118844332D02*
X136376832Y-118844332D01*
X136376832Y-118844332D02*
X136292166Y-118886665D01*
X136292166Y-118886665D02*
X136249832Y-118928999D01*
X136249832Y-118928999D02*
X136207499Y-119013665D01*
X136207499Y-119013665D02*
X136207499Y-119140665D01*
X136207499Y-119140665D02*
X136249832Y-119225332D01*
X136249832Y-119225332D02*
X136292166Y-119267665D01*
X136292166Y-119267665D02*
X136376832Y-119309999D01*
X136376832Y-119309999D02*
X136715499Y-119309999D01*
X135487832Y-119690999D02*
X135572499Y-119733332D01*
X135572499Y-119733332D02*
X135741832Y-119733332D01*
X135741832Y-119733332D02*
X135826499Y-119690999D01*
X135826499Y-119690999D02*
X135868832Y-119606332D01*
X135868832Y-119606332D02*
X135868832Y-119267665D01*
X135868832Y-119267665D02*
X135826499Y-119182999D01*
X135826499Y-119182999D02*
X135741832Y-119140665D01*
X135741832Y-119140665D02*
X135572499Y-119140665D01*
X135572499Y-119140665D02*
X135487832Y-119182999D01*
X135487832Y-119182999D02*
X135445499Y-119267665D01*
X135445499Y-119267665D02*
X135445499Y-119352332D01*
X135445499Y-119352332D02*
X135868832Y-119436999D01*
X135149166Y-119140665D02*
X134937499Y-119733332D01*
X134937499Y-119733332D02*
X134725832Y-119140665D01*
X133244166Y-119733332D02*
X133752166Y-119733332D01*
X133498166Y-119733332D02*
X133498166Y-118844332D01*
X133498166Y-118844332D02*
X133582833Y-118971332D01*
X133582833Y-118971332D02*
X133667500Y-119055999D01*
X133667500Y-119055999D02*
X133752166Y-119098332D01*
X132863166Y-119648665D02*
X132820833Y-119690999D01*
X132820833Y-119690999D02*
X132863166Y-119733332D01*
X132863166Y-119733332D02*
X132905499Y-119690999D01*
X132905499Y-119690999D02*
X132863166Y-119648665D01*
X132863166Y-119648665D02*
X132863166Y-119733332D01*
X131974166Y-119733332D02*
X132482166Y-119733332D01*
X132228166Y-119733332D02*
X132228166Y-118844332D01*
X132228166Y-118844332D02*
X132312833Y-118971332D01*
X132312833Y-118971332D02*
X132397500Y-119055999D01*
X132397500Y-119055999D02*
X132482166Y-119098332D01*
D11*
%TO.C,TP1*%
X105496000Y-86700000D02*
X109896000Y-86700000D01*
X105496000Y-91100000D02*
X105496000Y-86700000D01*
X109896000Y-86700000D02*
X109896000Y-91100000D01*
X109896000Y-91100000D02*
X105496000Y-91100000D01*
%TD*%
M02*
