M48
; DRILL file {KiCad 9.0.1} date 2025-05-15T12:04:49-0500
; FORMAT={-:-/ absolute / inch / decimal}
; #@! TF.CreationDate,2025-05-15T12:04:49-05:00
; #@! TF.GenerationSoftware,Kicad,Pcbnew,9.0.1
; #@! TF.FileFunction,Plated,1,2,PTH
FMAT,2
INCH
; #@! TA.AperFunction,Plated,PTH,ViaDrill
T1C0.0100
; #@! TA.AperFunction,Plated,PTH,ComponentDrill
T2C0.0315
; #@! TA.AperFunction,Plated,PTH,ComponentDrill
T3C0.0354
; #@! TA.AperFunction,Plated,PTH,ComponentDrill
T4C0.0394
; #@! TA.AperFunction,Plated,PTH,ComponentDrill
T5C0.0433
%
G90
G05
T1
X4.12Y-3.5
X4.36Y-3.5
X4.605Y-4.35
X4.61Y-3.565
X4.81Y-4.35
X4.875Y-3.9
X5.025Y-3.9
X5.025Y-4.35
X5.65Y-3.67
X5.65Y-4.14
X6.205Y-4.185
X6.21Y-3.615
T2
X4.58Y-3.75
X4.58Y-4.05
X4.68Y-3.75
X4.68Y-4.05
X4.78Y-3.75
X4.78Y-4.05
X4.88Y-3.75
X4.88Y-4.05
X5.19Y-3.75
X5.19Y-4.05
X5.29Y-3.75
X5.29Y-4.05
X5.39Y-3.75
X5.39Y-4.05
X5.49Y-3.75
X5.49Y-4.05
X5.8Y-3.75
X5.8Y-4.05
X5.9Y-3.75
X5.9Y-4.05
X6.0Y-3.75
X6.0Y-4.05
X6.1Y-3.75
X6.1Y-4.05
T3
X6.5352Y-3.75
X6.5352Y-4.05
X6.6352Y-3.75
X6.6352Y-4.05
T4
X5.645Y-4.245
X6.405Y-3.675
X6.405Y-4.125
T5
X4.2814Y-3.8247
X4.2814Y-3.9836
M30
