%TF.GenerationSoftware,KiCad,Pcbnew,9.0.1*%
%TF.CreationDate,2025-05-15T12:04:48-05:00*%
%TF.ProjectId,Waveform_Blinky,57617665-666f-4726-9d5f-426c696e6b79,1.1*%
%TF.SameCoordinates,Original*%
%TF.FileFunction,Copper,L2,Bot*%
%TF.FilePolarity,Positive*%
%FSLAX46Y46*%
G04 Gerber Fmt 4.6, Leading zero omitted, Abs format (unit mm)*
G04 Created by KiCad (PCBNEW 9.0.1) date 2025-05-15 12:04:48*
%MOMM*%
%LPD*%
G01*
G04 APERTURE LIST*
G04 Aperture macros list*
%AMRoundRect*
0 Rectangle with rounded corners*
0 $1 Rounding radius*
0 $2 $3 $4 $5 $6 $7 $8 $9 X,Y pos of 4 corners*
0 Add a 4 corners polygon primitive as box body*
4,1,4,$2,$3,$4,$5,$6,$7,$8,$9,$2,$3,0*
0 Add four circle primitives for the rounded corners*
1,1,$1+$1,$2,$3*
1,1,$1+$1,$4,$5*
1,1,$1+$1,$6,$7*
1,1,$1+$1,$8,$9*
0 Add four rect primitives between the rounded corners*
20,1,$1+$1,$2,$3,$4,$5,0*
20,1,$1+$1,$4,$5,$6,$7,0*
20,1,$1+$1,$6,$7,$8,$9,0*
20,1,$1+$1,$8,$9,$2,$3,0*%
G04 Aperture macros list end*
%TA.AperFunction,ComponentPad*%
%ADD10RoundRect,0.249900X-0.800100X0.800100X-0.800100X-0.800100X0.800100X-0.800100X0.800100X0.800100X0*%
%TD*%
%TA.AperFunction,ComponentPad*%
%ADD11C,2.100000*%
%TD*%
%TA.AperFunction,ComponentPad*%
%ADD12O,1.700000X1.700000*%
%TD*%
%TA.AperFunction,ComponentPad*%
%ADD13R,1.600000X1.600000*%
%TD*%
%TA.AperFunction,ComponentPad*%
%ADD14O,1.600000X1.600000*%
%TD*%
%TA.AperFunction,ComponentPad*%
%ADD15R,1.800000X1.800000*%
%TD*%
%TA.AperFunction,ComponentPad*%
%ADD16C,1.800000*%
%TD*%
%TA.AperFunction,SMDPad,CuDef*%
%ADD17R,4.000000X4.000000*%
%TD*%
%TA.AperFunction,ViaPad*%
%ADD18C,0.508000*%
%TD*%
%TA.AperFunction,Conductor*%
%ADD19C,0.635000*%
%TD*%
G04 APERTURE END LIST*
D10*
%TO.P,J1,1,Pin_1*%
%TO.N,-4.5V*%
X108748000Y-101183000D03*
D11*
%TO.P,J1,2,Pin_2*%
%TO.N,+4.5V*%
X108748000Y-97147000D03*
%TD*%
D12*
%TO.P,TP3,1,1*%
%TO.N,Net-(U2A--)*%
X143383000Y-107823000D03*
%TD*%
D13*
%TO.P,U1,1*%
%TO.N,Net-(R1-Pad1)*%
X116332000Y-102870000D03*
D14*
%TO.P,U1,2,-*%
%TO.N,Net-(U1A--)*%
X118872000Y-102870000D03*
%TO.P,U1,3,+*%
%TO.N,GND*%
X121412000Y-102870000D03*
%TO.P,U1,4,V-*%
%TO.N,-4.5V*%
X123952000Y-102870000D03*
%TO.P,U1,5,+*%
%TO.N,Net-(U1A--)*%
X123952000Y-95250000D03*
%TO.P,U1,6,-*%
%TO.N,Net-(U1B--)*%
X121412000Y-95250000D03*
%TO.P,U1,7*%
%TO.N,Net-(U2A-+)*%
X118872000Y-95250000D03*
%TO.P,U1,8,V+*%
%TO.N,+4.5V*%
X116332000Y-95250000D03*
%TD*%
D13*
%TO.P,U2,1*%
%TO.N,Net-(U2A--)*%
X131826000Y-102870000D03*
D14*
%TO.P,U2,2,-*%
X134366000Y-102870000D03*
%TO.P,U2,3,+*%
%TO.N,Net-(U2A-+)*%
X136906000Y-102870000D03*
%TO.P,U2,4,V-*%
%TO.N,-4.5V*%
X139446000Y-102870000D03*
%TO.P,U2,5,+*%
%TO.N,Net-(U2B-+)*%
X139446000Y-95250000D03*
%TO.P,U2,6,-*%
%TO.N,GND*%
X136906000Y-95250000D03*
%TO.P,U2,7*%
X134366000Y-95250000D03*
%TO.P,U2,8,V+*%
%TO.N,+4.5V*%
X131826000Y-95250000D03*
%TD*%
D12*
%TO.P,TP4,1,1*%
%TO.N,Net-(R11-Pad1)*%
X162687000Y-93345000D03*
%TD*%
D15*
%TO.P,D2,1,K*%
%TO.N,GND*%
X168534000Y-102870000D03*
D16*
%TO.P,D2,2,A*%
%TO.N,Net-(D2-A)*%
X165994000Y-102870000D03*
%TD*%
D13*
%TO.P,U3,1*%
%TO.N,Net-(R10-Pad1)*%
X147320000Y-102870000D03*
D14*
%TO.P,U3,2,-*%
%TO.N,GND*%
X149860000Y-102870000D03*
%TO.P,U3,3,+*%
%TO.N,Net-(U2A--)*%
X152400000Y-102870000D03*
%TO.P,U3,4,V-*%
%TO.N,-4.5V*%
X154940000Y-102870000D03*
%TO.P,U3,5,+*%
%TO.N,GND*%
X154940000Y-95250000D03*
%TO.P,U3,6,-*%
%TO.N,Net-(U2A--)*%
X152400000Y-95250000D03*
%TO.P,U3,7*%
%TO.N,Net-(R11-Pad1)*%
X149860000Y-95250000D03*
%TO.P,U3,8,V+*%
%TO.N,+4.5V*%
X147320000Y-95250000D03*
%TD*%
D12*
%TO.P,TP5,1,1*%
%TO.N,Net-(R10-Pad1)*%
X162687000Y-104775000D03*
%TD*%
D15*
%TO.P,D1,1,K*%
%TO.N,GND*%
X168534000Y-95250000D03*
D16*
%TO.P,D1,2,A*%
%TO.N,Net-(D1-A)*%
X165994000Y-95250000D03*
%TD*%
D17*
%TO.P,TP1,1,1*%
%TO.N,GND*%
X107696000Y-88900000D03*
%TD*%
D18*
%TO.N,GND*%
X110744000Y-88900000D03*
X157734000Y-91821000D03*
X127635000Y-110490000D03*
X104648000Y-88900000D03*
X157607000Y-106299000D03*
X122174000Y-110490000D03*
X117094000Y-90551000D03*
X116967000Y-110490000D03*
%TO.N,+4.5V*%
X143510000Y-93218000D03*
%TO.N,-4.5V*%
X143510000Y-105156000D03*
%TO.N,Net-(U2A-+)*%
X127635000Y-99060000D03*
X123825000Y-99060000D03*
%TD*%
D19*
%TO.N,+4.5V*%
X146812000Y-93218000D02*
X147320000Y-93726000D01*
X116459000Y-93218000D02*
X130937000Y-93218000D01*
X131826000Y-95250000D02*
X131826000Y-93218000D01*
X143510000Y-93218000D02*
X146812000Y-93218000D01*
X108748000Y-97147000D02*
X112677000Y-93218000D01*
X116332000Y-93345000D02*
X116459000Y-93218000D01*
X116332000Y-95250000D02*
X116332000Y-93345000D01*
X112677000Y-93218000D02*
X116459000Y-93218000D01*
X130937000Y-93218000D02*
X143510000Y-93218000D01*
X147320000Y-93726000D02*
X147320000Y-95250000D01*
%TO.N,-4.5V*%
X143510000Y-105156000D02*
X154305000Y-105156000D01*
X108748000Y-101183000D02*
X112721000Y-105156000D01*
X138557000Y-105156000D02*
X143510000Y-105156000D01*
X154305000Y-105156000D02*
X154940000Y-104521000D01*
X123952000Y-105156000D02*
X138557000Y-105156000D01*
X123952000Y-102870000D02*
X123952000Y-105156000D01*
X139446000Y-102870000D02*
X139446000Y-105156000D01*
X154940000Y-104521000D02*
X154940000Y-102870000D01*
X112721000Y-105156000D02*
X123952000Y-105156000D01*
%TO.N,Net-(U2A-+)*%
X123825000Y-99060000D02*
X127635000Y-99060000D01*
%TO.N,Net-(U2A--)*%
X152400000Y-102870000D02*
X152400000Y-95250000D01*
%TD*%
%TA.AperFunction,Conductor*%
%TO.N,GND*%
G36*
X136585920Y-95004394D02*
G01*
X136533259Y-95095606D01*
X136506000Y-95197339D01*
X136506000Y-95302661D01*
X136533259Y-95404394D01*
X136585920Y-95495606D01*
X136590314Y-95500000D01*
X134681686Y-95500000D01*
X134686080Y-95495606D01*
X134738741Y-95404394D01*
X134766000Y-95302661D01*
X134766000Y-95197339D01*
X134738741Y-95095606D01*
X134686080Y-95004394D01*
X134681686Y-95000000D01*
X136590314Y-95000000D01*
X136585920Y-95004394D01*
G37*
%TD.AperFunction*%
%TA.AperFunction,Conductor*%
G36*
X105139039Y-86761185D02*
G01*
X105184794Y-86813989D01*
X105196000Y-86865500D01*
X105196000Y-88650000D01*
X110196000Y-88650000D01*
X110196000Y-86865500D01*
X110215685Y-86798461D01*
X110268489Y-86752706D01*
X110320000Y-86741500D01*
X168855147Y-86741500D01*
X168906947Y-86741500D01*
X168913030Y-86741648D01*
X169239972Y-86757710D01*
X169252074Y-86758902D01*
X169572850Y-86806484D01*
X169584760Y-86808853D01*
X169899349Y-86887654D01*
X169910966Y-86891179D01*
X170216292Y-87000426D01*
X170227530Y-87005081D01*
X170337212Y-87056956D01*
X170520682Y-87143730D01*
X170531403Y-87149461D01*
X170620721Y-87202996D01*
X170809542Y-87316171D01*
X170819660Y-87322931D01*
X171080128Y-87516107D01*
X171089534Y-87523827D01*
X171329808Y-87741599D01*
X171338399Y-87750190D01*
X171404073Y-87822650D01*
X171556171Y-87990464D01*
X171563891Y-87999870D01*
X171757067Y-88260338D01*
X171763827Y-88270456D01*
X171930532Y-88548586D01*
X171936269Y-88559318D01*
X172074920Y-88852470D01*
X172079571Y-88863699D01*
X172182884Y-89152440D01*
X172188816Y-89169018D01*
X172192348Y-89180662D01*
X172271141Y-89495221D01*
X172273515Y-89507156D01*
X172321096Y-89827920D01*
X172322289Y-89840030D01*
X172338349Y-90166925D01*
X172338498Y-90173006D01*
X172338498Y-90224851D01*
X172338499Y-90224856D01*
X172338500Y-90234855D01*
X172338500Y-116582948D01*
X172338351Y-116589033D01*
X172322289Y-116915969D01*
X172321096Y-116928079D01*
X172273515Y-117248843D01*
X172271141Y-117260778D01*
X172192348Y-117575337D01*
X172188816Y-117586981D01*
X172079577Y-117892285D01*
X172074920Y-117903528D01*
X171936269Y-118196682D01*
X171930532Y-118207414D01*
X171763824Y-118485550D01*
X171757067Y-118495662D01*
X171563890Y-118756129D01*
X171556177Y-118765528D01*
X171338407Y-119005802D01*
X171329802Y-119014407D01*
X171089528Y-119232177D01*
X171080129Y-119239890D01*
X170819662Y-119433067D01*
X170809550Y-119439824D01*
X170531414Y-119606532D01*
X170520682Y-119612269D01*
X170227528Y-119750920D01*
X170216292Y-119755574D01*
X170052701Y-119814108D01*
X169910981Y-119864816D01*
X169899337Y-119868348D01*
X169584778Y-119947141D01*
X169572843Y-119949515D01*
X169252079Y-119997096D01*
X169239969Y-119998289D01*
X168931241Y-120013456D01*
X168913032Y-120014351D01*
X168906949Y-120014500D01*
X100333051Y-120014500D01*
X100326967Y-120014351D01*
X100307687Y-120013403D01*
X100000030Y-119998289D01*
X99987920Y-119997096D01*
X99667156Y-119949515D01*
X99655221Y-119947141D01*
X99340662Y-119868348D01*
X99329018Y-119864816D01*
X99023700Y-119755571D01*
X99012471Y-119750920D01*
X98719317Y-119612269D01*
X98708590Y-119606534D01*
X98430448Y-119439823D01*
X98420346Y-119433074D01*
X98159860Y-119239883D01*
X98150471Y-119232177D01*
X97910189Y-119014399D01*
X97901600Y-119005810D01*
X97683817Y-118765522D01*
X97676118Y-118756142D01*
X97482922Y-118495648D01*
X97476175Y-118485550D01*
X97353479Y-118280843D01*
X97309460Y-118207402D01*
X97303736Y-118196694D01*
X97165076Y-117903521D01*
X97160432Y-117892309D01*
X97051178Y-117586966D01*
X97047651Y-117575337D01*
X97040471Y-117546671D01*
X96968855Y-117260765D01*
X96966484Y-117248843D01*
X96918903Y-116928079D01*
X96917710Y-116915968D01*
X96901649Y-116589032D01*
X96901500Y-116582948D01*
X96901500Y-107716713D01*
X142032500Y-107716713D01*
X142032500Y-107929286D01*
X142065753Y-108139239D01*
X142131444Y-108341414D01*
X142227951Y-108530820D01*
X142352890Y-108702786D01*
X142503213Y-108853109D01*
X142675179Y-108978048D01*
X142675181Y-108978049D01*
X142675184Y-108978051D01*
X142864588Y-109074557D01*
X143066757Y-109140246D01*
X143276713Y-109173500D01*
X143276714Y-109173500D01*
X143489286Y-109173500D01*
X143489287Y-109173500D01*
X143699243Y-109140246D01*
X143901412Y-109074557D01*
X144090816Y-108978051D01*
X144112789Y-108962086D01*
X144262786Y-108853109D01*
X144262788Y-108853106D01*
X144262792Y-108853104D01*
X144413104Y-108702792D01*
X144413106Y-108702788D01*
X144413109Y-108702786D01*
X144538048Y-108530820D01*
X144538047Y-108530820D01*
X144538051Y-108530816D01*
X144634557Y-108341412D01*
X144700246Y-108139243D01*
X144733500Y-107929287D01*
X144733500Y-107716713D01*
X144700246Y-107506757D01*
X144634557Y-107304588D01*
X144538051Y-107115184D01*
X144538049Y-107115181D01*
X144538048Y-107115179D01*
X144413109Y-106943213D01*
X144262786Y-106792890D01*
X144090820Y-106667951D01*
X143901414Y-106571444D01*
X143901413Y-106571443D01*
X143901412Y-106571443D01*
X143699243Y-106505754D01*
X143699241Y-106505753D01*
X143699240Y-106505753D01*
X143537957Y-106480208D01*
X143489287Y-106472500D01*
X143276713Y-106472500D01*
X143228042Y-106480208D01*
X143066760Y-106505753D01*
X142864585Y-106571444D01*
X142675179Y-106667951D01*
X142503213Y-106792890D01*
X142352890Y-106943213D01*
X142227951Y-107115179D01*
X142131444Y-107304585D01*
X142065753Y-107506760D01*
X142032500Y-107716713D01*
X96901500Y-107716713D01*
X96901500Y-101060973D01*
X97497500Y-101060973D01*
X97497500Y-101305026D01*
X97524643Y-101476403D01*
X97535679Y-101546076D01*
X97611096Y-101778185D01*
X97661971Y-101878034D01*
X97721896Y-101995642D01*
X97865339Y-102193076D01*
X97865343Y-102193081D01*
X98037918Y-102365656D01*
X98037923Y-102365660D01*
X98181536Y-102470000D01*
X98235361Y-102509106D01*
X98452815Y-102619904D01*
X98684924Y-102695321D01*
X98925973Y-102733500D01*
X98925974Y-102733500D01*
X99170026Y-102733500D01*
X99170027Y-102733500D01*
X99411076Y-102695321D01*
X99643185Y-102619904D01*
X99860639Y-102509106D01*
X100058083Y-102365655D01*
X100230655Y-102193083D01*
X100374106Y-101995639D01*
X100484904Y-101778185D01*
X100560321Y-101546076D01*
X100598500Y-101305027D01*
X100598500Y-101060973D01*
X100560321Y-100819924D01*
X100484904Y-100587815D01*
X100374106Y-100370361D01*
X100346883Y-100332891D01*
X100230660Y-100172923D01*
X100230656Y-100172918D01*
X100058081Y-100000343D01*
X100058076Y-100000339D01*
X99860642Y-99856896D01*
X99860641Y-99856895D01*
X99860639Y-99856894D01*
X99643185Y-99746096D01*
X99411076Y-99670679D01*
X99411074Y-99670678D01*
X99411072Y-99670678D01*
X99236314Y-99642999D01*
X99170027Y-99632500D01*
X98925973Y-99632500D01*
X98870093Y-99641350D01*
X98684927Y-99670678D01*
X98452812Y-99746097D01*
X98235357Y-99856896D01*
X98037923Y-100000339D01*
X98037918Y-100000343D01*
X97865343Y-100172918D01*
X97865339Y-100172923D01*
X97721896Y-100370357D01*
X97611097Y-100587812D01*
X97535678Y-100819927D01*
X97497500Y-101060973D01*
X96901500Y-101060973D01*
X96901500Y-98979429D01*
X123007000Y-98979429D01*
X123007000Y-99140570D01*
X123038433Y-99298594D01*
X123038435Y-99298602D01*
X123100096Y-99447466D01*
X123189619Y-99581447D01*
X123303552Y-99695380D01*
X123437533Y-99784903D01*
X123511965Y-99815733D01*
X123586398Y-99846565D01*
X123744429Y-99877999D01*
X123744433Y-99878000D01*
X123744434Y-99878000D01*
X127715567Y-99878000D01*
X127715568Y-99877999D01*
X127873602Y-99846565D01*
X128000666Y-99793932D01*
X128022466Y-99784903D01*
X128022466Y-99784902D01*
X128022468Y-99784902D01*
X128156445Y-99695382D01*
X128270382Y-99581445D01*
X128359902Y-99447468D01*
X128421565Y-99298602D01*
X128453000Y-99140566D01*
X128453000Y-98979434D01*
X128421565Y-98821398D01*
X128390733Y-98746965D01*
X128359903Y-98672533D01*
X128270380Y-98538552D01*
X128156447Y-98424619D01*
X128022466Y-98335096D01*
X127873602Y-98273435D01*
X127873594Y-98273433D01*
X127715570Y-98242000D01*
X127715566Y-98242000D01*
X123744434Y-98242000D01*
X123744429Y-98242000D01*
X123586405Y-98273433D01*
X123586397Y-98273435D01*
X123437533Y-98335096D01*
X123303552Y-98424619D01*
X123189619Y-98538552D01*
X123100096Y-98672533D01*
X123038435Y-98821397D01*
X123038433Y-98821405D01*
X123007000Y-98979429D01*
X96901500Y-98979429D01*
X96901500Y-97024973D01*
X97497500Y-97024973D01*
X97497500Y-97269026D01*
X97535678Y-97510072D01*
X97611097Y-97742187D01*
X97721896Y-97959642D01*
X97865339Y-98157076D01*
X97865343Y-98157081D01*
X98037918Y-98329656D01*
X98037923Y-98329660D01*
X98168623Y-98424618D01*
X98235361Y-98473106D01*
X98452815Y-98583904D01*
X98684924Y-98659321D01*
X98925973Y-98697500D01*
X98925974Y-98697500D01*
X99170026Y-98697500D01*
X99170027Y-98697500D01*
X99411076Y-98659321D01*
X99643185Y-98583904D01*
X99860639Y-98473106D01*
X100058083Y-98329655D01*
X100230655Y-98157083D01*
X100374106Y-97959639D01*
X100484904Y-97742185D01*
X100560321Y-97510076D01*
X100598500Y-97269027D01*
X100598500Y-97024973D01*
X107197500Y-97024973D01*
X107197500Y-97269026D01*
X107235678Y-97510072D01*
X107311097Y-97742187D01*
X107421896Y-97959642D01*
X107565339Y-98157076D01*
X107565343Y-98157081D01*
X107737918Y-98329656D01*
X107737923Y-98329660D01*
X107868623Y-98424618D01*
X107935361Y-98473106D01*
X108152815Y-98583904D01*
X108384924Y-98659321D01*
X108625973Y-98697500D01*
X108625974Y-98697500D01*
X108870026Y-98697500D01*
X108870027Y-98697500D01*
X109111076Y-98659321D01*
X109343185Y-98583904D01*
X109560639Y-98473106D01*
X109758083Y-98329655D01*
X109930655Y-98157083D01*
X110074106Y-97959639D01*
X110184904Y-97742185D01*
X110260321Y-97510076D01*
X110298500Y-97269027D01*
X110298500Y-97024973D01*
X110271240Y-96852869D01*
X110280194Y-96783580D01*
X110306029Y-96745796D01*
X112979508Y-94072319D01*
X113040831Y-94038834D01*
X113067189Y-94036000D01*
X115390000Y-94036000D01*
X115398685Y-94038550D01*
X115407647Y-94037262D01*
X115431687Y-94048240D01*
X115457039Y-94055685D01*
X115462966Y-94062525D01*
X115471203Y-94066287D01*
X115485492Y-94088521D01*
X115502794Y-94108489D01*
X115505081Y-94119003D01*
X115508977Y-94125065D01*
X115514000Y-94160000D01*
X115514000Y-94177453D01*
X115494315Y-94244492D01*
X115477681Y-94265134D01*
X115340032Y-94402782D01*
X115340028Y-94402786D01*
X115219715Y-94568386D01*
X115126781Y-94750776D01*
X115063522Y-94945465D01*
X115031500Y-95147648D01*
X115031500Y-95352351D01*
X115063522Y-95554534D01*
X115126781Y-95749223D01*
X115219715Y-95931613D01*
X115340028Y-96097213D01*
X115484786Y-96241971D01*
X115595692Y-96322547D01*
X115650390Y-96362287D01*
X115766607Y-96421503D01*
X115832776Y-96455218D01*
X115832778Y-96455218D01*
X115832781Y-96455220D01*
X115937137Y-96489127D01*
X116027465Y-96518477D01*
X116128557Y-96534488D01*
X116229648Y-96550500D01*
X116229649Y-96550500D01*
X116434351Y-96550500D01*
X116434352Y-96550500D01*
X116636534Y-96518477D01*
X116831219Y-96455220D01*
X117013610Y-96362287D01*
X117158005Y-96257379D01*
X117179213Y-96241971D01*
X117179215Y-96241968D01*
X117179219Y-96241966D01*
X117323966Y-96097219D01*
X117323968Y-96097215D01*
X117323971Y-96097213D01*
X117444284Y-95931614D01*
X117444286Y-95931611D01*
X117444287Y-95931610D01*
X117491516Y-95838917D01*
X117539489Y-95788123D01*
X117607310Y-95771328D01*
X117673445Y-95793865D01*
X117712485Y-95838919D01*
X117759715Y-95931614D01*
X117880028Y-96097213D01*
X118024786Y-96241971D01*
X118135692Y-96322547D01*
X118190390Y-96362287D01*
X118306607Y-96421503D01*
X118372776Y-96455218D01*
X118372778Y-96455218D01*
X118372781Y-96455220D01*
X118477137Y-96489127D01*
X118567465Y-96518477D01*
X118668557Y-96534488D01*
X118769648Y-96550500D01*
X118769649Y-96550500D01*
X118974351Y-96550500D01*
X118974352Y-96550500D01*
X119176534Y-96518477D01*
X119371219Y-96455220D01*
X119553610Y-96362287D01*
X119698005Y-96257379D01*
X119719213Y-96241971D01*
X119719215Y-96241968D01*
X119719219Y-96241966D01*
X119863966Y-96097219D01*
X119863968Y-96097215D01*
X119863971Y-96097213D01*
X119984284Y-95931614D01*
X119984286Y-95931611D01*
X119984287Y-95931610D01*
X120031516Y-95838917D01*
X120079489Y-95788123D01*
X120147310Y-95771328D01*
X120213445Y-95793865D01*
X120252485Y-95838919D01*
X120299715Y-95931614D01*
X120420028Y-96097213D01*
X120564786Y-96241971D01*
X120675692Y-96322547D01*
X120730390Y-96362287D01*
X120846607Y-96421503D01*
X120912776Y-96455218D01*
X120912778Y-96455218D01*
X120912781Y-96455220D01*
X121017137Y-96489127D01*
X121107465Y-96518477D01*
X121208557Y-96534488D01*
X121309648Y-96550500D01*
X121309649Y-96550500D01*
X121514351Y-96550500D01*
X121514352Y-96550500D01*
X121716534Y-96518477D01*
X121911219Y-96455220D01*
X122093610Y-96362287D01*
X122238005Y-96257379D01*
X122259213Y-96241971D01*
X122259215Y-96241968D01*
X122259219Y-96241966D01*
X122403966Y-96097219D01*
X122403968Y-96097215D01*
X122403971Y-96097213D01*
X122524284Y-95931614D01*
X122524286Y-95931611D01*
X122524287Y-95931610D01*
X122571516Y-95838917D01*
X122619489Y-95788123D01*
X122687310Y-95771328D01*
X122753445Y-95793865D01*
X122792485Y-95838919D01*
X122839715Y-95931614D01*
X122960028Y-96097213D01*
X123104786Y-96241971D01*
X123215692Y-96322547D01*
X123270390Y-96362287D01*
X123386607Y-96421503D01*
X123452776Y-96455218D01*
X123452778Y-96455218D01*
X123452781Y-96455220D01*
X123557137Y-96489127D01*
X123647465Y-96518477D01*
X123748557Y-96534488D01*
X123849648Y-96550500D01*
X123849649Y-96550500D01*
X124054351Y-96550500D01*
X124054352Y-96550500D01*
X124256534Y-96518477D01*
X124451219Y-96455220D01*
X124633610Y-96362287D01*
X124778005Y-96257379D01*
X124799213Y-96241971D01*
X124799215Y-96241968D01*
X124799219Y-96241966D01*
X124943966Y-96097219D01*
X124943968Y-96097215D01*
X124943971Y-96097213D01*
X124996732Y-96024590D01*
X125064287Y-95931610D01*
X125157220Y-95749219D01*
X125220477Y-95554534D01*
X125252500Y-95352352D01*
X125252500Y-95147648D01*
X125220477Y-94945465D01*
X125189458Y-94850000D01*
X125157220Y-94750781D01*
X125157218Y-94750778D01*
X125157218Y-94750776D01*
X125111515Y-94661080D01*
X125064287Y-94568390D01*
X125026205Y-94515974D01*
X124943971Y-94402786D01*
X124799217Y-94258032D01*
X124795506Y-94254862D01*
X124796899Y-94253230D01*
X124759700Y-94204993D01*
X124753718Y-94135380D01*
X124786321Y-94073584D01*
X124847158Y-94039224D01*
X124875249Y-94036000D01*
X130856434Y-94036000D01*
X130884000Y-94036000D01*
X130892685Y-94038550D01*
X130901647Y-94037262D01*
X130925687Y-94048240D01*
X130951039Y-94055685D01*
X130956966Y-94062525D01*
X130965203Y-94066287D01*
X130979492Y-94088521D01*
X130996794Y-94108489D01*
X130999081Y-94119003D01*
X131002977Y-94125065D01*
X131008000Y-94160000D01*
X131008000Y-94177453D01*
X130988315Y-94244492D01*
X130971681Y-94265134D01*
X130834032Y-94402782D01*
X130834028Y-94402786D01*
X130713715Y-94568386D01*
X130620781Y-94750776D01*
X130557522Y-94945465D01*
X130525500Y-95147648D01*
X130525500Y-95352351D01*
X130557522Y-95554534D01*
X130620781Y-95749223D01*
X130713715Y-95931613D01*
X130834028Y-96097213D01*
X130978786Y-96241971D01*
X131089692Y-96322547D01*
X131144390Y-96362287D01*
X131260607Y-96421503D01*
X131326776Y-96455218D01*
X131326778Y-96455218D01*
X131326781Y-96455220D01*
X131431137Y-96489127D01*
X131521465Y-96518477D01*
X131622557Y-96534488D01*
X131723648Y-96550500D01*
X131723649Y-96550500D01*
X131928351Y-96550500D01*
X131928352Y-96550500D01*
X132130534Y-96518477D01*
X132325219Y-96455220D01*
X132507610Y-96362287D01*
X132652005Y-96257379D01*
X132673213Y-96241971D01*
X132673215Y-96241968D01*
X132673219Y-96241966D01*
X132817966Y-96097219D01*
X132817968Y-96097215D01*
X132817971Y-96097213D01*
X132938284Y-95931614D01*
X132938286Y-95931611D01*
X132938287Y-95931610D01*
X132985795Y-95838369D01*
X133033770Y-95787574D01*
X133101591Y-95770779D01*
X133167725Y-95793316D01*
X133206765Y-95838370D01*
X133254140Y-95931349D01*
X133374417Y-96096894D01*
X133374417Y-96096895D01*
X133519104Y-96241582D01*
X133684650Y-96361859D01*
X133866968Y-96454754D01*
X134061578Y-96517988D01*
X134116000Y-96526607D01*
X134116000Y-95565686D01*
X134120394Y-95570080D01*
X134211606Y-95622741D01*
X134313339Y-95650000D01*
X134418661Y-95650000D01*
X134520394Y-95622741D01*
X134611606Y-95570080D01*
X134616000Y-95565686D01*
X134616000Y-96526606D01*
X134670421Y-96517988D01*
X134865031Y-96454754D01*
X135047349Y-96361859D01*
X135212894Y-96241582D01*
X135212895Y-96241582D01*
X135357582Y-96096895D01*
X135357582Y-96096894D01*
X135477859Y-95931349D01*
X135525515Y-95837820D01*
X135573489Y-95787024D01*
X135641310Y-95770229D01*
X135707445Y-95792766D01*
X135746485Y-95837820D01*
X135794140Y-95931349D01*
X135914417Y-96096894D01*
X135914417Y-96096895D01*
X136059104Y-96241582D01*
X136224650Y-96361859D01*
X136406968Y-96454754D01*
X136601578Y-96517988D01*
X136656000Y-96526607D01*
X136656000Y-95565686D01*
X136660394Y-95570080D01*
X136751606Y-95622741D01*
X136853339Y-95650000D01*
X136958661Y-95650000D01*
X137060394Y-95622741D01*
X137151606Y-95570080D01*
X137156000Y-95565686D01*
X137156000Y-96526606D01*
X137210421Y-96517988D01*
X137405031Y-96454754D01*
X137587349Y-96361859D01*
X137752894Y-96241582D01*
X137752895Y-96241582D01*
X137897582Y-96096895D01*
X137897582Y-96096894D01*
X138017861Y-95931347D01*
X138065234Y-95838371D01*
X138113208Y-95787575D01*
X138181028Y-95770779D01*
X138247164Y-95793316D01*
X138286203Y-95838369D01*
X138333713Y-95931611D01*
X138454028Y-96097213D01*
X138598786Y-96241971D01*
X138709692Y-96322547D01*
X138764390Y-96362287D01*
X138880607Y-96421503D01*
X138946776Y-96455218D01*
X138946778Y-96455218D01*
X138946781Y-96455220D01*
X139051137Y-96489127D01*
X139141465Y-96518477D01*
X139242557Y-96534488D01*
X139343648Y-96550500D01*
X139343649Y-96550500D01*
X139548351Y-96550500D01*
X139548352Y-96550500D01*
X139750534Y-96518477D01*
X139945219Y-96455220D01*
X140127610Y-96362287D01*
X140272005Y-96257379D01*
X140293213Y-96241971D01*
X140293215Y-96241968D01*
X140293219Y-96241966D01*
X140437966Y-96097219D01*
X140437968Y-96097215D01*
X140437971Y-96097213D01*
X140490732Y-96024590D01*
X140558287Y-95931610D01*
X140651220Y-95749219D01*
X140714477Y-95554534D01*
X140746500Y-95352352D01*
X140746500Y-95147648D01*
X140714477Y-94945465D01*
X140683458Y-94850000D01*
X140651220Y-94750781D01*
X140651218Y-94750778D01*
X140651218Y-94750776D01*
X140605515Y-94661080D01*
X140558287Y-94568390D01*
X140520205Y-94515974D01*
X140437971Y-94402786D01*
X140293217Y-94258032D01*
X140289506Y-94254862D01*
X140290899Y-94253230D01*
X140253700Y-94204993D01*
X140247718Y-94135380D01*
X140280321Y-94073584D01*
X140341158Y-94039224D01*
X140369249Y-94036000D01*
X143429434Y-94036000D01*
X146378000Y-94036000D01*
X146386685Y-94038550D01*
X146395647Y-94037262D01*
X146419687Y-94048240D01*
X146445039Y-94055685D01*
X146450966Y-94062525D01*
X146459203Y-94066287D01*
X146473492Y-94088521D01*
X146490794Y-94108489D01*
X146493081Y-94119003D01*
X146496977Y-94125065D01*
X146502000Y-94160000D01*
X146502000Y-94177453D01*
X146482315Y-94244492D01*
X146465681Y-94265134D01*
X146328032Y-94402782D01*
X146328028Y-94402786D01*
X146207715Y-94568386D01*
X146114781Y-94750776D01*
X146051522Y-94945465D01*
X146019500Y-95147648D01*
X146019500Y-95352351D01*
X146051522Y-95554534D01*
X146114781Y-95749223D01*
X146207715Y-95931613D01*
X146328028Y-96097213D01*
X146472786Y-96241971D01*
X146583692Y-96322547D01*
X146638390Y-96362287D01*
X146754607Y-96421503D01*
X146820776Y-96455218D01*
X146820778Y-96455218D01*
X146820781Y-96455220D01*
X146925137Y-96489127D01*
X147015465Y-96518477D01*
X147116557Y-96534488D01*
X147217648Y-96550500D01*
X147217649Y-96550500D01*
X147422351Y-96550500D01*
X147422352Y-96550500D01*
X147624534Y-96518477D01*
X147819219Y-96455220D01*
X148001610Y-96362287D01*
X148146005Y-96257379D01*
X148167213Y-96241971D01*
X148167215Y-96241968D01*
X148167219Y-96241966D01*
X148311966Y-96097219D01*
X148311968Y-96097215D01*
X148311971Y-96097213D01*
X148432284Y-95931614D01*
X148432286Y-95931611D01*
X148432287Y-95931610D01*
X148479516Y-95838917D01*
X148527489Y-95788123D01*
X148595310Y-95771328D01*
X148661445Y-95793865D01*
X148700485Y-95838919D01*
X148747715Y-95931614D01*
X148868028Y-96097213D01*
X149012786Y-96241971D01*
X149123692Y-96322547D01*
X149178390Y-96362287D01*
X149294607Y-96421503D01*
X149360776Y-96455218D01*
X149360778Y-96455218D01*
X149360781Y-96455220D01*
X149465137Y-96489127D01*
X149555465Y-96518477D01*
X149656557Y-96534488D01*
X149757648Y-96550500D01*
X149757649Y-96550500D01*
X149962351Y-96550500D01*
X149962352Y-96550500D01*
X150164534Y-96518477D01*
X150359219Y-96455220D01*
X150541610Y-96362287D01*
X150686005Y-96257379D01*
X150707213Y-96241971D01*
X150707215Y-96241968D01*
X150707219Y-96241966D01*
X150851966Y-96097219D01*
X150851968Y-96097215D01*
X150851971Y-96097213D01*
X150972284Y-95931614D01*
X150972286Y-95931611D01*
X150972287Y-95931610D01*
X151019516Y-95838917D01*
X151067489Y-95788123D01*
X151135310Y-95771328D01*
X151201445Y-95793865D01*
X151240485Y-95838919D01*
X151287715Y-95931614D01*
X151408028Y-96097213D01*
X151545681Y-96234866D01*
X151579166Y-96296189D01*
X151582000Y-96322547D01*
X151582000Y-101797453D01*
X151562315Y-101864492D01*
X151545681Y-101885134D01*
X151408032Y-102022782D01*
X151408028Y-102022786D01*
X151287713Y-102188388D01*
X151240203Y-102281630D01*
X151192228Y-102332426D01*
X151124407Y-102349220D01*
X151058272Y-102326682D01*
X151019234Y-102281628D01*
X150971861Y-102188652D01*
X150851582Y-102023105D01*
X150851582Y-102023104D01*
X150706895Y-101878417D01*
X150541349Y-101758140D01*
X150359029Y-101665244D01*
X150164413Y-101602009D01*
X150110000Y-101593390D01*
X150110000Y-102554314D01*
X150105606Y-102549920D01*
X150014394Y-102497259D01*
X149912661Y-102470000D01*
X149807339Y-102470000D01*
X149705606Y-102497259D01*
X149614394Y-102549920D01*
X149610000Y-102554314D01*
X149610000Y-101593390D01*
X149555586Y-101602009D01*
X149360970Y-101665244D01*
X149178650Y-101758140D01*
X149013105Y-101878417D01*
X149013104Y-101878417D01*
X148868414Y-102023107D01*
X148841746Y-102059813D01*
X148786415Y-102102478D01*
X148716802Y-102108456D01*
X148655007Y-102075849D01*
X148620651Y-102015010D01*
X148618139Y-102000177D01*
X148617651Y-101995639D01*
X148614091Y-101962517D01*
X148577530Y-101864492D01*
X148563797Y-101827671D01*
X148563793Y-101827664D01*
X148477547Y-101712455D01*
X148477544Y-101712452D01*
X148362335Y-101626206D01*
X148362328Y-101626202D01*
X148227482Y-101575908D01*
X148227483Y-101575908D01*
X148167883Y-101569501D01*
X148167881Y-101569500D01*
X148167873Y-101569500D01*
X148167864Y-101569500D01*
X146472129Y-101569500D01*
X146472123Y-101569501D01*
X146412516Y-101575908D01*
X146277671Y-101626202D01*
X146277664Y-101626206D01*
X146162455Y-101712452D01*
X146162452Y-101712455D01*
X146076206Y-101827664D01*
X146076202Y-101827671D01*
X146025908Y-101962517D01*
X146019501Y-102022116D01*
X146019500Y-102022135D01*
X146019500Y-103717870D01*
X146019501Y-103717876D01*
X146025908Y-103777483D01*
X146076202Y-103912328D01*
X146076206Y-103912335D01*
X146162452Y-104027544D01*
X146162455Y-104027547D01*
X146278921Y-104114734D01*
X146320792Y-104170667D01*
X146325776Y-104240359D01*
X146292290Y-104301682D01*
X146230967Y-104335166D01*
X146204610Y-104338000D01*
X140388000Y-104338000D01*
X140320961Y-104318315D01*
X140275206Y-104265511D01*
X140264000Y-104214000D01*
X140264000Y-103942547D01*
X140283685Y-103875508D01*
X140300319Y-103854866D01*
X140337358Y-103817827D01*
X140437966Y-103717219D01*
X140437968Y-103717215D01*
X140437971Y-103717213D01*
X140508636Y-103619949D01*
X140558287Y-103551610D01*
X140651220Y-103369219D01*
X140714477Y-103174534D01*
X140746500Y-102972352D01*
X140746500Y-102767648D01*
X140746499Y-102767644D01*
X140714477Y-102565465D01*
X140677509Y-102451689D01*
X140651220Y-102370781D01*
X140651218Y-102370778D01*
X140651218Y-102370776D01*
X140616378Y-102302399D01*
X140558287Y-102188390D01*
X140520136Y-102135879D01*
X140437971Y-102022786D01*
X140293213Y-101878028D01*
X140127613Y-101757715D01*
X140127612Y-101757714D01*
X140127610Y-101757713D01*
X140069111Y-101727906D01*
X139945223Y-101664781D01*
X139750534Y-101601522D01*
X139564799Y-101572105D01*
X139548352Y-101569500D01*
X139343648Y-101569500D01*
X139327201Y-101572105D01*
X139141465Y-101601522D01*
X138946776Y-101664781D01*
X138764386Y-101757715D01*
X138598786Y-101878028D01*
X138454028Y-102022786D01*
X138333715Y-102188386D01*
X138286485Y-102281080D01*
X138238510Y-102331876D01*
X138170689Y-102348671D01*
X138104554Y-102326134D01*
X138065515Y-102281080D01*
X138064883Y-102279840D01*
X138018287Y-102188390D01*
X137980136Y-102135879D01*
X137897971Y-102022786D01*
X137753213Y-101878028D01*
X137587613Y-101757715D01*
X137587612Y-101757714D01*
X137587610Y-101757713D01*
X137529111Y-101727906D01*
X137405223Y-101664781D01*
X137210534Y-101601522D01*
X137024799Y-101572105D01*
X137008352Y-101569500D01*
X136803648Y-101569500D01*
X136787201Y-101572105D01*
X136601465Y-101601522D01*
X136406776Y-101664781D01*
X136224386Y-101757715D01*
X136058786Y-101878028D01*
X135914028Y-102022786D01*
X135793715Y-102188386D01*
X135746485Y-102281080D01*
X135698510Y-102331876D01*
X135630689Y-102348671D01*
X135564554Y-102326134D01*
X135525515Y-102281080D01*
X135524883Y-102279840D01*
X135478287Y-102188390D01*
X135440136Y-102135879D01*
X135357971Y-102022786D01*
X135213213Y-101878028D01*
X135047613Y-101757715D01*
X135047612Y-101757714D01*
X135047610Y-101757713D01*
X134989111Y-101727906D01*
X134865223Y-101664781D01*
X134670534Y-101601522D01*
X134484799Y-101572105D01*
X134468352Y-101569500D01*
X134263648Y-101569500D01*
X134247201Y-101572105D01*
X134061465Y-101601522D01*
X133866776Y-101664781D01*
X133684386Y-101757715D01*
X133518786Y-101878028D01*
X133374032Y-102022782D01*
X133347668Y-102059070D01*
X133292338Y-102101735D01*
X133222724Y-102107714D01*
X133160929Y-102075108D01*
X133126572Y-102014269D01*
X133124060Y-101999438D01*
X133123640Y-101995533D01*
X133120091Y-101962517D01*
X133083310Y-101863903D01*
X133069797Y-101827671D01*
X133069793Y-101827664D01*
X132983547Y-101712455D01*
X132983544Y-101712452D01*
X132868335Y-101626206D01*
X132868328Y-101626202D01*
X132733482Y-101575908D01*
X132733483Y-101575908D01*
X132673883Y-101569501D01*
X132673881Y-101569500D01*
X132673873Y-101569500D01*
X132673864Y-101569500D01*
X130978129Y-101569500D01*
X130978123Y-101569501D01*
X130918516Y-101575908D01*
X130783671Y-101626202D01*
X130783664Y-101626206D01*
X130668455Y-101712452D01*
X130668452Y-101712455D01*
X130582206Y-101827664D01*
X130582202Y-101827671D01*
X130531908Y-101962517D01*
X130525501Y-102022116D01*
X130525500Y-102022135D01*
X130525500Y-103717870D01*
X130525501Y-103717876D01*
X130531908Y-103777483D01*
X130582202Y-103912328D01*
X130582206Y-103912335D01*
X130668452Y-104027544D01*
X130668455Y-104027547D01*
X130784921Y-104114734D01*
X130826792Y-104170667D01*
X130831776Y-104240359D01*
X130798290Y-104301682D01*
X130736967Y-104335166D01*
X130710610Y-104338000D01*
X124894000Y-104338000D01*
X124826961Y-104318315D01*
X124781206Y-104265511D01*
X124770000Y-104214000D01*
X124770000Y-103942547D01*
X124789685Y-103875508D01*
X124806319Y-103854866D01*
X124843358Y-103817827D01*
X124943966Y-103717219D01*
X124943968Y-103717215D01*
X124943971Y-103717213D01*
X125014636Y-103619949D01*
X125064287Y-103551610D01*
X125157220Y-103369219D01*
X125220477Y-103174534D01*
X125252500Y-102972352D01*
X125252500Y-102767648D01*
X125252499Y-102767644D01*
X125220477Y-102565465D01*
X125183509Y-102451689D01*
X125157220Y-102370781D01*
X125157218Y-102370778D01*
X125157218Y-102370776D01*
X125122378Y-102302399D01*
X125064287Y-102188390D01*
X125026136Y-102135879D01*
X124943971Y-102022786D01*
X124799213Y-101878028D01*
X124633613Y-101757715D01*
X124633612Y-101757714D01*
X124633610Y-101757713D01*
X124575111Y-101727906D01*
X124451223Y-101664781D01*
X124256534Y-101601522D01*
X124070799Y-101572105D01*
X124054352Y-101569500D01*
X123849648Y-101569500D01*
X123833201Y-101572105D01*
X123647465Y-101601522D01*
X123452776Y-101664781D01*
X123270386Y-101757715D01*
X123104786Y-101878028D01*
X122960028Y-102022786D01*
X122839713Y-102188388D01*
X122792203Y-102281630D01*
X122744228Y-102332426D01*
X122676407Y-102349220D01*
X122610272Y-102326682D01*
X122571234Y-102281628D01*
X122523861Y-102188652D01*
X122403582Y-102023105D01*
X122403582Y-102023104D01*
X122258895Y-101878417D01*
X122093349Y-101758140D01*
X121911029Y-101665244D01*
X121716413Y-101602009D01*
X121662000Y-101593390D01*
X121662000Y-102554314D01*
X121657606Y-102549920D01*
X121566394Y-102497259D01*
X121464661Y-102470000D01*
X121359339Y-102470000D01*
X121257606Y-102497259D01*
X121166394Y-102549920D01*
X121162000Y-102554314D01*
X121162000Y-101593390D01*
X121107586Y-101602009D01*
X120912970Y-101665244D01*
X120730650Y-101758140D01*
X120565105Y-101878417D01*
X120565104Y-101878417D01*
X120420417Y-102023104D01*
X120420417Y-102023105D01*
X120300140Y-102188650D01*
X120252765Y-102281629D01*
X120204790Y-102332425D01*
X120136969Y-102349220D01*
X120070834Y-102326682D01*
X120031795Y-102281629D01*
X120020990Y-102260424D01*
X119984287Y-102188390D01*
X119946136Y-102135879D01*
X119863971Y-102022786D01*
X119719213Y-101878028D01*
X119553613Y-101757715D01*
X119553612Y-101757714D01*
X119553610Y-101757713D01*
X119495111Y-101727906D01*
X119371223Y-101664781D01*
X119176534Y-101601522D01*
X118990799Y-101572105D01*
X118974352Y-101569500D01*
X118769648Y-101569500D01*
X118753201Y-101572105D01*
X118567465Y-101601522D01*
X118372776Y-101664781D01*
X118190386Y-101757715D01*
X118024786Y-101878028D01*
X117880032Y-102022782D01*
X117853668Y-102059070D01*
X117798338Y-102101735D01*
X117728724Y-102107714D01*
X117666929Y-102075108D01*
X117632572Y-102014269D01*
X117630060Y-101999438D01*
X117629640Y-101995533D01*
X117626091Y-101962517D01*
X117589310Y-101863903D01*
X117575797Y-101827671D01*
X117575793Y-101827664D01*
X117489547Y-101712455D01*
X117489544Y-101712452D01*
X117374335Y-101626206D01*
X117374328Y-101626202D01*
X117239482Y-101575908D01*
X117239483Y-101575908D01*
X117179883Y-101569501D01*
X117179881Y-101569500D01*
X117179873Y-101569500D01*
X117179864Y-101569500D01*
X115484129Y-101569500D01*
X115484123Y-101569501D01*
X115424516Y-101575908D01*
X115289671Y-101626202D01*
X115289664Y-101626206D01*
X115174455Y-101712452D01*
X115174452Y-101712455D01*
X115088206Y-101827664D01*
X115088202Y-101827671D01*
X115037908Y-101962517D01*
X115031501Y-102022116D01*
X115031500Y-102022135D01*
X115031500Y-103717870D01*
X115031501Y-103717876D01*
X115037908Y-103777483D01*
X115088202Y-103912328D01*
X115088206Y-103912335D01*
X115174452Y-104027544D01*
X115174455Y-104027547D01*
X115290921Y-104114734D01*
X115332792Y-104170667D01*
X115337776Y-104240359D01*
X115304290Y-104301682D01*
X115242967Y-104335166D01*
X115216610Y-104338000D01*
X113111189Y-104338000D01*
X113044150Y-104318315D01*
X113023508Y-104301681D01*
X110334818Y-101612991D01*
X110301333Y-101551668D01*
X110298499Y-101525310D01*
X110298499Y-100332908D01*
X110298498Y-100332891D01*
X110288000Y-100230123D01*
X110287999Y-100230120D01*
X110269044Y-100172917D01*
X110232823Y-100063609D01*
X110232819Y-100063603D01*
X110232818Y-100063600D01*
X110140734Y-99914310D01*
X110140731Y-99914306D01*
X110016693Y-99790268D01*
X110016689Y-99790265D01*
X109867399Y-99698181D01*
X109867393Y-99698178D01*
X109867391Y-99698177D01*
X109858950Y-99695380D01*
X109700878Y-99643000D01*
X109598100Y-99632500D01*
X107897908Y-99632500D01*
X107897891Y-99632501D01*
X107795123Y-99642999D01*
X107795120Y-99643000D01*
X107628611Y-99698176D01*
X107628600Y-99698181D01*
X107479310Y-99790265D01*
X107479306Y-99790268D01*
X107355268Y-99914306D01*
X107355265Y-99914310D01*
X107263181Y-100063600D01*
X107263176Y-100063611D01*
X107208000Y-100230121D01*
X107197500Y-100332893D01*
X107197500Y-102033091D01*
X107197501Y-102033108D01*
X107207999Y-102135876D01*
X107208000Y-102135879D01*
X107263176Y-102302388D01*
X107263181Y-102302399D01*
X107355265Y-102451689D01*
X107355268Y-102451693D01*
X107479306Y-102575731D01*
X107479310Y-102575734D01*
X107628600Y-102667818D01*
X107628603Y-102667819D01*
X107628609Y-102667823D01*
X107795123Y-102723000D01*
X107897901Y-102733500D01*
X109090310Y-102733499D01*
X109157349Y-102753184D01*
X109177991Y-102769818D01*
X112199551Y-105791379D01*
X112199554Y-105791382D01*
X112333525Y-105880898D01*
X112333531Y-105880902D01*
X112354211Y-105889468D01*
X112377124Y-105898959D01*
X112377129Y-105898960D01*
X112377133Y-105898962D01*
X112482398Y-105942565D01*
X112640429Y-105973999D01*
X112640433Y-105974000D01*
X112640434Y-105974000D01*
X154385567Y-105974000D01*
X154385568Y-105973999D01*
X154543602Y-105942565D01*
X154621013Y-105910500D01*
X154692468Y-105880903D01*
X154826445Y-105791382D01*
X155461442Y-105156383D01*
X155461445Y-105156382D01*
X155575382Y-105042445D01*
X155591067Y-105018969D01*
X155621807Y-104972966D01*
X155621807Y-104972965D01*
X155664903Y-104908468D01*
X155726565Y-104759602D01*
X155744644Y-104668713D01*
X161336500Y-104668713D01*
X161336500Y-104881287D01*
X161369754Y-105091243D01*
X161390919Y-105156383D01*
X161435444Y-105293414D01*
X161531951Y-105482820D01*
X161656890Y-105654786D01*
X161807213Y-105805109D01*
X161979179Y-105930048D01*
X161979181Y-105930049D01*
X161979184Y-105930051D01*
X162168588Y-106026557D01*
X162370757Y-106092246D01*
X162580713Y-106125500D01*
X162580714Y-106125500D01*
X162793286Y-106125500D01*
X162793287Y-106125500D01*
X163003243Y-106092246D01*
X163205412Y-106026557D01*
X163394816Y-105930051D01*
X163462463Y-105880903D01*
X163566786Y-105805109D01*
X163566788Y-105805106D01*
X163566792Y-105805104D01*
X163717104Y-105654792D01*
X163717106Y-105654788D01*
X163717109Y-105654786D01*
X163842048Y-105482820D01*
X163842047Y-105482820D01*
X163842051Y-105482816D01*
X163938557Y-105293412D01*
X164004246Y-105091243D01*
X164037500Y-104881287D01*
X164037500Y-104668713D01*
X164004246Y-104458757D01*
X163938557Y-104256588D01*
X163842051Y-104067184D01*
X163842049Y-104067181D01*
X163842048Y-104067179D01*
X163717109Y-103895213D01*
X163566786Y-103744890D01*
X163394820Y-103619951D01*
X163205414Y-103523444D01*
X163205413Y-103523443D01*
X163205412Y-103523443D01*
X163003243Y-103457754D01*
X163003241Y-103457753D01*
X163003240Y-103457753D01*
X162841957Y-103432208D01*
X162793287Y-103424500D01*
X162580713Y-103424500D01*
X162532042Y-103432208D01*
X162370760Y-103457753D01*
X162168585Y-103523444D01*
X161979179Y-103619951D01*
X161807213Y-103744890D01*
X161656890Y-103895213D01*
X161531951Y-104067179D01*
X161435444Y-104256585D01*
X161435443Y-104256587D01*
X161435443Y-104256588D01*
X161431085Y-104270000D01*
X161369753Y-104458760D01*
X161341103Y-104639650D01*
X161336500Y-104668713D01*
X155744644Y-104668713D01*
X155758000Y-104601565D01*
X155758000Y-104440434D01*
X155758000Y-103942547D01*
X155777685Y-103875508D01*
X155794319Y-103854866D01*
X155831358Y-103817827D01*
X155931966Y-103717219D01*
X155931968Y-103717215D01*
X155931971Y-103717213D01*
X156002636Y-103619949D01*
X156052287Y-103551610D01*
X156145220Y-103369219D01*
X156208477Y-103174534D01*
X156240500Y-102972352D01*
X156240500Y-102767648D01*
X156239253Y-102759778D01*
X164593500Y-102759778D01*
X164593500Y-102980221D01*
X164627985Y-103197952D01*
X164696103Y-103407603D01*
X164696104Y-103407606D01*
X164755128Y-103523444D01*
X164769479Y-103551610D01*
X164796187Y-103604025D01*
X164925752Y-103782358D01*
X164925756Y-103782363D01*
X165081636Y-103938243D01*
X165081641Y-103938247D01*
X165237192Y-104051260D01*
X165259978Y-104067815D01*
X165350220Y-104113796D01*
X165456393Y-104167895D01*
X165456396Y-104167896D01*
X165543980Y-104196353D01*
X165666049Y-104236015D01*
X165883778Y-104270500D01*
X165883779Y-104270500D01*
X166104221Y-104270500D01*
X166104222Y-104270500D01*
X166321951Y-104236015D01*
X166531606Y-104167895D01*
X166728022Y-104067815D01*
X166906365Y-103938242D01*
X166956924Y-103887682D01*
X167018245Y-103854198D01*
X167087936Y-103859182D01*
X167143870Y-103901053D01*
X167160786Y-103932030D01*
X167190646Y-104012087D01*
X167190649Y-104012093D01*
X167276809Y-104127187D01*
X167276812Y-104127190D01*
X167391906Y-104213350D01*
X167391913Y-104213354D01*
X167526620Y-104263596D01*
X167526627Y-104263598D01*
X167586155Y-104269999D01*
X167586172Y-104270000D01*
X168284000Y-104270000D01*
X168284000Y-103245277D01*
X168360306Y-103289333D01*
X168474756Y-103320000D01*
X168593244Y-103320000D01*
X168707694Y-103289333D01*
X168784000Y-103245277D01*
X168784000Y-104270000D01*
X169481828Y-104270000D01*
X169481844Y-104269999D01*
X169541372Y-104263598D01*
X169541379Y-104263596D01*
X169676086Y-104213354D01*
X169676093Y-104213350D01*
X169791187Y-104127190D01*
X169791190Y-104127187D01*
X169877350Y-104012093D01*
X169877354Y-104012086D01*
X169927596Y-103877379D01*
X169927598Y-103877372D01*
X169933999Y-103817844D01*
X169934000Y-103817827D01*
X169934000Y-103120000D01*
X168909278Y-103120000D01*
X168953333Y-103043694D01*
X168984000Y-102929244D01*
X168984000Y-102810756D01*
X168953333Y-102696306D01*
X168909278Y-102620000D01*
X169934000Y-102620000D01*
X169934000Y-101922172D01*
X169933999Y-101922155D01*
X169927598Y-101862627D01*
X169927596Y-101862620D01*
X169877354Y-101727913D01*
X169877350Y-101727906D01*
X169791190Y-101612812D01*
X169791187Y-101612809D01*
X169676093Y-101526649D01*
X169676086Y-101526645D01*
X169541379Y-101476403D01*
X169541372Y-101476401D01*
X169481844Y-101470000D01*
X168784000Y-101470000D01*
X168784000Y-102494722D01*
X168707694Y-102450667D01*
X168593244Y-102420000D01*
X168474756Y-102420000D01*
X168360306Y-102450667D01*
X168284000Y-102494722D01*
X168284000Y-101470000D01*
X167586155Y-101470000D01*
X167526627Y-101476401D01*
X167526620Y-101476403D01*
X167391913Y-101526645D01*
X167391906Y-101526649D01*
X167276812Y-101612809D01*
X167276809Y-101612812D01*
X167190649Y-101727906D01*
X167190643Y-101727918D01*
X167160785Y-101807969D01*
X167118914Y-101863903D01*
X167053449Y-101888319D01*
X166985176Y-101873467D01*
X166956923Y-101852316D01*
X166906363Y-101801756D01*
X166906358Y-101801752D01*
X166728025Y-101672187D01*
X166728024Y-101672186D01*
X166728022Y-101672185D01*
X166637784Y-101626206D01*
X166531606Y-101572104D01*
X166531603Y-101572103D01*
X166321952Y-101503985D01*
X166213086Y-101486742D01*
X166104222Y-101469500D01*
X165883778Y-101469500D01*
X165811201Y-101480995D01*
X165666047Y-101503985D01*
X165456396Y-101572103D01*
X165456393Y-101572104D01*
X165259974Y-101672187D01*
X165081641Y-101801752D01*
X165081636Y-101801756D01*
X164925756Y-101957636D01*
X164925752Y-101957641D01*
X164796187Y-102135974D01*
X164696104Y-102332393D01*
X164696103Y-102332396D01*
X164627985Y-102542047D01*
X164593500Y-102759778D01*
X156239253Y-102759778D01*
X156208477Y-102565466D01*
X156200868Y-102542049D01*
X156171509Y-102451689D01*
X156145220Y-102370781D01*
X156145218Y-102370778D01*
X156145218Y-102370776D01*
X156110378Y-102302399D01*
X156052287Y-102188390D01*
X156014136Y-102135879D01*
X155931971Y-102022786D01*
X155787213Y-101878028D01*
X155621613Y-101757715D01*
X155621612Y-101757714D01*
X155621610Y-101757713D01*
X155563111Y-101727906D01*
X155439223Y-101664781D01*
X155244534Y-101601522D01*
X155058799Y-101572105D01*
X155042352Y-101569500D01*
X154837648Y-101569500D01*
X154821201Y-101572105D01*
X154635465Y-101601522D01*
X154440776Y-101664781D01*
X154258386Y-101757715D01*
X154092786Y-101878028D01*
X153948028Y-102022786D01*
X153827715Y-102188386D01*
X153780485Y-102281080D01*
X153732510Y-102331876D01*
X153664689Y-102348671D01*
X153598554Y-102326134D01*
X153559515Y-102281080D01*
X153558883Y-102279840D01*
X153512287Y-102188390D01*
X153474136Y-102135879D01*
X153391971Y-102022786D01*
X153254319Y-101885134D01*
X153220834Y-101823811D01*
X153218000Y-101797453D01*
X153218000Y-96322547D01*
X153237685Y-96255508D01*
X153254319Y-96234866D01*
X153291358Y-96197827D01*
X153391966Y-96097219D01*
X153391968Y-96097215D01*
X153391971Y-96097213D01*
X153512284Y-95931614D01*
X153512286Y-95931611D01*
X153512287Y-95931610D01*
X153559795Y-95838369D01*
X153607770Y-95787574D01*
X153675591Y-95770779D01*
X153741725Y-95793316D01*
X153780765Y-95838370D01*
X153828140Y-95931349D01*
X153948417Y-96096894D01*
X153948417Y-96096895D01*
X154093104Y-96241582D01*
X154258650Y-96361859D01*
X154440968Y-96454754D01*
X154635578Y-96517988D01*
X154690000Y-96526607D01*
X154690000Y-95565686D01*
X154694394Y-95570080D01*
X154785606Y-95622741D01*
X154887339Y-95650000D01*
X154992661Y-95650000D01*
X155094394Y-95622741D01*
X155185606Y-95570080D01*
X155190000Y-95565686D01*
X155190000Y-96526606D01*
X155244421Y-96517988D01*
X155439031Y-96454754D01*
X155621349Y-96361859D01*
X155786894Y-96241582D01*
X155786895Y-96241582D01*
X155931582Y-96096895D01*
X155931582Y-96096894D01*
X156051859Y-95931349D01*
X156144755Y-95749029D01*
X156207990Y-95554413D01*
X156216609Y-95500000D01*
X155255686Y-95500000D01*
X155260080Y-95495606D01*
X155312741Y-95404394D01*
X155340000Y-95302661D01*
X155340000Y-95197339D01*
X155324577Y-95139778D01*
X164593500Y-95139778D01*
X164593500Y-95360221D01*
X164627985Y-95577952D01*
X164696103Y-95787603D01*
X164696104Y-95787606D01*
X164764122Y-95921096D01*
X164769479Y-95931610D01*
X164796187Y-95984025D01*
X164925752Y-96162358D01*
X164925756Y-96162363D01*
X165081636Y-96318243D01*
X165081641Y-96318247D01*
X165237192Y-96431260D01*
X165259978Y-96447815D01*
X165376501Y-96507187D01*
X165456393Y-96547895D01*
X165456396Y-96547896D01*
X165561221Y-96581955D01*
X165666049Y-96616015D01*
X165883778Y-96650500D01*
X165883779Y-96650500D01*
X166104221Y-96650500D01*
X166104222Y-96650500D01*
X166321951Y-96616015D01*
X166531606Y-96547895D01*
X166728022Y-96447815D01*
X166906365Y-96318242D01*
X166956924Y-96267682D01*
X167018245Y-96234198D01*
X167087936Y-96239182D01*
X167143870Y-96281053D01*
X167160786Y-96312030D01*
X167190646Y-96392087D01*
X167190649Y-96392093D01*
X167276809Y-96507187D01*
X167276812Y-96507190D01*
X167391906Y-96593350D01*
X167391913Y-96593354D01*
X167526620Y-96643596D01*
X167526627Y-96643598D01*
X167586155Y-96649999D01*
X167586172Y-96650000D01*
X168284000Y-96650000D01*
X168284000Y-95625277D01*
X168360306Y-95669333D01*
X168474756Y-95700000D01*
X168593244Y-95700000D01*
X168707694Y-95669333D01*
X168784000Y-95625277D01*
X168784000Y-96650000D01*
X169481828Y-96650000D01*
X169481844Y-96649999D01*
X169541372Y-96643598D01*
X169541379Y-96643596D01*
X169676086Y-96593354D01*
X169676093Y-96593350D01*
X169791187Y-96507190D01*
X169791190Y-96507187D01*
X169877350Y-96392093D01*
X169877354Y-96392086D01*
X169927596Y-96257379D01*
X169927598Y-96257372D01*
X169933999Y-96197844D01*
X169934000Y-96197827D01*
X169934000Y-95500000D01*
X168909278Y-95500000D01*
X168953333Y-95423694D01*
X168984000Y-95309244D01*
X168984000Y-95190756D01*
X168953333Y-95076306D01*
X168909278Y-95000000D01*
X169934000Y-95000000D01*
X169934000Y-94302172D01*
X169933999Y-94302155D01*
X169927598Y-94242627D01*
X169927596Y-94242620D01*
X169877354Y-94107913D01*
X169877350Y-94107906D01*
X169791190Y-93992812D01*
X169791187Y-93992809D01*
X169676093Y-93906649D01*
X169676086Y-93906645D01*
X169541379Y-93856403D01*
X169541372Y-93856401D01*
X169481844Y-93850000D01*
X168784000Y-93850000D01*
X168784000Y-94874722D01*
X168707694Y-94830667D01*
X168593244Y-94800000D01*
X168474756Y-94800000D01*
X168360306Y-94830667D01*
X168284000Y-94874722D01*
X168284000Y-93850000D01*
X167586155Y-93850000D01*
X167526627Y-93856401D01*
X167526620Y-93856403D01*
X167391913Y-93906645D01*
X167391906Y-93906649D01*
X167276812Y-93992809D01*
X167276809Y-93992812D01*
X167190649Y-94107906D01*
X167190643Y-94107918D01*
X167160785Y-94187969D01*
X167118914Y-94243903D01*
X167053449Y-94268319D01*
X166985176Y-94253467D01*
X166956923Y-94232316D01*
X166906363Y-94181756D01*
X166906358Y-94181752D01*
X166728025Y-94052187D01*
X166728024Y-94052186D01*
X166728022Y-94052185D01*
X166665096Y-94020122D01*
X166531606Y-93952104D01*
X166531603Y-93952103D01*
X166321952Y-93883985D01*
X166192071Y-93863414D01*
X166104222Y-93849500D01*
X165883778Y-93849500D01*
X165811201Y-93860995D01*
X165666047Y-93883985D01*
X165456396Y-93952103D01*
X165456393Y-93952104D01*
X165259974Y-94052187D01*
X165081641Y-94181752D01*
X165081636Y-94181756D01*
X164925756Y-94337636D01*
X164925752Y-94337641D01*
X164796187Y-94515974D01*
X164696104Y-94712393D01*
X164696103Y-94712396D01*
X164627985Y-94922047D01*
X164593500Y-95139778D01*
X155324577Y-95139778D01*
X155312741Y-95095606D01*
X155260080Y-95004394D01*
X155255686Y-95000000D01*
X156216609Y-95000000D01*
X156207990Y-94945586D01*
X156144755Y-94750970D01*
X156051859Y-94568650D01*
X155931582Y-94403105D01*
X155931582Y-94403104D01*
X155786895Y-94258417D01*
X155621349Y-94138140D01*
X155439029Y-94045244D01*
X155244413Y-93982009D01*
X155190000Y-93973390D01*
X155190000Y-94934314D01*
X155185606Y-94929920D01*
X155094394Y-94877259D01*
X154992661Y-94850000D01*
X154887339Y-94850000D01*
X154785606Y-94877259D01*
X154694394Y-94929920D01*
X154690000Y-94934314D01*
X154690000Y-93973390D01*
X154635586Y-93982009D01*
X154440970Y-94045244D01*
X154258650Y-94138140D01*
X154093105Y-94258417D01*
X154093104Y-94258417D01*
X153948417Y-94403104D01*
X153948417Y-94403105D01*
X153828140Y-94568650D01*
X153780765Y-94661629D01*
X153732790Y-94712425D01*
X153664969Y-94729220D01*
X153598834Y-94706682D01*
X153559795Y-94661629D01*
X153548990Y-94640424D01*
X153512287Y-94568390D01*
X153474205Y-94515974D01*
X153391971Y-94402786D01*
X153247213Y-94258028D01*
X153081613Y-94137715D01*
X153081612Y-94137714D01*
X153081610Y-94137713D01*
X153023111Y-94107906D01*
X152899223Y-94044781D01*
X152704534Y-93981522D01*
X152518799Y-93952105D01*
X152502352Y-93949500D01*
X152297648Y-93949500D01*
X152281201Y-93952105D01*
X152095465Y-93981522D01*
X151900776Y-94044781D01*
X151718386Y-94137715D01*
X151552786Y-94258028D01*
X151408028Y-94402786D01*
X151287715Y-94568386D01*
X151240485Y-94661080D01*
X151192510Y-94711876D01*
X151124689Y-94728671D01*
X151058554Y-94706134D01*
X151019515Y-94661080D01*
X151018883Y-94659840D01*
X150972287Y-94568390D01*
X150934205Y-94515974D01*
X150851971Y-94402786D01*
X150707213Y-94258028D01*
X150541613Y-94137715D01*
X150541612Y-94137714D01*
X150541610Y-94137713D01*
X150483111Y-94107906D01*
X150359223Y-94044781D01*
X150164534Y-93981522D01*
X149978799Y-93952105D01*
X149962352Y-93949500D01*
X149757648Y-93949500D01*
X149741201Y-93952105D01*
X149555465Y-93981522D01*
X149360776Y-94044781D01*
X149178386Y-94137715D01*
X149012786Y-94258028D01*
X148868028Y-94402786D01*
X148747715Y-94568386D01*
X148700485Y-94661080D01*
X148652510Y-94711876D01*
X148584689Y-94728671D01*
X148518554Y-94706134D01*
X148479515Y-94661080D01*
X148478883Y-94659840D01*
X148432287Y-94568390D01*
X148394205Y-94515974D01*
X148311971Y-94402786D01*
X148174319Y-94265134D01*
X148140834Y-94203811D01*
X148138000Y-94177453D01*
X148138000Y-93645433D01*
X148137999Y-93645429D01*
X148106566Y-93487405D01*
X148106565Y-93487398D01*
X148044902Y-93338532D01*
X148044902Y-93338531D01*
X148019303Y-93300220D01*
X148019298Y-93300211D01*
X147978206Y-93238713D01*
X161336500Y-93238713D01*
X161336500Y-93451287D01*
X161369754Y-93661243D01*
X161431085Y-93850000D01*
X161435444Y-93863414D01*
X161531951Y-94052820D01*
X161656890Y-94224786D01*
X161807213Y-94375109D01*
X161979179Y-94500048D01*
X161979181Y-94500049D01*
X161979184Y-94500051D01*
X162168588Y-94596557D01*
X162370757Y-94662246D01*
X162580713Y-94695500D01*
X162580714Y-94695500D01*
X162793286Y-94695500D01*
X162793287Y-94695500D01*
X163003243Y-94662246D01*
X163205412Y-94596557D01*
X163394816Y-94500051D01*
X163528252Y-94403105D01*
X163566786Y-94375109D01*
X163566788Y-94375106D01*
X163566792Y-94375104D01*
X163717104Y-94224792D01*
X163717106Y-94224788D01*
X163717109Y-94224786D01*
X163834997Y-94062525D01*
X163842051Y-94052816D01*
X163938557Y-93863412D01*
X164004246Y-93661243D01*
X164037500Y-93451287D01*
X164037500Y-93238713D01*
X164004246Y-93028757D01*
X163938557Y-92826588D01*
X163842051Y-92637184D01*
X163842049Y-92637181D01*
X163842048Y-92637179D01*
X163717109Y-92465213D01*
X163566786Y-92314890D01*
X163394820Y-92189951D01*
X163205414Y-92093444D01*
X163205413Y-92093443D01*
X163205412Y-92093443D01*
X163003243Y-92027754D01*
X163003241Y-92027753D01*
X163003240Y-92027753D01*
X162841957Y-92002208D01*
X162793287Y-91994500D01*
X162580713Y-91994500D01*
X162532042Y-92002208D01*
X162370760Y-92027753D01*
X162168585Y-92093444D01*
X161979179Y-92189951D01*
X161807213Y-92314890D01*
X161656890Y-92465213D01*
X161531951Y-92637179D01*
X161435444Y-92826585D01*
X161369753Y-93028760D01*
X161341910Y-93204554D01*
X161336500Y-93238713D01*
X147978206Y-93238713D01*
X147955382Y-93204554D01*
X147333448Y-92582620D01*
X147333444Y-92582617D01*
X147199471Y-92493098D01*
X147199468Y-92493097D01*
X147115623Y-92458368D01*
X147050602Y-92431435D01*
X147050594Y-92431433D01*
X146892570Y-92400000D01*
X146892566Y-92400000D01*
X143590566Y-92400000D01*
X131017566Y-92400000D01*
X116539566Y-92400000D01*
X112596434Y-92400000D01*
X112596429Y-92400000D01*
X112438405Y-92431433D01*
X112438397Y-92431435D01*
X112290995Y-92492492D01*
X112290993Y-92492493D01*
X112289529Y-92493099D01*
X112289525Y-92493101D01*
X112155559Y-92582614D01*
X112155551Y-92582620D01*
X109149205Y-95588966D01*
X109087882Y-95622451D01*
X109042126Y-95623758D01*
X109035704Y-95622741D01*
X108955830Y-95610090D01*
X108870027Y-95596500D01*
X108625973Y-95596500D01*
X108570093Y-95605350D01*
X108384927Y-95634678D01*
X108152812Y-95710097D01*
X107935357Y-95820896D01*
X107737923Y-95964339D01*
X107737918Y-95964343D01*
X107565343Y-96136918D01*
X107565339Y-96136923D01*
X107421896Y-96334357D01*
X107311097Y-96551812D01*
X107235678Y-96783927D01*
X107197500Y-97024973D01*
X100598500Y-97024973D01*
X100560321Y-96783924D01*
X100484904Y-96551815D01*
X100374106Y-96334361D01*
X100335376Y-96281053D01*
X100230660Y-96136923D01*
X100230656Y-96136918D01*
X100058081Y-95964343D01*
X100058076Y-95964339D01*
X99860642Y-95820896D01*
X99860641Y-95820895D01*
X99860639Y-95820894D01*
X99643185Y-95710096D01*
X99411076Y-95634679D01*
X99411074Y-95634678D01*
X99411072Y-95634678D01*
X99242769Y-95608021D01*
X99170027Y-95596500D01*
X98925973Y-95596500D01*
X98870093Y-95605350D01*
X98684927Y-95634678D01*
X98452812Y-95710097D01*
X98235357Y-95820896D01*
X98037923Y-95964339D01*
X98037918Y-95964343D01*
X97865343Y-96136918D01*
X97865339Y-96136923D01*
X97721896Y-96334357D01*
X97611097Y-96551812D01*
X97535678Y-96783927D01*
X97497500Y-97024973D01*
X96901500Y-97024973D01*
X96901500Y-90173051D01*
X96901649Y-90166967D01*
X96907199Y-90053990D01*
X96908499Y-90027532D01*
X97793239Y-90027532D01*
X97793239Y-90312467D01*
X97825137Y-90595578D01*
X97825140Y-90595592D01*
X97888541Y-90873371D01*
X97888545Y-90873383D01*
X97982647Y-91142309D01*
X97982650Y-91142317D01*
X98106265Y-91399007D01*
X98106889Y-91400000D01*
X98257857Y-91640264D01*
X98435504Y-91863025D01*
X98636975Y-92064496D01*
X98859736Y-92242143D01*
X98975522Y-92314896D01*
X99100992Y-92393734D01*
X99357682Y-92517349D01*
X99357689Y-92517351D01*
X99357694Y-92517354D01*
X99544197Y-92582614D01*
X99626616Y-92611454D01*
X99626628Y-92611458D01*
X99904407Y-92674860D01*
X99904416Y-92674861D01*
X99904421Y-92674862D01*
X100093161Y-92696127D01*
X100187533Y-92706760D01*
X100187536Y-92706761D01*
X100187539Y-92706761D01*
X100472464Y-92706761D01*
X100472465Y-92706760D01*
X100617159Y-92690457D01*
X100755578Y-92674862D01*
X100755581Y-92674861D01*
X100755593Y-92674860D01*
X101033372Y-92611458D01*
X101302306Y-92517354D01*
X101302314Y-92517350D01*
X101302317Y-92517349D01*
X101559007Y-92393734D01*
X101559007Y-92393733D01*
X101559013Y-92393731D01*
X101800264Y-92242143D01*
X102023025Y-92064496D01*
X102224496Y-91863025D01*
X102402143Y-91640264D01*
X102553731Y-91399013D01*
X102622029Y-91257190D01*
X102677349Y-91142317D01*
X102677350Y-91142314D01*
X102677354Y-91142306D01*
X102745399Y-90947844D01*
X105196000Y-90947844D01*
X105202401Y-91007372D01*
X105202403Y-91007379D01*
X105252645Y-91142086D01*
X105252649Y-91142093D01*
X105338809Y-91257187D01*
X105338812Y-91257190D01*
X105453906Y-91343350D01*
X105453913Y-91343354D01*
X105588620Y-91393596D01*
X105588627Y-91393598D01*
X105648155Y-91399999D01*
X105648172Y-91400000D01*
X107446000Y-91400000D01*
X107946000Y-91400000D01*
X109743828Y-91400000D01*
X109743844Y-91399999D01*
X109803372Y-91393598D01*
X109803379Y-91393596D01*
X109938086Y-91343354D01*
X109938093Y-91343350D01*
X110053187Y-91257190D01*
X110053190Y-91257187D01*
X110139350Y-91142093D01*
X110139354Y-91142086D01*
X110189596Y-91007379D01*
X110189598Y-91007372D01*
X110195999Y-90947844D01*
X110196000Y-90947827D01*
X110196000Y-89150000D01*
X107946000Y-89150000D01*
X107946000Y-91400000D01*
X107446000Y-91400000D01*
X107446000Y-89150000D01*
X105196000Y-89150000D01*
X105196000Y-90947844D01*
X102745399Y-90947844D01*
X102771458Y-90873372D01*
X102834860Y-90595593D01*
X102866761Y-90312461D01*
X102866761Y-90027539D01*
X102834860Y-89744407D01*
X102771458Y-89466628D01*
X102677354Y-89197694D01*
X102654386Y-89150000D01*
X102553734Y-88940992D01*
X102505177Y-88863714D01*
X102402143Y-88699736D01*
X102224496Y-88476975D01*
X102023025Y-88275504D01*
X101800264Y-88097857D01*
X101559013Y-87946269D01*
X101559014Y-87946269D01*
X101559007Y-87946265D01*
X101302317Y-87822650D01*
X101302309Y-87822647D01*
X101033383Y-87728545D01*
X101033371Y-87728541D01*
X100818994Y-87679611D01*
X100755593Y-87665140D01*
X100755590Y-87665139D01*
X100755578Y-87665137D01*
X100472467Y-87633239D01*
X100472461Y-87633239D01*
X100187539Y-87633239D01*
X100187532Y-87633239D01*
X99904421Y-87665137D01*
X99904407Y-87665140D01*
X99626628Y-87728541D01*
X99626616Y-87728545D01*
X99357690Y-87822647D01*
X99357682Y-87822650D01*
X99100992Y-87946265D01*
X98859737Y-88097856D01*
X98636975Y-88275503D01*
X98435503Y-88476975D01*
X98257856Y-88699737D01*
X98106265Y-88940992D01*
X97982650Y-89197682D01*
X97982647Y-89197690D01*
X97888545Y-89466616D01*
X97888541Y-89466628D01*
X97825140Y-89744407D01*
X97825137Y-89744421D01*
X97793239Y-90027532D01*
X96908499Y-90027532D01*
X96917710Y-89840027D01*
X96918903Y-89827920D01*
X96931291Y-89744407D01*
X96966486Y-89507144D01*
X96968854Y-89495237D01*
X97047653Y-89180654D01*
X97051176Y-89169039D01*
X97160434Y-88863682D01*
X97165073Y-88852485D01*
X97303740Y-88559297D01*
X97309456Y-88548605D01*
X97476185Y-88270433D01*
X97482915Y-88260360D01*
X97676126Y-87999847D01*
X97683808Y-87990487D01*
X97901609Y-87750179D01*
X97910179Y-87741609D01*
X98150487Y-87523808D01*
X98159847Y-87516126D01*
X98420360Y-87322915D01*
X98430433Y-87316185D01*
X98708605Y-87149456D01*
X98719297Y-87143740D01*
X99012485Y-87005073D01*
X99023682Y-87000434D01*
X99329039Y-86891176D01*
X99340654Y-86887653D01*
X99655237Y-86808854D01*
X99667144Y-86806486D01*
X99987923Y-86758902D01*
X100000027Y-86757710D01*
X100326967Y-86741648D01*
X100333051Y-86741500D01*
X100384851Y-86741500D01*
X105072000Y-86741500D01*
X105139039Y-86761185D01*
G37*
%TD.AperFunction*%
%TD*%
M02*
