%TF.GenerationSoftware,KiCad,Pcbnew,8.0.1-rc1*%
%TF.CreationDate,2024-07-22T16:01:23-05:00*%
%TF.ProjectId,Waveform_Blinky,57617665-666f-4726-9d5f-426c696e6b79,1.0*%
%TF.SameCoordinates,Original*%
%TF.FileFunction,Copper,L2,Bot*%
%TF.FilePolarity,Positive*%
%FSLAX46Y46*%
G04 Gerber Fmt 4.6, Leading zero omitted, Abs format (unit mm)*
G04 Created by KiCad (PCBNEW 8.0.1-rc1) date 2024-07-22 16:01:23*
%MOMM*%
%LPD*%
G01*
G04 APERTURE LIST*
G04 Aperture macros list*
%AMRoundRect*
0 Rectangle with rounded corners*
0 $1 Rounding radius*
0 $2 $3 $4 $5 $6 $7 $8 $9 X,Y pos of 4 corners*
0 Add a 4 corners polygon primitive as box body*
4,1,4,$2,$3,$4,$5,$6,$7,$8,$9,$2,$3,0*
0 Add four circle primitives for the rounded corners*
1,1,$1+$1,$2,$3*
1,1,$1+$1,$4,$5*
1,1,$1+$1,$6,$7*
1,1,$1+$1,$8,$9*
0 Add four rect primitives between the rounded corners*
20,1,$1+$1,$2,$3,$4,$5,0*
20,1,$1+$1,$4,$5,$6,$7,0*
20,1,$1+$1,$6,$7,$8,$9,0*
20,1,$1+$1,$8,$9,$2,$3,0*%
G04 Aperture macros list end*
%TA.AperFunction,ComponentPad*%
%ADD10RoundRect,0.249900X-0.800100X0.800100X-0.800100X-0.800100X0.800100X-0.800100X0.800100X0.800100X0*%
%TD*%
%TA.AperFunction,ComponentPad*%
%ADD11C,2.100000*%
%TD*%
%TA.AperFunction,ComponentPad*%
%ADD12O,1.700000X1.700000*%
%TD*%
%TA.AperFunction,ComponentPad*%
%ADD13R,1.600000X1.600000*%
%TD*%
%TA.AperFunction,ComponentPad*%
%ADD14O,1.600000X1.600000*%
%TD*%
%TA.AperFunction,ComponentPad*%
%ADD15R,1.800000X1.800000*%
%TD*%
%TA.AperFunction,ComponentPad*%
%ADD16C,1.800000*%
%TD*%
%TA.AperFunction,ViaPad*%
%ADD17C,0.508000*%
%TD*%
%TA.AperFunction,Conductor*%
%ADD18C,0.635000*%
%TD*%
G04 APERTURE END LIST*
D10*
%TO.P,J1,1,Pin_1*%
%TO.N,-4.5V*%
X108748000Y-101183000D03*
D11*
%TO.P,J1,2,Pin_2*%
%TO.N,+4.5V*%
X108748000Y-97147000D03*
%TD*%
D12*
%TO.P,TP3,1,1*%
%TO.N,Net-(U2A--)*%
X143383000Y-107823000D03*
%TD*%
D13*
%TO.P,U1,1*%
%TO.N,Net-(R1-Pad1)*%
X116332000Y-102870000D03*
D14*
%TO.P,U1,2,-*%
%TO.N,Net-(U1A--)*%
X118872000Y-102870000D03*
%TO.P,U1,3,+*%
%TO.N,GND*%
X121412000Y-102870000D03*
%TO.P,U1,4,V-*%
%TO.N,-4.5V*%
X123952000Y-102870000D03*
%TO.P,U1,5,+*%
%TO.N,Net-(U1A--)*%
X123952000Y-95250000D03*
%TO.P,U1,6,-*%
%TO.N,Net-(U1B--)*%
X121412000Y-95250000D03*
%TO.P,U1,7*%
%TO.N,Net-(U2A-+)*%
X118872000Y-95250000D03*
%TO.P,U1,8,V+*%
%TO.N,+4.5V*%
X116332000Y-95250000D03*
%TD*%
D13*
%TO.P,U2,1*%
%TO.N,Net-(U2A--)*%
X131826000Y-102870000D03*
D14*
%TO.P,U2,2,-*%
X134366000Y-102870000D03*
%TO.P,U2,3,+*%
%TO.N,Net-(U2A-+)*%
X136906000Y-102870000D03*
%TO.P,U2,4,V-*%
%TO.N,-4.5V*%
X139446000Y-102870000D03*
%TO.P,U2,5,+*%
%TO.N,Net-(U2B-+)*%
X139446000Y-95250000D03*
%TO.P,U2,6,-*%
%TO.N,GND*%
X136906000Y-95250000D03*
%TO.P,U2,7*%
X134366000Y-95250000D03*
%TO.P,U2,8,V+*%
%TO.N,+4.5V*%
X131826000Y-95250000D03*
%TD*%
D12*
%TO.P,TP4,1,1*%
%TO.N,Net-(R11-Pad1)*%
X162687000Y-93345000D03*
%TD*%
D15*
%TO.P,D2,1,K*%
%TO.N,GND*%
X168534000Y-102870000D03*
D16*
%TO.P,D2,2,A*%
%TO.N,Net-(D2-A)*%
X165994000Y-102870000D03*
%TD*%
D12*
%TO.P,TP2,1,1*%
%TO.N,GND*%
X143383000Y-90551000D03*
%TD*%
D13*
%TO.P,U3,1*%
%TO.N,Net-(R10-Pad1)*%
X147320000Y-102870000D03*
D14*
%TO.P,U3,2,-*%
%TO.N,GND*%
X149860000Y-102870000D03*
%TO.P,U3,3,+*%
%TO.N,Net-(U2A--)*%
X152400000Y-102870000D03*
%TO.P,U3,4,V-*%
%TO.N,-4.5V*%
X154940000Y-102870000D03*
%TO.P,U3,5,+*%
%TO.N,GND*%
X154940000Y-95250000D03*
%TO.P,U3,6,-*%
%TO.N,Net-(U2A--)*%
X152400000Y-95250000D03*
%TO.P,U3,7*%
%TO.N,Net-(R11-Pad1)*%
X149860000Y-95250000D03*
%TO.P,U3,8,V+*%
%TO.N,+4.5V*%
X147320000Y-95250000D03*
%TD*%
D12*
%TO.P,TP5,1,1*%
%TO.N,Net-(R10-Pad1)*%
X162687000Y-104775000D03*
%TD*%
D15*
%TO.P,D1,1,K*%
%TO.N,GND*%
X168534000Y-95250000D03*
D16*
%TO.P,D1,2,A*%
%TO.N,Net-(D1-A)*%
X165994000Y-95250000D03*
%TD*%
D17*
%TO.N,GND*%
X157734000Y-91821000D03*
X127635000Y-110490000D03*
X157607000Y-106299000D03*
X122174000Y-110490000D03*
X117094000Y-90551000D03*
X116967000Y-110490000D03*
%TO.N,+4.5V*%
X143510000Y-93218000D03*
%TO.N,-4.5V*%
X143510000Y-105156000D03*
%TO.N,Net-(U2A-+)*%
X127635000Y-99060000D03*
X123825000Y-99060000D03*
%TD*%
D18*
%TO.N,+4.5V*%
X146812000Y-93218000D02*
X147320000Y-93726000D01*
X116459000Y-93218000D02*
X130937000Y-93218000D01*
X131826000Y-95250000D02*
X131826000Y-93218000D01*
X143510000Y-93218000D02*
X146812000Y-93218000D01*
X108748000Y-97147000D02*
X112677000Y-93218000D01*
X116332000Y-93345000D02*
X116459000Y-93218000D01*
X116332000Y-95250000D02*
X116332000Y-93345000D01*
X112677000Y-93218000D02*
X116459000Y-93218000D01*
X130937000Y-93218000D02*
X143510000Y-93218000D01*
X147320000Y-93726000D02*
X147320000Y-95250000D01*
%TO.N,-4.5V*%
X143510000Y-105156000D02*
X154305000Y-105156000D01*
X108748000Y-101183000D02*
X112721000Y-105156000D01*
X138557000Y-105156000D02*
X143510000Y-105156000D01*
X154305000Y-105156000D02*
X154940000Y-104521000D01*
X123952000Y-105156000D02*
X138557000Y-105156000D01*
X123952000Y-102870000D02*
X123952000Y-105156000D01*
X139446000Y-102870000D02*
X139446000Y-105156000D01*
X154940000Y-104521000D02*
X154940000Y-102870000D01*
X112721000Y-105156000D02*
X123952000Y-105156000D01*
%TO.N,Net-(U2A-+)*%
X123825000Y-99060000D02*
X127635000Y-99060000D01*
%TO.N,Net-(U2A--)*%
X152400000Y-102870000D02*
X152400000Y-95250000D01*
%TD*%
%TA.AperFunction,Conductor*%
%TO.N,GND*%
G36*
X136585920Y-95004394D02*
G01*
X136533259Y-95095606D01*
X136506000Y-95197339D01*
X136506000Y-95302661D01*
X136533259Y-95404394D01*
X136585920Y-95495606D01*
X136590314Y-95500000D01*
X134681686Y-95500000D01*
X134686080Y-95495606D01*
X134738741Y-95404394D01*
X134766000Y-95302661D01*
X134766000Y-95197339D01*
X134738741Y-95095606D01*
X134686080Y-95004394D01*
X134681686Y-95000000D01*
X136590314Y-95000000D01*
X136585920Y-95004394D01*
G37*
%TD.AperFunction*%
%TA.AperFunction,Conductor*%
G36*
X168913030Y-86741648D02*
G01*
X169239972Y-86757710D01*
X169252074Y-86758902D01*
X169572850Y-86806484D01*
X169584760Y-86808853D01*
X169899349Y-86887654D01*
X169910966Y-86891179D01*
X170216292Y-87000426D01*
X170227530Y-87005081D01*
X170337212Y-87056956D01*
X170520682Y-87143730D01*
X170531403Y-87149461D01*
X170620721Y-87202996D01*
X170809542Y-87316171D01*
X170819660Y-87322931D01*
X171080128Y-87516107D01*
X171089534Y-87523827D01*
X171329808Y-87741599D01*
X171338399Y-87750190D01*
X171523277Y-87954171D01*
X171556171Y-87990464D01*
X171563891Y-87999870D01*
X171757067Y-88260338D01*
X171763827Y-88270456D01*
X171930532Y-88548586D01*
X171936269Y-88559318D01*
X172074920Y-88852470D01*
X172079571Y-88863699D01*
X172188816Y-89169018D01*
X172192348Y-89180662D01*
X172271141Y-89495221D01*
X172273515Y-89507156D01*
X172321096Y-89827920D01*
X172322289Y-89840030D01*
X172338349Y-90166925D01*
X172338498Y-90173010D01*
X172338498Y-90234834D01*
X172338500Y-90234859D01*
X172338500Y-116582948D01*
X172338351Y-116589033D01*
X172322289Y-116915969D01*
X172321096Y-116928079D01*
X172273515Y-117248843D01*
X172271141Y-117260778D01*
X172192348Y-117575337D01*
X172188816Y-117586981D01*
X172079577Y-117892285D01*
X172074920Y-117903528D01*
X171936269Y-118196682D01*
X171930532Y-118207414D01*
X171763824Y-118485550D01*
X171757067Y-118495662D01*
X171563890Y-118756129D01*
X171556177Y-118765528D01*
X171338407Y-119005802D01*
X171329802Y-119014407D01*
X171089528Y-119232177D01*
X171080129Y-119239890D01*
X170819662Y-119433067D01*
X170809550Y-119439824D01*
X170531414Y-119606532D01*
X170520682Y-119612269D01*
X170227528Y-119750920D01*
X170216292Y-119755574D01*
X170052701Y-119814108D01*
X169910981Y-119864816D01*
X169899337Y-119868348D01*
X169584778Y-119947141D01*
X169572843Y-119949515D01*
X169252079Y-119997096D01*
X169239969Y-119998289D01*
X168931241Y-120013456D01*
X168913032Y-120014351D01*
X168906949Y-120014500D01*
X100333051Y-120014500D01*
X100326967Y-120014351D01*
X100307687Y-120013403D01*
X100000030Y-119998289D01*
X99987920Y-119997096D01*
X99667156Y-119949515D01*
X99655221Y-119947141D01*
X99340662Y-119868348D01*
X99329018Y-119864816D01*
X99023700Y-119755571D01*
X99012471Y-119750920D01*
X98719317Y-119612269D01*
X98708590Y-119606534D01*
X98430448Y-119439823D01*
X98420346Y-119433074D01*
X98159860Y-119239883D01*
X98150471Y-119232177D01*
X97910189Y-119014399D01*
X97901600Y-119005810D01*
X97683817Y-118765522D01*
X97676118Y-118756142D01*
X97482922Y-118495648D01*
X97476175Y-118485550D01*
X97353479Y-118280843D01*
X97309460Y-118207402D01*
X97303736Y-118196694D01*
X97165076Y-117903521D01*
X97160432Y-117892309D01*
X97051178Y-117586966D01*
X97047651Y-117575337D01*
X97040471Y-117546671D01*
X96968855Y-117260765D01*
X96966484Y-117248843D01*
X96918903Y-116928079D01*
X96917710Y-116915968D01*
X96901649Y-116589032D01*
X96901500Y-116582948D01*
X96901500Y-107823000D01*
X142027341Y-107823000D01*
X142047936Y-108058403D01*
X142047938Y-108058413D01*
X142109094Y-108286655D01*
X142109096Y-108286659D01*
X142109097Y-108286663D01*
X142208965Y-108500830D01*
X142208967Y-108500834D01*
X142317281Y-108655521D01*
X142344505Y-108694401D01*
X142511599Y-108861495D01*
X142608384Y-108929265D01*
X142705165Y-108997032D01*
X142705167Y-108997033D01*
X142705170Y-108997035D01*
X142919337Y-109096903D01*
X143147592Y-109158063D01*
X143335918Y-109174539D01*
X143382999Y-109178659D01*
X143383000Y-109178659D01*
X143383001Y-109178659D01*
X143422234Y-109175226D01*
X143618408Y-109158063D01*
X143846663Y-109096903D01*
X144060830Y-108997035D01*
X144254401Y-108861495D01*
X144421495Y-108694401D01*
X144557035Y-108500830D01*
X144656903Y-108286663D01*
X144718063Y-108058408D01*
X144738659Y-107823000D01*
X144718063Y-107587592D01*
X144656903Y-107359337D01*
X144557035Y-107145171D01*
X144421495Y-106951599D01*
X144421494Y-106951597D01*
X144254402Y-106784506D01*
X144254395Y-106784501D01*
X144060834Y-106648967D01*
X144060830Y-106648965D01*
X144060828Y-106648964D01*
X143846663Y-106549097D01*
X143846659Y-106549096D01*
X143846655Y-106549094D01*
X143618413Y-106487938D01*
X143618403Y-106487936D01*
X143383001Y-106467341D01*
X143382999Y-106467341D01*
X143147596Y-106487936D01*
X143147586Y-106487938D01*
X142919344Y-106549094D01*
X142919335Y-106549098D01*
X142705171Y-106648964D01*
X142705169Y-106648965D01*
X142511597Y-106784505D01*
X142344505Y-106951597D01*
X142208965Y-107145169D01*
X142208964Y-107145171D01*
X142109098Y-107359335D01*
X142109094Y-107359344D01*
X142047938Y-107587586D01*
X142047936Y-107587596D01*
X142027341Y-107822999D01*
X142027341Y-107823000D01*
X96901500Y-107823000D01*
X96901500Y-101305026D01*
X97497500Y-101305026D01*
X97524643Y-101476403D01*
X97535679Y-101546076D01*
X97611096Y-101778185D01*
X97665658Y-101885270D01*
X97721896Y-101995642D01*
X97865339Y-102193076D01*
X97865343Y-102193081D01*
X98037918Y-102365656D01*
X98037923Y-102365660D01*
X98181536Y-102470000D01*
X98235361Y-102509106D01*
X98452815Y-102619904D01*
X98684924Y-102695321D01*
X98925973Y-102733500D01*
X98925974Y-102733500D01*
X99170026Y-102733500D01*
X99170027Y-102733500D01*
X99411076Y-102695321D01*
X99643185Y-102619904D01*
X99860639Y-102509106D01*
X100058083Y-102365655D01*
X100230655Y-102193083D01*
X100374106Y-101995639D01*
X100484904Y-101778185D01*
X100560321Y-101546076D01*
X100598500Y-101305027D01*
X100598500Y-101060973D01*
X100560321Y-100819924D01*
X100484904Y-100587815D01*
X100374106Y-100370361D01*
X100346883Y-100332891D01*
X100230660Y-100172923D01*
X100230656Y-100172918D01*
X100058081Y-100000343D01*
X100058076Y-100000339D01*
X99860642Y-99856896D01*
X99860641Y-99856895D01*
X99860639Y-99856894D01*
X99643185Y-99746096D01*
X99411076Y-99670679D01*
X99411074Y-99670678D01*
X99411072Y-99670678D01*
X99236314Y-99642999D01*
X99170027Y-99632500D01*
X98925973Y-99632500D01*
X98870093Y-99641350D01*
X98684927Y-99670678D01*
X98452812Y-99746097D01*
X98235357Y-99856896D01*
X98037923Y-100000339D01*
X98037918Y-100000343D01*
X97865343Y-100172918D01*
X97865339Y-100172923D01*
X97721896Y-100370357D01*
X97611097Y-100587812D01*
X97535678Y-100819927D01*
X97497500Y-101060973D01*
X97497500Y-101305026D01*
X96901500Y-101305026D01*
X96901500Y-99140570D01*
X123007000Y-99140570D01*
X123038433Y-99298594D01*
X123038435Y-99298602D01*
X123100096Y-99447466D01*
X123189619Y-99581447D01*
X123303552Y-99695380D01*
X123437533Y-99784903D01*
X123511965Y-99815733D01*
X123586398Y-99846565D01*
X123744429Y-99877999D01*
X123744433Y-99878000D01*
X123744434Y-99878000D01*
X127715567Y-99878000D01*
X127715568Y-99877999D01*
X127873602Y-99846565D01*
X128000666Y-99793932D01*
X128022466Y-99784903D01*
X128022466Y-99784902D01*
X128022468Y-99784902D01*
X128156445Y-99695382D01*
X128270382Y-99581445D01*
X128359902Y-99447468D01*
X128421565Y-99298602D01*
X128453000Y-99140566D01*
X128453000Y-98979434D01*
X128421565Y-98821398D01*
X128372230Y-98702293D01*
X128359903Y-98672533D01*
X128270380Y-98538552D01*
X128156447Y-98424619D01*
X128022466Y-98335096D01*
X127873602Y-98273435D01*
X127873594Y-98273433D01*
X127715570Y-98242000D01*
X127715566Y-98242000D01*
X123744434Y-98242000D01*
X123744429Y-98242000D01*
X123586405Y-98273433D01*
X123586397Y-98273435D01*
X123437533Y-98335096D01*
X123303552Y-98424619D01*
X123189619Y-98538552D01*
X123100096Y-98672533D01*
X123038435Y-98821397D01*
X123038433Y-98821405D01*
X123007000Y-98979429D01*
X123007000Y-99140570D01*
X96901500Y-99140570D01*
X96901500Y-97269026D01*
X97497500Y-97269026D01*
X97535678Y-97510072D01*
X97611097Y-97742187D01*
X97721896Y-97959642D01*
X97865339Y-98157076D01*
X97865343Y-98157081D01*
X98037918Y-98329656D01*
X98037923Y-98329660D01*
X98141977Y-98405259D01*
X98235361Y-98473106D01*
X98452815Y-98583904D01*
X98684924Y-98659321D01*
X98925973Y-98697500D01*
X98925974Y-98697500D01*
X99170026Y-98697500D01*
X99170027Y-98697500D01*
X99411076Y-98659321D01*
X99643185Y-98583904D01*
X99860639Y-98473106D01*
X100058083Y-98329655D01*
X100230655Y-98157083D01*
X100374106Y-97959639D01*
X100484904Y-97742185D01*
X100560321Y-97510076D01*
X100598500Y-97269027D01*
X100598500Y-97147000D01*
X107192706Y-97147000D01*
X107211853Y-97390297D01*
X107268830Y-97627619D01*
X107362222Y-97853089D01*
X107489737Y-98061173D01*
X107489738Y-98061176D01*
X107489741Y-98061179D01*
X107648241Y-98246759D01*
X107745300Y-98329655D01*
X107833823Y-98405261D01*
X107833826Y-98405262D01*
X108041910Y-98532777D01*
X108267381Y-98626169D01*
X108267378Y-98626169D01*
X108267384Y-98626170D01*
X108267388Y-98626172D01*
X108504698Y-98683146D01*
X108748000Y-98702294D01*
X108991302Y-98683146D01*
X109228612Y-98626172D01*
X109454089Y-98532777D01*
X109662179Y-98405259D01*
X109847759Y-98246759D01*
X110006259Y-98061179D01*
X110133777Y-97853089D01*
X110227172Y-97627612D01*
X110284146Y-97390302D01*
X110303294Y-97147000D01*
X110284146Y-96903698D01*
X110274024Y-96861538D01*
X110277513Y-96791757D01*
X110306914Y-96744911D01*
X112979508Y-94072319D01*
X113040831Y-94038834D01*
X113067189Y-94036000D01*
X115390000Y-94036000D01*
X115457039Y-94055685D01*
X115502794Y-94108489D01*
X115514000Y-94160000D01*
X115514000Y-94177451D01*
X115494315Y-94244490D01*
X115477681Y-94265132D01*
X115331954Y-94410858D01*
X115201432Y-94597265D01*
X115201431Y-94597267D01*
X115105261Y-94803502D01*
X115105258Y-94803511D01*
X115046366Y-95023302D01*
X115046364Y-95023313D01*
X115026532Y-95249998D01*
X115026532Y-95250001D01*
X115046364Y-95476686D01*
X115046366Y-95476697D01*
X115105258Y-95696488D01*
X115105261Y-95696497D01*
X115201431Y-95902732D01*
X115201432Y-95902734D01*
X115331954Y-96089141D01*
X115492858Y-96250045D01*
X115492861Y-96250047D01*
X115679266Y-96380568D01*
X115885504Y-96476739D01*
X116105308Y-96535635D01*
X116267230Y-96549801D01*
X116331998Y-96555468D01*
X116332000Y-96555468D01*
X116332002Y-96555468D01*
X116388673Y-96550509D01*
X116558692Y-96535635D01*
X116778496Y-96476739D01*
X116984734Y-96380568D01*
X117171139Y-96250047D01*
X117332047Y-96089139D01*
X117462568Y-95902734D01*
X117489618Y-95844724D01*
X117535790Y-95792285D01*
X117602983Y-95773133D01*
X117669865Y-95793348D01*
X117714382Y-95844725D01*
X117741429Y-95902728D01*
X117741432Y-95902734D01*
X117871954Y-96089141D01*
X118032858Y-96250045D01*
X118032861Y-96250047D01*
X118219266Y-96380568D01*
X118425504Y-96476739D01*
X118645308Y-96535635D01*
X118807230Y-96549801D01*
X118871998Y-96555468D01*
X118872000Y-96555468D01*
X118872002Y-96555468D01*
X118928673Y-96550509D01*
X119098692Y-96535635D01*
X119318496Y-96476739D01*
X119524734Y-96380568D01*
X119711139Y-96250047D01*
X119872047Y-96089139D01*
X120002568Y-95902734D01*
X120029618Y-95844724D01*
X120075790Y-95792285D01*
X120142983Y-95773133D01*
X120209865Y-95793348D01*
X120254382Y-95844725D01*
X120281429Y-95902728D01*
X120281432Y-95902734D01*
X120411954Y-96089141D01*
X120572858Y-96250045D01*
X120572861Y-96250047D01*
X120759266Y-96380568D01*
X120965504Y-96476739D01*
X121185308Y-96535635D01*
X121347230Y-96549801D01*
X121411998Y-96555468D01*
X121412000Y-96555468D01*
X121412002Y-96555468D01*
X121468673Y-96550509D01*
X121638692Y-96535635D01*
X121858496Y-96476739D01*
X122064734Y-96380568D01*
X122251139Y-96250047D01*
X122412047Y-96089139D01*
X122542568Y-95902734D01*
X122569618Y-95844724D01*
X122615790Y-95792285D01*
X122682983Y-95773133D01*
X122749865Y-95793348D01*
X122794382Y-95844725D01*
X122821429Y-95902728D01*
X122821432Y-95902734D01*
X122951954Y-96089141D01*
X123112858Y-96250045D01*
X123112861Y-96250047D01*
X123299266Y-96380568D01*
X123505504Y-96476739D01*
X123725308Y-96535635D01*
X123887230Y-96549801D01*
X123951998Y-96555468D01*
X123952000Y-96555468D01*
X123952002Y-96555468D01*
X124008673Y-96550509D01*
X124178692Y-96535635D01*
X124398496Y-96476739D01*
X124604734Y-96380568D01*
X124791139Y-96250047D01*
X124952047Y-96089139D01*
X125082568Y-95902734D01*
X125178739Y-95696496D01*
X125237635Y-95476692D01*
X125254634Y-95282384D01*
X125257468Y-95250001D01*
X125257468Y-95249998D01*
X125243960Y-95095606D01*
X125237635Y-95023308D01*
X125178739Y-94803504D01*
X125082568Y-94597266D01*
X124952047Y-94410861D01*
X124952045Y-94410858D01*
X124788868Y-94247681D01*
X124755383Y-94186358D01*
X124760367Y-94116666D01*
X124802239Y-94060733D01*
X124867703Y-94036316D01*
X124876549Y-94036000D01*
X130856434Y-94036000D01*
X130884000Y-94036000D01*
X130951039Y-94055685D01*
X130996794Y-94108489D01*
X131008000Y-94160000D01*
X131008000Y-94177451D01*
X130988315Y-94244490D01*
X130971681Y-94265132D01*
X130825954Y-94410858D01*
X130695432Y-94597265D01*
X130695431Y-94597267D01*
X130599261Y-94803502D01*
X130599258Y-94803511D01*
X130540366Y-95023302D01*
X130540364Y-95023313D01*
X130520532Y-95249998D01*
X130520532Y-95250001D01*
X130540364Y-95476686D01*
X130540366Y-95476697D01*
X130599258Y-95696488D01*
X130599261Y-95696497D01*
X130695431Y-95902732D01*
X130695432Y-95902734D01*
X130825954Y-96089141D01*
X130986858Y-96250045D01*
X130986861Y-96250047D01*
X131173266Y-96380568D01*
X131379504Y-96476739D01*
X131599308Y-96535635D01*
X131761230Y-96549801D01*
X131825998Y-96555468D01*
X131826000Y-96555468D01*
X131826002Y-96555468D01*
X131882673Y-96550509D01*
X132052692Y-96535635D01*
X132272496Y-96476739D01*
X132478734Y-96380568D01*
X132665139Y-96250047D01*
X132826047Y-96089139D01*
X132956568Y-95902734D01*
X132983895Y-95844129D01*
X133030064Y-95791695D01*
X133097257Y-95772542D01*
X133164139Y-95792757D01*
X133208657Y-95844133D01*
X133235865Y-95902482D01*
X133366342Y-96088820D01*
X133527179Y-96249657D01*
X133713517Y-96380134D01*
X133919673Y-96476265D01*
X133919682Y-96476269D01*
X134115999Y-96528872D01*
X134116000Y-96528871D01*
X134116000Y-95565686D01*
X134120394Y-95570080D01*
X134211606Y-95622741D01*
X134313339Y-95650000D01*
X134418661Y-95650000D01*
X134520394Y-95622741D01*
X134611606Y-95570080D01*
X134616000Y-95565686D01*
X134616000Y-96528872D01*
X134812317Y-96476269D01*
X134812326Y-96476265D01*
X135018482Y-96380134D01*
X135204820Y-96249657D01*
X135365657Y-96088820D01*
X135496134Y-95902481D01*
X135496135Y-95902479D01*
X135523618Y-95843543D01*
X135569790Y-95791103D01*
X135636983Y-95771951D01*
X135703864Y-95792166D01*
X135748382Y-95843543D01*
X135775864Y-95902479D01*
X135775865Y-95902481D01*
X135906342Y-96088820D01*
X136067179Y-96249657D01*
X136253517Y-96380134D01*
X136459673Y-96476265D01*
X136459682Y-96476269D01*
X136655999Y-96528872D01*
X136656000Y-96528871D01*
X136656000Y-95565686D01*
X136660394Y-95570080D01*
X136751606Y-95622741D01*
X136853339Y-95650000D01*
X136958661Y-95650000D01*
X137060394Y-95622741D01*
X137151606Y-95570080D01*
X137156000Y-95565686D01*
X137156000Y-96528872D01*
X137352317Y-96476269D01*
X137352326Y-96476265D01*
X137558482Y-96380134D01*
X137744820Y-96249657D01*
X137905657Y-96088820D01*
X138036132Y-95902484D01*
X138063341Y-95844134D01*
X138109513Y-95791695D01*
X138176707Y-95772542D01*
X138243588Y-95792757D01*
X138288106Y-95844133D01*
X138315431Y-95902732D01*
X138315432Y-95902734D01*
X138445954Y-96089141D01*
X138606858Y-96250045D01*
X138606861Y-96250047D01*
X138793266Y-96380568D01*
X138999504Y-96476739D01*
X139219308Y-96535635D01*
X139381230Y-96549801D01*
X139445998Y-96555468D01*
X139446000Y-96555468D01*
X139446002Y-96555468D01*
X139502673Y-96550509D01*
X139672692Y-96535635D01*
X139892496Y-96476739D01*
X140098734Y-96380568D01*
X140285139Y-96250047D01*
X140446047Y-96089139D01*
X140576568Y-95902734D01*
X140672739Y-95696496D01*
X140731635Y-95476692D01*
X140748634Y-95282384D01*
X140751468Y-95250001D01*
X140751468Y-95249998D01*
X140737960Y-95095606D01*
X140731635Y-95023308D01*
X140672739Y-94803504D01*
X140576568Y-94597266D01*
X140446047Y-94410861D01*
X140446045Y-94410858D01*
X140282868Y-94247681D01*
X140249383Y-94186358D01*
X140254367Y-94116666D01*
X140296239Y-94060733D01*
X140361703Y-94036316D01*
X140370549Y-94036000D01*
X143429434Y-94036000D01*
X146378000Y-94036000D01*
X146445039Y-94055685D01*
X146490794Y-94108489D01*
X146502000Y-94160000D01*
X146502000Y-94177451D01*
X146482315Y-94244490D01*
X146465681Y-94265132D01*
X146319954Y-94410858D01*
X146189432Y-94597265D01*
X146189431Y-94597267D01*
X146093261Y-94803502D01*
X146093258Y-94803511D01*
X146034366Y-95023302D01*
X146034364Y-95023313D01*
X146014532Y-95249998D01*
X146014532Y-95250001D01*
X146034364Y-95476686D01*
X146034366Y-95476697D01*
X146093258Y-95696488D01*
X146093261Y-95696497D01*
X146189431Y-95902732D01*
X146189432Y-95902734D01*
X146319954Y-96089141D01*
X146480858Y-96250045D01*
X146480861Y-96250047D01*
X146667266Y-96380568D01*
X146873504Y-96476739D01*
X147093308Y-96535635D01*
X147255230Y-96549801D01*
X147319998Y-96555468D01*
X147320000Y-96555468D01*
X147320002Y-96555468D01*
X147376673Y-96550509D01*
X147546692Y-96535635D01*
X147766496Y-96476739D01*
X147972734Y-96380568D01*
X148159139Y-96250047D01*
X148320047Y-96089139D01*
X148450568Y-95902734D01*
X148477618Y-95844724D01*
X148523790Y-95792285D01*
X148590983Y-95773133D01*
X148657865Y-95793348D01*
X148702382Y-95844725D01*
X148729429Y-95902728D01*
X148729432Y-95902734D01*
X148859954Y-96089141D01*
X149020858Y-96250045D01*
X149020861Y-96250047D01*
X149207266Y-96380568D01*
X149413504Y-96476739D01*
X149633308Y-96535635D01*
X149795230Y-96549801D01*
X149859998Y-96555468D01*
X149860000Y-96555468D01*
X149860002Y-96555468D01*
X149916673Y-96550509D01*
X150086692Y-96535635D01*
X150306496Y-96476739D01*
X150512734Y-96380568D01*
X150699139Y-96250047D01*
X150860047Y-96089139D01*
X150990568Y-95902734D01*
X151017618Y-95844724D01*
X151063790Y-95792285D01*
X151130983Y-95773133D01*
X151197865Y-95793348D01*
X151242382Y-95844725D01*
X151269429Y-95902728D01*
X151269432Y-95902734D01*
X151399954Y-96089141D01*
X151545681Y-96234868D01*
X151579166Y-96296191D01*
X151582000Y-96322549D01*
X151582000Y-101797451D01*
X151562315Y-101864490D01*
X151545681Y-101885132D01*
X151399954Y-102030858D01*
X151269433Y-102217264D01*
X151269432Y-102217266D01*
X151269315Y-102217518D01*
X151242106Y-102275867D01*
X151195933Y-102328306D01*
X151128739Y-102347457D01*
X151061858Y-102327241D01*
X151017342Y-102275865D01*
X150990135Y-102217520D01*
X150990134Y-102217518D01*
X150859657Y-102031179D01*
X150698820Y-101870342D01*
X150512482Y-101739865D01*
X150306328Y-101643734D01*
X150110000Y-101591127D01*
X150110000Y-102554314D01*
X150105606Y-102549920D01*
X150014394Y-102497259D01*
X149912661Y-102470000D01*
X149807339Y-102470000D01*
X149705606Y-102497259D01*
X149614394Y-102549920D01*
X149610000Y-102554314D01*
X149610000Y-101591127D01*
X149413671Y-101643734D01*
X149207517Y-101739865D01*
X149021179Y-101870342D01*
X148860339Y-102031182D01*
X148842806Y-102056222D01*
X148788229Y-102099845D01*
X148718730Y-102107037D01*
X148656376Y-102075513D01*
X148620963Y-102015283D01*
X148617943Y-101998349D01*
X148614091Y-101962516D01*
X148563797Y-101827671D01*
X148563793Y-101827664D01*
X148477547Y-101712455D01*
X148477544Y-101712452D01*
X148362335Y-101626206D01*
X148362328Y-101626202D01*
X148227482Y-101575908D01*
X148227483Y-101575908D01*
X148167883Y-101569501D01*
X148167881Y-101569500D01*
X148167873Y-101569500D01*
X148167864Y-101569500D01*
X146472129Y-101569500D01*
X146472123Y-101569501D01*
X146412516Y-101575908D01*
X146277671Y-101626202D01*
X146277664Y-101626206D01*
X146162455Y-101712452D01*
X146162452Y-101712455D01*
X146076206Y-101827664D01*
X146076202Y-101827671D01*
X146025908Y-101962517D01*
X146019501Y-102022116D01*
X146019500Y-102022135D01*
X146019500Y-103717870D01*
X146019501Y-103717876D01*
X146025908Y-103777483D01*
X146076202Y-103912328D01*
X146076206Y-103912335D01*
X146162452Y-104027544D01*
X146162455Y-104027547D01*
X146278921Y-104114734D01*
X146320792Y-104170667D01*
X146325776Y-104240359D01*
X146292290Y-104301682D01*
X146230967Y-104335166D01*
X146204610Y-104338000D01*
X140388000Y-104338000D01*
X140320961Y-104318315D01*
X140275206Y-104265511D01*
X140264000Y-104214000D01*
X140264000Y-103942549D01*
X140283685Y-103875510D01*
X140300319Y-103854868D01*
X140446045Y-103709141D01*
X140446047Y-103709139D01*
X140576568Y-103522734D01*
X140672739Y-103316496D01*
X140731635Y-103096692D01*
X140748634Y-102902384D01*
X140751468Y-102870001D01*
X140751468Y-102869998D01*
X140737960Y-102715606D01*
X140731635Y-102643308D01*
X140672739Y-102423504D01*
X140576568Y-102217266D01*
X140447613Y-102033098D01*
X140446045Y-102030858D01*
X140285141Y-101869954D01*
X140098734Y-101739432D01*
X140098732Y-101739431D01*
X139892497Y-101643261D01*
X139892488Y-101643258D01*
X139672697Y-101584366D01*
X139672693Y-101584365D01*
X139672692Y-101584365D01*
X139672691Y-101584364D01*
X139672686Y-101584364D01*
X139446002Y-101564532D01*
X139445998Y-101564532D01*
X139219313Y-101584364D01*
X139219302Y-101584366D01*
X138999511Y-101643258D01*
X138999502Y-101643261D01*
X138793267Y-101739431D01*
X138793265Y-101739432D01*
X138606858Y-101869954D01*
X138445954Y-102030858D01*
X138315432Y-102217265D01*
X138315431Y-102217267D01*
X138288382Y-102275275D01*
X138242209Y-102327714D01*
X138175016Y-102346866D01*
X138108135Y-102326650D01*
X138063618Y-102275275D01*
X138036686Y-102217520D01*
X138036568Y-102217266D01*
X137907613Y-102033098D01*
X137906045Y-102030858D01*
X137745141Y-101869954D01*
X137558734Y-101739432D01*
X137558732Y-101739431D01*
X137352497Y-101643261D01*
X137352488Y-101643258D01*
X137132697Y-101584366D01*
X137132693Y-101584365D01*
X137132692Y-101584365D01*
X137132691Y-101584364D01*
X137132686Y-101584364D01*
X136906002Y-101564532D01*
X136905998Y-101564532D01*
X136679313Y-101584364D01*
X136679302Y-101584366D01*
X136459511Y-101643258D01*
X136459502Y-101643261D01*
X136253267Y-101739431D01*
X136253265Y-101739432D01*
X136066858Y-101869954D01*
X135905954Y-102030858D01*
X135775432Y-102217265D01*
X135775431Y-102217267D01*
X135748382Y-102275275D01*
X135702209Y-102327714D01*
X135635016Y-102346866D01*
X135568135Y-102326650D01*
X135523618Y-102275275D01*
X135496686Y-102217520D01*
X135496568Y-102217266D01*
X135367613Y-102033098D01*
X135366045Y-102030858D01*
X135205141Y-101869954D01*
X135018734Y-101739432D01*
X135018732Y-101739431D01*
X134812497Y-101643261D01*
X134812488Y-101643258D01*
X134592697Y-101584366D01*
X134592693Y-101584365D01*
X134592692Y-101584365D01*
X134592691Y-101584364D01*
X134592686Y-101584364D01*
X134366002Y-101564532D01*
X134365998Y-101564532D01*
X134139313Y-101584364D01*
X134139302Y-101584366D01*
X133919511Y-101643258D01*
X133919502Y-101643261D01*
X133713267Y-101739431D01*
X133713265Y-101739432D01*
X133526858Y-101869954D01*
X133365954Y-102030858D01*
X133348725Y-102055464D01*
X133294147Y-102099088D01*
X133224648Y-102106280D01*
X133162294Y-102074757D01*
X133126882Y-102014526D01*
X133123861Y-101997591D01*
X133123651Y-101995639D01*
X133120091Y-101962517D01*
X133105043Y-101922172D01*
X133069797Y-101827671D01*
X133069793Y-101827664D01*
X132983547Y-101712455D01*
X132983544Y-101712452D01*
X132868335Y-101626206D01*
X132868328Y-101626202D01*
X132733482Y-101575908D01*
X132733483Y-101575908D01*
X132673883Y-101569501D01*
X132673881Y-101569500D01*
X132673873Y-101569500D01*
X132673864Y-101569500D01*
X130978129Y-101569500D01*
X130978123Y-101569501D01*
X130918516Y-101575908D01*
X130783671Y-101626202D01*
X130783664Y-101626206D01*
X130668455Y-101712452D01*
X130668452Y-101712455D01*
X130582206Y-101827664D01*
X130582202Y-101827671D01*
X130531908Y-101962517D01*
X130525501Y-102022116D01*
X130525500Y-102022135D01*
X130525500Y-103717870D01*
X130525501Y-103717876D01*
X130531908Y-103777483D01*
X130582202Y-103912328D01*
X130582206Y-103912335D01*
X130668452Y-104027544D01*
X130668455Y-104027547D01*
X130784921Y-104114734D01*
X130826792Y-104170667D01*
X130831776Y-104240359D01*
X130798290Y-104301682D01*
X130736967Y-104335166D01*
X130710610Y-104338000D01*
X124894000Y-104338000D01*
X124826961Y-104318315D01*
X124781206Y-104265511D01*
X124770000Y-104214000D01*
X124770000Y-103942549D01*
X124789685Y-103875510D01*
X124806319Y-103854868D01*
X124952045Y-103709141D01*
X124952047Y-103709139D01*
X125082568Y-103522734D01*
X125178739Y-103316496D01*
X125237635Y-103096692D01*
X125254634Y-102902384D01*
X125257468Y-102870001D01*
X125257468Y-102869998D01*
X125243960Y-102715606D01*
X125237635Y-102643308D01*
X125178739Y-102423504D01*
X125082568Y-102217266D01*
X124953613Y-102033098D01*
X124952045Y-102030858D01*
X124791141Y-101869954D01*
X124604734Y-101739432D01*
X124604732Y-101739431D01*
X124398497Y-101643261D01*
X124398488Y-101643258D01*
X124178697Y-101584366D01*
X124178693Y-101584365D01*
X124178692Y-101584365D01*
X124178691Y-101584364D01*
X124178686Y-101584364D01*
X123952002Y-101564532D01*
X123951998Y-101564532D01*
X123725313Y-101584364D01*
X123725302Y-101584366D01*
X123505511Y-101643258D01*
X123505502Y-101643261D01*
X123299267Y-101739431D01*
X123299265Y-101739432D01*
X123112858Y-101869954D01*
X122951954Y-102030858D01*
X122821433Y-102217264D01*
X122821432Y-102217266D01*
X122821315Y-102217518D01*
X122794106Y-102275867D01*
X122747933Y-102328306D01*
X122680739Y-102347457D01*
X122613858Y-102327241D01*
X122569342Y-102275865D01*
X122542135Y-102217520D01*
X122542134Y-102217518D01*
X122411657Y-102031179D01*
X122250820Y-101870342D01*
X122064482Y-101739865D01*
X121858328Y-101643734D01*
X121662000Y-101591127D01*
X121662000Y-102554314D01*
X121657606Y-102549920D01*
X121566394Y-102497259D01*
X121464661Y-102470000D01*
X121359339Y-102470000D01*
X121257606Y-102497259D01*
X121166394Y-102549920D01*
X121162000Y-102554314D01*
X121162000Y-101591127D01*
X120965671Y-101643734D01*
X120759517Y-101739865D01*
X120573179Y-101870342D01*
X120412342Y-102031179D01*
X120281867Y-102217515D01*
X120254657Y-102275867D01*
X120208484Y-102328306D01*
X120141290Y-102347457D01*
X120074409Y-102327241D01*
X120029893Y-102275865D01*
X120002685Y-102217518D01*
X120002568Y-102217266D01*
X119873613Y-102033098D01*
X119872045Y-102030858D01*
X119711141Y-101869954D01*
X119524734Y-101739432D01*
X119524732Y-101739431D01*
X119318497Y-101643261D01*
X119318488Y-101643258D01*
X119098697Y-101584366D01*
X119098693Y-101584365D01*
X119098692Y-101584365D01*
X119098691Y-101584364D01*
X119098686Y-101584364D01*
X118872002Y-101564532D01*
X118871998Y-101564532D01*
X118645313Y-101584364D01*
X118645302Y-101584366D01*
X118425511Y-101643258D01*
X118425502Y-101643261D01*
X118219267Y-101739431D01*
X118219265Y-101739432D01*
X118032858Y-101869954D01*
X117871954Y-102030858D01*
X117854725Y-102055464D01*
X117800147Y-102099088D01*
X117730648Y-102106280D01*
X117668294Y-102074757D01*
X117632882Y-102014526D01*
X117629861Y-101997591D01*
X117629651Y-101995639D01*
X117626091Y-101962517D01*
X117611043Y-101922172D01*
X117575797Y-101827671D01*
X117575793Y-101827664D01*
X117489547Y-101712455D01*
X117489544Y-101712452D01*
X117374335Y-101626206D01*
X117374328Y-101626202D01*
X117239482Y-101575908D01*
X117239483Y-101575908D01*
X117179883Y-101569501D01*
X117179881Y-101569500D01*
X117179873Y-101569500D01*
X117179864Y-101569500D01*
X115484129Y-101569500D01*
X115484123Y-101569501D01*
X115424516Y-101575908D01*
X115289671Y-101626202D01*
X115289664Y-101626206D01*
X115174455Y-101712452D01*
X115174452Y-101712455D01*
X115088206Y-101827664D01*
X115088202Y-101827671D01*
X115037908Y-101962517D01*
X115031501Y-102022116D01*
X115031500Y-102022135D01*
X115031500Y-103717870D01*
X115031501Y-103717876D01*
X115037908Y-103777483D01*
X115088202Y-103912328D01*
X115088206Y-103912335D01*
X115174452Y-104027544D01*
X115174455Y-104027547D01*
X115290921Y-104114734D01*
X115332792Y-104170667D01*
X115337776Y-104240359D01*
X115304290Y-104301682D01*
X115242967Y-104335166D01*
X115216610Y-104338000D01*
X113111189Y-104338000D01*
X113044150Y-104318315D01*
X113023508Y-104301681D01*
X110334818Y-101612991D01*
X110301333Y-101551668D01*
X110298499Y-101525310D01*
X110298499Y-100332908D01*
X110298498Y-100332891D01*
X110288000Y-100230123D01*
X110287999Y-100230120D01*
X110269044Y-100172917D01*
X110232823Y-100063609D01*
X110232819Y-100063603D01*
X110232818Y-100063600D01*
X110140734Y-99914310D01*
X110140731Y-99914306D01*
X110016693Y-99790268D01*
X110016689Y-99790265D01*
X109867399Y-99698181D01*
X109867393Y-99698178D01*
X109867391Y-99698177D01*
X109858950Y-99695380D01*
X109700878Y-99643000D01*
X109598100Y-99632500D01*
X107897908Y-99632500D01*
X107897891Y-99632501D01*
X107795123Y-99642999D01*
X107795120Y-99643000D01*
X107628611Y-99698176D01*
X107628600Y-99698181D01*
X107479310Y-99790265D01*
X107479306Y-99790268D01*
X107355268Y-99914306D01*
X107355265Y-99914310D01*
X107263181Y-100063600D01*
X107263176Y-100063611D01*
X107208000Y-100230121D01*
X107197500Y-100332893D01*
X107197500Y-102033091D01*
X107197501Y-102033108D01*
X107207999Y-102135876D01*
X107208000Y-102135879D01*
X107263176Y-102302388D01*
X107263181Y-102302399D01*
X107355265Y-102451689D01*
X107355268Y-102451693D01*
X107479306Y-102575731D01*
X107479310Y-102575734D01*
X107628600Y-102667818D01*
X107628603Y-102667819D01*
X107628609Y-102667823D01*
X107795123Y-102723000D01*
X107897901Y-102733500D01*
X109090310Y-102733499D01*
X109157349Y-102753184D01*
X109177991Y-102769818D01*
X112199551Y-105791379D01*
X112199554Y-105791382D01*
X112333525Y-105880898D01*
X112333531Y-105880902D01*
X112354211Y-105889468D01*
X112377124Y-105898959D01*
X112377129Y-105898960D01*
X112377133Y-105898962D01*
X112482398Y-105942565D01*
X112640429Y-105973999D01*
X112640433Y-105974000D01*
X112640434Y-105974000D01*
X154385567Y-105974000D01*
X154385568Y-105973999D01*
X154543602Y-105942565D01*
X154618035Y-105911733D01*
X154692468Y-105880903D01*
X154826445Y-105791382D01*
X155461442Y-105156383D01*
X155461445Y-105156382D01*
X155575382Y-105042445D01*
X155612398Y-104987046D01*
X155664903Y-104908468D01*
X155720187Y-104775000D01*
X161331341Y-104775000D01*
X161351936Y-105010403D01*
X161351938Y-105010413D01*
X161413094Y-105238655D01*
X161413096Y-105238659D01*
X161413097Y-105238663D01*
X161512965Y-105452830D01*
X161512967Y-105452834D01*
X161621281Y-105607521D01*
X161648505Y-105646401D01*
X161815599Y-105813495D01*
X161911860Y-105880898D01*
X162009165Y-105949032D01*
X162009167Y-105949033D01*
X162009170Y-105949035D01*
X162223337Y-106048903D01*
X162451592Y-106110063D01*
X162639918Y-106126539D01*
X162686999Y-106130659D01*
X162687000Y-106130659D01*
X162687001Y-106130659D01*
X162726234Y-106127226D01*
X162922408Y-106110063D01*
X163150663Y-106048903D01*
X163364830Y-105949035D01*
X163558401Y-105813495D01*
X163725495Y-105646401D01*
X163861035Y-105452830D01*
X163960903Y-105238663D01*
X164022063Y-105010408D01*
X164042659Y-104775000D01*
X164022063Y-104539592D01*
X163960903Y-104311337D01*
X163861035Y-104097171D01*
X163860732Y-104096737D01*
X163725494Y-103903597D01*
X163558402Y-103736506D01*
X163558395Y-103736501D01*
X163364834Y-103600967D01*
X163364830Y-103600965D01*
X163364828Y-103600964D01*
X163150663Y-103501097D01*
X163150659Y-103501096D01*
X163150655Y-103501094D01*
X162922413Y-103439938D01*
X162922403Y-103439936D01*
X162687001Y-103419341D01*
X162686999Y-103419341D01*
X162451596Y-103439936D01*
X162451586Y-103439938D01*
X162223344Y-103501094D01*
X162223335Y-103501098D01*
X162009171Y-103600964D01*
X162009169Y-103600965D01*
X161815597Y-103736505D01*
X161648505Y-103903597D01*
X161512965Y-104097169D01*
X161512964Y-104097171D01*
X161413098Y-104311335D01*
X161413094Y-104311344D01*
X161351938Y-104539586D01*
X161351936Y-104539596D01*
X161331341Y-104774999D01*
X161331341Y-104775000D01*
X155720187Y-104775000D01*
X155726565Y-104759602D01*
X155758000Y-104601565D01*
X155758000Y-104440434D01*
X155758000Y-103942549D01*
X155777685Y-103875510D01*
X155794319Y-103854868D01*
X155940045Y-103709141D01*
X155940047Y-103709139D01*
X156070568Y-103522734D01*
X156166739Y-103316496D01*
X156225635Y-103096692D01*
X156242634Y-102902384D01*
X156245468Y-102870006D01*
X164588700Y-102870006D01*
X164607864Y-103101297D01*
X164607866Y-103101308D01*
X164664842Y-103326300D01*
X164758075Y-103538848D01*
X164885016Y-103733147D01*
X164885019Y-103733151D01*
X164885021Y-103733153D01*
X165042216Y-103903913D01*
X165042219Y-103903915D01*
X165042222Y-103903918D01*
X165225365Y-104046464D01*
X165225371Y-104046468D01*
X165225374Y-104046470D01*
X165429497Y-104156936D01*
X165483479Y-104175468D01*
X165649015Y-104232297D01*
X165649017Y-104232297D01*
X165649019Y-104232298D01*
X165877951Y-104270500D01*
X165877952Y-104270500D01*
X166110048Y-104270500D01*
X166110049Y-104270500D01*
X166338981Y-104232298D01*
X166558503Y-104156936D01*
X166762626Y-104046470D01*
X166786939Y-104027547D01*
X166934963Y-103912335D01*
X166945784Y-103903913D01*
X166954511Y-103894432D01*
X167014394Y-103858441D01*
X167084232Y-103860538D01*
X167141850Y-103900060D01*
X167161924Y-103935080D01*
X167190645Y-104012086D01*
X167190649Y-104012093D01*
X167276809Y-104127187D01*
X167276812Y-104127190D01*
X167391906Y-104213350D01*
X167391913Y-104213354D01*
X167526620Y-104263596D01*
X167526627Y-104263598D01*
X167586155Y-104269999D01*
X167586172Y-104270000D01*
X168284000Y-104270000D01*
X168284000Y-103245277D01*
X168360306Y-103289333D01*
X168474756Y-103320000D01*
X168593244Y-103320000D01*
X168707694Y-103289333D01*
X168784000Y-103245277D01*
X168784000Y-104270000D01*
X169481828Y-104270000D01*
X169481844Y-104269999D01*
X169541372Y-104263598D01*
X169541379Y-104263596D01*
X169676086Y-104213354D01*
X169676093Y-104213350D01*
X169791187Y-104127190D01*
X169791190Y-104127187D01*
X169877350Y-104012093D01*
X169877354Y-104012086D01*
X169927596Y-103877379D01*
X169927598Y-103877372D01*
X169933999Y-103817844D01*
X169934000Y-103817827D01*
X169934000Y-103120000D01*
X168909278Y-103120000D01*
X168953333Y-103043694D01*
X168984000Y-102929244D01*
X168984000Y-102810756D01*
X168953333Y-102696306D01*
X168909278Y-102620000D01*
X169934000Y-102620000D01*
X169934000Y-101922172D01*
X169933999Y-101922155D01*
X169927598Y-101862627D01*
X169927596Y-101862620D01*
X169877354Y-101727913D01*
X169877350Y-101727906D01*
X169791190Y-101612812D01*
X169791187Y-101612809D01*
X169676093Y-101526649D01*
X169676086Y-101526645D01*
X169541379Y-101476403D01*
X169541372Y-101476401D01*
X169481844Y-101470000D01*
X168784000Y-101470000D01*
X168784000Y-102494722D01*
X168707694Y-102450667D01*
X168593244Y-102420000D01*
X168474756Y-102420000D01*
X168360306Y-102450667D01*
X168284000Y-102494722D01*
X168284000Y-101470000D01*
X167586155Y-101470000D01*
X167526627Y-101476401D01*
X167526620Y-101476403D01*
X167391913Y-101526645D01*
X167391906Y-101526649D01*
X167276812Y-101612809D01*
X167276809Y-101612812D01*
X167190649Y-101727906D01*
X167190646Y-101727911D01*
X167161924Y-101804920D01*
X167120052Y-101860853D01*
X167054588Y-101885270D01*
X166986315Y-101870418D01*
X166954514Y-101845571D01*
X166945784Y-101836087D01*
X166945779Y-101836083D01*
X166945777Y-101836081D01*
X166762634Y-101693535D01*
X166762628Y-101693531D01*
X166558504Y-101583064D01*
X166558495Y-101583061D01*
X166338984Y-101507702D01*
X166151404Y-101476401D01*
X166110049Y-101469500D01*
X165877951Y-101469500D01*
X165836596Y-101476401D01*
X165649015Y-101507702D01*
X165429504Y-101583061D01*
X165429495Y-101583064D01*
X165225371Y-101693531D01*
X165225365Y-101693535D01*
X165042222Y-101836081D01*
X165042219Y-101836084D01*
X165042216Y-101836086D01*
X165042216Y-101836087D01*
X165017791Y-101862620D01*
X164885016Y-102006852D01*
X164758075Y-102201151D01*
X164664842Y-102413699D01*
X164607866Y-102638691D01*
X164607864Y-102638702D01*
X164588700Y-102869993D01*
X164588700Y-102870006D01*
X156245468Y-102870006D01*
X156245468Y-102870001D01*
X156245468Y-102869998D01*
X156231960Y-102715606D01*
X156225635Y-102643308D01*
X156166739Y-102423504D01*
X156070568Y-102217266D01*
X155941613Y-102033098D01*
X155940045Y-102030858D01*
X155779141Y-101869954D01*
X155592734Y-101739432D01*
X155592732Y-101739431D01*
X155386497Y-101643261D01*
X155386488Y-101643258D01*
X155166697Y-101584366D01*
X155166693Y-101584365D01*
X155166692Y-101584365D01*
X155166691Y-101584364D01*
X155166686Y-101584364D01*
X154940002Y-101564532D01*
X154939998Y-101564532D01*
X154713313Y-101584364D01*
X154713302Y-101584366D01*
X154493511Y-101643258D01*
X154493502Y-101643261D01*
X154287267Y-101739431D01*
X154287265Y-101739432D01*
X154100858Y-101869954D01*
X153939954Y-102030858D01*
X153809432Y-102217265D01*
X153809431Y-102217267D01*
X153782382Y-102275275D01*
X153736209Y-102327714D01*
X153669016Y-102346866D01*
X153602135Y-102326650D01*
X153557618Y-102275275D01*
X153530686Y-102217520D01*
X153530568Y-102217266D01*
X153401613Y-102033098D01*
X153400045Y-102030858D01*
X153254319Y-101885132D01*
X153220834Y-101823809D01*
X153218000Y-101797451D01*
X153218000Y-96322549D01*
X153237685Y-96255510D01*
X153254319Y-96234868D01*
X153400045Y-96089141D01*
X153400047Y-96089139D01*
X153530568Y-95902734D01*
X153557895Y-95844129D01*
X153604064Y-95791695D01*
X153671257Y-95772542D01*
X153738139Y-95792757D01*
X153782657Y-95844133D01*
X153809865Y-95902482D01*
X153940342Y-96088820D01*
X154101179Y-96249657D01*
X154287517Y-96380134D01*
X154493673Y-96476265D01*
X154493682Y-96476269D01*
X154689999Y-96528872D01*
X154690000Y-96528871D01*
X154690000Y-95565686D01*
X154694394Y-95570080D01*
X154785606Y-95622741D01*
X154887339Y-95650000D01*
X154992661Y-95650000D01*
X155094394Y-95622741D01*
X155185606Y-95570080D01*
X155190000Y-95565686D01*
X155190000Y-96528872D01*
X155386317Y-96476269D01*
X155386326Y-96476265D01*
X155592482Y-96380134D01*
X155778820Y-96249657D01*
X155939657Y-96088820D01*
X156070134Y-95902482D01*
X156166265Y-95696326D01*
X156166269Y-95696317D01*
X156218872Y-95500000D01*
X155255686Y-95500000D01*
X155260080Y-95495606D01*
X155312741Y-95404394D01*
X155340000Y-95302661D01*
X155340000Y-95250006D01*
X164588700Y-95250006D01*
X164607864Y-95481297D01*
X164607866Y-95481308D01*
X164664842Y-95706300D01*
X164758075Y-95918848D01*
X164885016Y-96113147D01*
X164885019Y-96113151D01*
X164885021Y-96113153D01*
X165042216Y-96283913D01*
X165042219Y-96283915D01*
X165042222Y-96283918D01*
X165225365Y-96426464D01*
X165225371Y-96426468D01*
X165225374Y-96426470D01*
X165429497Y-96536936D01*
X165483479Y-96555468D01*
X165649015Y-96612297D01*
X165649017Y-96612297D01*
X165649019Y-96612298D01*
X165877951Y-96650500D01*
X165877952Y-96650500D01*
X166110048Y-96650500D01*
X166110049Y-96650500D01*
X166338981Y-96612298D01*
X166558503Y-96536936D01*
X166762626Y-96426470D01*
X166945784Y-96283913D01*
X166954511Y-96274432D01*
X167014394Y-96238441D01*
X167084232Y-96240538D01*
X167141850Y-96280060D01*
X167161924Y-96315080D01*
X167190645Y-96392086D01*
X167190649Y-96392093D01*
X167276809Y-96507187D01*
X167276812Y-96507190D01*
X167391906Y-96593350D01*
X167391913Y-96593354D01*
X167526620Y-96643596D01*
X167526627Y-96643598D01*
X167586155Y-96649999D01*
X167586172Y-96650000D01*
X168284000Y-96650000D01*
X168284000Y-95625277D01*
X168360306Y-95669333D01*
X168474756Y-95700000D01*
X168593244Y-95700000D01*
X168707694Y-95669333D01*
X168784000Y-95625277D01*
X168784000Y-96650000D01*
X169481828Y-96650000D01*
X169481844Y-96649999D01*
X169541372Y-96643598D01*
X169541379Y-96643596D01*
X169676086Y-96593354D01*
X169676093Y-96593350D01*
X169791187Y-96507190D01*
X169791190Y-96507187D01*
X169877350Y-96392093D01*
X169877354Y-96392086D01*
X169927596Y-96257379D01*
X169927598Y-96257372D01*
X169933999Y-96197844D01*
X169934000Y-96197827D01*
X169934000Y-95500000D01*
X168909278Y-95500000D01*
X168953333Y-95423694D01*
X168984000Y-95309244D01*
X168984000Y-95190756D01*
X168953333Y-95076306D01*
X168909278Y-95000000D01*
X169934000Y-95000000D01*
X169934000Y-94302172D01*
X169933999Y-94302155D01*
X169927598Y-94242627D01*
X169927596Y-94242620D01*
X169877354Y-94107913D01*
X169877350Y-94107906D01*
X169791190Y-93992812D01*
X169791187Y-93992809D01*
X169676093Y-93906649D01*
X169676086Y-93906645D01*
X169541379Y-93856403D01*
X169541372Y-93856401D01*
X169481844Y-93850000D01*
X168784000Y-93850000D01*
X168784000Y-94874722D01*
X168707694Y-94830667D01*
X168593244Y-94800000D01*
X168474756Y-94800000D01*
X168360306Y-94830667D01*
X168284000Y-94874722D01*
X168284000Y-93850000D01*
X167586155Y-93850000D01*
X167526627Y-93856401D01*
X167526620Y-93856403D01*
X167391913Y-93906645D01*
X167391906Y-93906649D01*
X167276812Y-93992809D01*
X167276809Y-93992812D01*
X167190649Y-94107906D01*
X167190646Y-94107911D01*
X167161924Y-94184920D01*
X167120052Y-94240853D01*
X167054588Y-94265270D01*
X166986315Y-94250418D01*
X166954514Y-94225571D01*
X166945784Y-94216087D01*
X166945779Y-94216083D01*
X166945777Y-94216081D01*
X166762634Y-94073535D01*
X166762628Y-94073531D01*
X166558504Y-93963064D01*
X166558495Y-93963061D01*
X166338984Y-93887702D01*
X166151404Y-93856401D01*
X166110049Y-93849500D01*
X165877951Y-93849500D01*
X165836596Y-93856401D01*
X165649015Y-93887702D01*
X165429504Y-93963061D01*
X165429495Y-93963064D01*
X165225371Y-94073531D01*
X165225365Y-94073535D01*
X165042222Y-94216081D01*
X165042219Y-94216084D01*
X165042216Y-94216086D01*
X165042216Y-94216087D01*
X165019095Y-94241203D01*
X164885016Y-94386852D01*
X164758075Y-94581151D01*
X164664842Y-94793699D01*
X164607866Y-95018691D01*
X164607864Y-95018702D01*
X164588700Y-95249993D01*
X164588700Y-95250006D01*
X155340000Y-95250006D01*
X155340000Y-95197339D01*
X155312741Y-95095606D01*
X155260080Y-95004394D01*
X155255686Y-95000000D01*
X156218872Y-95000000D01*
X156218872Y-94999999D01*
X156166269Y-94803682D01*
X156166265Y-94803673D01*
X156070134Y-94597517D01*
X155939657Y-94411179D01*
X155778820Y-94250342D01*
X155592482Y-94119865D01*
X155386328Y-94023734D01*
X155190000Y-93971127D01*
X155190000Y-94934314D01*
X155185606Y-94929920D01*
X155094394Y-94877259D01*
X154992661Y-94850000D01*
X154887339Y-94850000D01*
X154785606Y-94877259D01*
X154694394Y-94929920D01*
X154690000Y-94934314D01*
X154690000Y-93971127D01*
X154493671Y-94023734D01*
X154287517Y-94119865D01*
X154101179Y-94250342D01*
X153940342Y-94411179D01*
X153809867Y-94597515D01*
X153782657Y-94655867D01*
X153736484Y-94708306D01*
X153669290Y-94727457D01*
X153602409Y-94707241D01*
X153557893Y-94655865D01*
X153540657Y-94618903D01*
X153530568Y-94597266D01*
X153400047Y-94410861D01*
X153400045Y-94410858D01*
X153239141Y-94249954D01*
X153052734Y-94119432D01*
X153052732Y-94119431D01*
X152846497Y-94023261D01*
X152846488Y-94023258D01*
X152626697Y-93964366D01*
X152626693Y-93964365D01*
X152626692Y-93964365D01*
X152626691Y-93964364D01*
X152626686Y-93964364D01*
X152400002Y-93944532D01*
X152399998Y-93944532D01*
X152173313Y-93964364D01*
X152173302Y-93964366D01*
X151953511Y-94023258D01*
X151953502Y-94023261D01*
X151747267Y-94119431D01*
X151747265Y-94119432D01*
X151560858Y-94249954D01*
X151399954Y-94410858D01*
X151269432Y-94597265D01*
X151269431Y-94597267D01*
X151242382Y-94655275D01*
X151196209Y-94707714D01*
X151129016Y-94726866D01*
X151062135Y-94706650D01*
X151017618Y-94655275D01*
X151000658Y-94618905D01*
X150990568Y-94597266D01*
X150860047Y-94410861D01*
X150860045Y-94410858D01*
X150699141Y-94249954D01*
X150512734Y-94119432D01*
X150512732Y-94119431D01*
X150306497Y-94023261D01*
X150306488Y-94023258D01*
X150086697Y-93964366D01*
X150086693Y-93964365D01*
X150086692Y-93964365D01*
X150086691Y-93964364D01*
X150086686Y-93964364D01*
X149860002Y-93944532D01*
X149859998Y-93944532D01*
X149633313Y-93964364D01*
X149633302Y-93964366D01*
X149413511Y-94023258D01*
X149413502Y-94023261D01*
X149207267Y-94119431D01*
X149207265Y-94119432D01*
X149020858Y-94249954D01*
X148859954Y-94410858D01*
X148729432Y-94597265D01*
X148729431Y-94597267D01*
X148702382Y-94655275D01*
X148656209Y-94707714D01*
X148589016Y-94726866D01*
X148522135Y-94706650D01*
X148477618Y-94655275D01*
X148460658Y-94618905D01*
X148450568Y-94597266D01*
X148320047Y-94410861D01*
X148320045Y-94410858D01*
X148174319Y-94265132D01*
X148140834Y-94203809D01*
X148138000Y-94177451D01*
X148138000Y-93645433D01*
X148137999Y-93645429D01*
X148106565Y-93487398D01*
X148057636Y-93369274D01*
X148047582Y-93345000D01*
X161331341Y-93345000D01*
X161351936Y-93580403D01*
X161351938Y-93580413D01*
X161413094Y-93808655D01*
X161413096Y-93808659D01*
X161413097Y-93808663D01*
X161498966Y-93992809D01*
X161512965Y-94022830D01*
X161512967Y-94022834D01*
X161621232Y-94177451D01*
X161648505Y-94216401D01*
X161815599Y-94383495D01*
X161854682Y-94410861D01*
X162009165Y-94519032D01*
X162009167Y-94519033D01*
X162009170Y-94519035D01*
X162223337Y-94618903D01*
X162451592Y-94680063D01*
X162639918Y-94696539D01*
X162686999Y-94700659D01*
X162687000Y-94700659D01*
X162687001Y-94700659D01*
X162726234Y-94697226D01*
X162922408Y-94680063D01*
X163150663Y-94618903D01*
X163364830Y-94519035D01*
X163558401Y-94383495D01*
X163725495Y-94216401D01*
X163861035Y-94022830D01*
X163960903Y-93808663D01*
X164022063Y-93580408D01*
X164042659Y-93345000D01*
X164022063Y-93109592D01*
X163960903Y-92881337D01*
X163861035Y-92667171D01*
X163860745Y-92666756D01*
X163725494Y-92473597D01*
X163558402Y-92306506D01*
X163558395Y-92306501D01*
X163364834Y-92170967D01*
X163364830Y-92170965D01*
X163364828Y-92170964D01*
X163150663Y-92071097D01*
X163150659Y-92071096D01*
X163150655Y-92071094D01*
X162922413Y-92009938D01*
X162922403Y-92009936D01*
X162687001Y-91989341D01*
X162686999Y-91989341D01*
X162451596Y-92009936D01*
X162451586Y-92009938D01*
X162223344Y-92071094D01*
X162223335Y-92071098D01*
X162009171Y-92170964D01*
X162009169Y-92170965D01*
X161815597Y-92306505D01*
X161648505Y-92473597D01*
X161512965Y-92667169D01*
X161512964Y-92667171D01*
X161413098Y-92881335D01*
X161413094Y-92881344D01*
X161351938Y-93109586D01*
X161351936Y-93109596D01*
X161331341Y-93344999D01*
X161331341Y-93345000D01*
X148047582Y-93345000D01*
X148044902Y-93338531D01*
X148044901Y-93338529D01*
X148044900Y-93338527D01*
X147955382Y-93204555D01*
X147955379Y-93204551D01*
X147333448Y-92582620D01*
X147333444Y-92582617D01*
X147199474Y-92493100D01*
X147199461Y-92493093D01*
X147050606Y-92431436D01*
X147050594Y-92431433D01*
X146892570Y-92400000D01*
X146892566Y-92400000D01*
X143590566Y-92400000D01*
X131017566Y-92400000D01*
X116539566Y-92400000D01*
X112596434Y-92400000D01*
X112596429Y-92400000D01*
X112438405Y-92431433D01*
X112438397Y-92431435D01*
X112326554Y-92477763D01*
X112326553Y-92477763D01*
X112289535Y-92493095D01*
X112155552Y-92582619D01*
X109150089Y-95588082D01*
X109088766Y-95621567D01*
X109033463Y-95620975D01*
X108991304Y-95610854D01*
X108991299Y-95610853D01*
X108748000Y-95591706D01*
X108504702Y-95610853D01*
X108504698Y-95610854D01*
X108405466Y-95634678D01*
X108267380Y-95667830D01*
X108041910Y-95761222D01*
X107833826Y-95888737D01*
X107833823Y-95888738D01*
X107648241Y-96047241D01*
X107489738Y-96232823D01*
X107489737Y-96232826D01*
X107362222Y-96440910D01*
X107268830Y-96666380D01*
X107268828Y-96666387D01*
X107268828Y-96666388D01*
X107240610Y-96783924D01*
X107211853Y-96903702D01*
X107192706Y-97147000D01*
X100598500Y-97147000D01*
X100598500Y-97024973D01*
X100560321Y-96783924D01*
X100484904Y-96551815D01*
X100374106Y-96334361D01*
X100323602Y-96264848D01*
X100230660Y-96136923D01*
X100230656Y-96136918D01*
X100058081Y-95964343D01*
X100058076Y-95964339D01*
X99860642Y-95820896D01*
X99860641Y-95820895D01*
X99860639Y-95820894D01*
X99643185Y-95710096D01*
X99411076Y-95634679D01*
X99411074Y-95634678D01*
X99411072Y-95634678D01*
X99242769Y-95608021D01*
X99170027Y-95596500D01*
X98925973Y-95596500D01*
X98870093Y-95605350D01*
X98684927Y-95634678D01*
X98452812Y-95710097D01*
X98235357Y-95820896D01*
X98037923Y-95964339D01*
X98037918Y-95964343D01*
X97865343Y-96136918D01*
X97865339Y-96136923D01*
X97721896Y-96334357D01*
X97611097Y-96551812D01*
X97535678Y-96783927D01*
X97497500Y-97024973D01*
X97497500Y-97269026D01*
X96901500Y-97269026D01*
X96901500Y-90173051D01*
X96901575Y-90170005D01*
X97788223Y-90170005D01*
X97808264Y-90488561D01*
X97808266Y-90488569D01*
X97868078Y-90802114D01*
X97868080Y-90802119D01*
X97966716Y-91105692D01*
X97966718Y-91105697D01*
X98102622Y-91394506D01*
X98102625Y-91394512D01*
X98273655Y-91664014D01*
X98273658Y-91664018D01*
X98273659Y-91664019D01*
X98403647Y-91821148D01*
X98477125Y-91909967D01*
X98709808Y-92128471D01*
X98709818Y-92128479D01*
X98968036Y-92316085D01*
X98968041Y-92316087D01*
X98968048Y-92316093D01*
X99247764Y-92469869D01*
X99247769Y-92469871D01*
X99247771Y-92469872D01*
X99247772Y-92469873D01*
X99544544Y-92587373D01*
X99544547Y-92587374D01*
X99853714Y-92666754D01*
X99853718Y-92666755D01*
X99920151Y-92675147D01*
X100170389Y-92706760D01*
X100170398Y-92706760D01*
X100170401Y-92706761D01*
X100170403Y-92706761D01*
X100489597Y-92706761D01*
X100489599Y-92706761D01*
X100489602Y-92706760D01*
X100489610Y-92706760D01*
X100678576Y-92682887D01*
X100806282Y-92666755D01*
X101115452Y-92587374D01*
X101115455Y-92587373D01*
X101412227Y-92469873D01*
X101412228Y-92469872D01*
X101412226Y-92469872D01*
X101412236Y-92469869D01*
X101691952Y-92316093D01*
X101950190Y-92128473D01*
X102182876Y-91909966D01*
X102386341Y-91664019D01*
X102557376Y-91394510D01*
X102693284Y-91105691D01*
X102791922Y-90802114D01*
X102792135Y-90801000D01*
X142052364Y-90801000D01*
X142109567Y-91014486D01*
X142109570Y-91014492D01*
X142209399Y-91228578D01*
X142344894Y-91422082D01*
X142511917Y-91589105D01*
X142705421Y-91724600D01*
X142919507Y-91824429D01*
X142919516Y-91824433D01*
X143133000Y-91881634D01*
X143133000Y-90984012D01*
X143190007Y-91016925D01*
X143317174Y-91051000D01*
X143448826Y-91051000D01*
X143575993Y-91016925D01*
X143633000Y-90984012D01*
X143633000Y-91881633D01*
X143846483Y-91824433D01*
X143846492Y-91824429D01*
X144060578Y-91724600D01*
X144254082Y-91589105D01*
X144421105Y-91422082D01*
X144556600Y-91228578D01*
X144656429Y-91014492D01*
X144656432Y-91014486D01*
X144713636Y-90801000D01*
X143816012Y-90801000D01*
X143848925Y-90743993D01*
X143883000Y-90616826D01*
X143883000Y-90485174D01*
X143848925Y-90358007D01*
X143816012Y-90301000D01*
X144713636Y-90301000D01*
X144713635Y-90300999D01*
X144656432Y-90087513D01*
X144656429Y-90087507D01*
X144556600Y-89873422D01*
X144556599Y-89873420D01*
X144421113Y-89679926D01*
X144421108Y-89679920D01*
X144254082Y-89512894D01*
X144060578Y-89377399D01*
X143846492Y-89277570D01*
X143846486Y-89277567D01*
X143633000Y-89220364D01*
X143633000Y-90117988D01*
X143575993Y-90085075D01*
X143448826Y-90051000D01*
X143317174Y-90051000D01*
X143190007Y-90085075D01*
X143133000Y-90117988D01*
X143133000Y-89220364D01*
X143132999Y-89220364D01*
X142919513Y-89277567D01*
X142919507Y-89277570D01*
X142705422Y-89377399D01*
X142705420Y-89377400D01*
X142511926Y-89512886D01*
X142511920Y-89512891D01*
X142344891Y-89679920D01*
X142344886Y-89679926D01*
X142209400Y-89873420D01*
X142209399Y-89873422D01*
X142109570Y-90087507D01*
X142109567Y-90087513D01*
X142052364Y-90300999D01*
X142052364Y-90301000D01*
X142949988Y-90301000D01*
X142917075Y-90358007D01*
X142883000Y-90485174D01*
X142883000Y-90616826D01*
X142917075Y-90743993D01*
X142949988Y-90801000D01*
X142052364Y-90801000D01*
X102792135Y-90801000D01*
X102851734Y-90488569D01*
X102855145Y-90434365D01*
X102871777Y-90170005D01*
X102871777Y-90169994D01*
X102851735Y-89851438D01*
X102847249Y-89827920D01*
X102791922Y-89537886D01*
X102693284Y-89234309D01*
X102681529Y-89209329D01*
X102636667Y-89113992D01*
X102557376Y-88945490D01*
X102488243Y-88836554D01*
X102386344Y-88675985D01*
X102285277Y-88553816D01*
X102182876Y-88430034D01*
X101950190Y-88211527D01*
X101950187Y-88211525D01*
X101950181Y-88211520D01*
X101691963Y-88023914D01*
X101691956Y-88023909D01*
X101691952Y-88023907D01*
X101412236Y-87870131D01*
X101412233Y-87870129D01*
X101412228Y-87870127D01*
X101412227Y-87870126D01*
X101115455Y-87752626D01*
X101115452Y-87752625D01*
X100806285Y-87673245D01*
X100806272Y-87673243D01*
X100489610Y-87633239D01*
X100489599Y-87633239D01*
X100170401Y-87633239D01*
X100170389Y-87633239D01*
X99853727Y-87673243D01*
X99853714Y-87673245D01*
X99544547Y-87752625D01*
X99544544Y-87752626D01*
X99247772Y-87870126D01*
X99247771Y-87870127D01*
X98968048Y-88023907D01*
X98968036Y-88023914D01*
X98709818Y-88211520D01*
X98709808Y-88211528D01*
X98477125Y-88430032D01*
X98273655Y-88675985D01*
X98102625Y-88945487D01*
X98102622Y-88945493D01*
X97966718Y-89234302D01*
X97966716Y-89234307D01*
X97920223Y-89377399D01*
X97868078Y-89537886D01*
X97834418Y-89714333D01*
X97808264Y-89851438D01*
X97788223Y-90169994D01*
X97788223Y-90170005D01*
X96901575Y-90170005D01*
X96901649Y-90166967D01*
X96917710Y-89840031D01*
X96918903Y-89827920D01*
X96965633Y-89512894D01*
X96966486Y-89507144D01*
X96968854Y-89495237D01*
X97047653Y-89180654D01*
X97051176Y-89169039D01*
X97160434Y-88863682D01*
X97165073Y-88852485D01*
X97303740Y-88559297D01*
X97309456Y-88548605D01*
X97476185Y-88270433D01*
X97482915Y-88260360D01*
X97676126Y-87999847D01*
X97683808Y-87990487D01*
X97901609Y-87750179D01*
X97910179Y-87741609D01*
X98150487Y-87523808D01*
X98159847Y-87516126D01*
X98420360Y-87322915D01*
X98430433Y-87316185D01*
X98708605Y-87149456D01*
X98719297Y-87143740D01*
X99012485Y-87005073D01*
X99023682Y-87000434D01*
X99329039Y-86891176D01*
X99340654Y-86887653D01*
X99655237Y-86808854D01*
X99667144Y-86806486D01*
X99987923Y-86758902D01*
X100000027Y-86757710D01*
X100326967Y-86741648D01*
X100333051Y-86741500D01*
X100384851Y-86741500D01*
X168855147Y-86741500D01*
X168906947Y-86741500D01*
X168913030Y-86741648D01*
G37*
%TD.AperFunction*%
%TD*%
M02*
